<svg width="100" height="100" viewBox="0 0 100 100" fill="none" xmlns="http://www.w3.org/2000/svg">
<g clip-path="url(#clip0_723_2449)">
<path d="M78.686 72.8809L83.313 76.2774C83.5641 76.4627 83.868 76.5627 84.1801 76.5625H89.4633C89.8169 77.8098 90.6097 78.8871 91.6953 79.5956C92.781 80.3042 94.0862 80.5961 95.3703 80.4176C96.6544 80.2392 97.8305 79.6023 98.6818 78.6245C99.533 77.6467 100.002 76.3941 100.002 75.0977C100.002 73.8013 99.533 72.5486 98.6818 71.5709C97.8305 70.5931 96.6544 69.9562 95.3703 69.7777C94.0862 69.5993 92.781 69.8912 91.6953 70.5998C90.6097 71.3083 89.8169 72.3856 89.4633 73.6328H84.6606L80.0005 70.211C81.34 67.3155 82.4502 64.3193 83.3208 61.25L89.7466 63.125C89.8799 63.1636 90.0179 63.1833 90.1567 63.1836C90.4148 63.1839 90.6683 63.116 90.8916 62.9867C91.1149 62.8574 91.3 62.6713 91.4282 62.4473L93.3344 59.127C94.4192 59.3965 95.561 59.3208 96.6007 58.9106C97.6404 58.5003 98.5262 57.776 99.1347 56.8384C99.7432 55.9009 100.044 54.7968 99.9953 53.6802C99.9466 52.5635 99.5508 51.4899 98.8629 50.6089C98.175 49.7279 97.2295 49.0835 96.158 48.7654C95.0865 48.4472 93.9425 48.4713 92.8853 48.8343C91.8282 49.1972 90.9106 49.8809 90.2604 50.7901C89.6103 51.6992 89.2599 52.7886 89.2583 53.9063C89.2574 55.3106 89.8088 56.6589 90.7934 57.6602L89.4536 59.9903L84.0493 58.4121C85.1068 53.8656 85.6402 49.2129 85.6391 44.545V17.6426C85.639 17.3652 85.5601 17.0936 85.4118 16.8592C85.2635 16.6248 85.0518 16.4373 84.8012 16.3184L50.6274 0.140657C50.4314 0.0481151 50.2173 0.00012207 50.0005 0.00012207C49.7837 0.00012207 49.5696 0.0481151 49.3735 0.140657L15.1938 16.3184C14.9432 16.4373 14.7315 16.6248 14.5832 16.8592C14.4349 17.0936 14.3561 17.3652 14.3559 17.6426V44.541C14.3548 49.209 14.8882 53.8617 15.9458 58.4082L10.5473 59.9903L9.21335 57.6602C10.079 56.7738 10.6113 55.6153 10.72 54.3812C10.8287 53.147 10.5071 51.9133 9.80982 50.8893C9.1125 49.8652 8.08237 49.114 6.89423 48.7629C5.70608 48.4119 4.43308 48.4827 3.29121 48.9634C2.14933 49.4441 1.20891 50.305 0.629491 51.4001C0.0500721 52.4951 -0.132659 53.7569 0.112299 54.9714C0.357258 56.1858 1.01482 57.2782 1.97342 58.063C2.93203 58.8479 4.13264 59.2769 5.37155 59.2774C5.80798 59.2769 6.24276 59.2238 6.66647 59.1192L8.57272 62.4395C8.70089 62.6635 8.88601 62.8495 9.10932 62.9789C9.33262 63.1082 9.58616 63.1761 9.84421 63.1758C9.98299 63.1755 10.1211 63.1558 10.2544 63.1172L16.6801 61.2422C17.5507 64.3115 18.6609 67.3077 20.0005 70.2032L15.3403 73.6328H10.5473C10.1938 72.3856 9.40102 71.3083 8.31537 70.5998C7.22973 69.8912 5.92444 69.5993 4.64039 69.7777C3.35633 69.9562 2.18016 70.5931 1.3289 71.5709C0.477646 72.5486 0.00875645 73.8013 0.00875645 75.0977C0.00875645 76.3941 0.477646 77.6467 1.3289 78.6245C2.18016 79.6023 3.35633 80.2392 4.64039 80.4176C5.92444 80.5961 7.22973 80.3042 8.31537 79.5956C9.40102 78.8871 10.1938 77.8098 10.5473 76.5625H15.8208C16.1329 76.5627 16.4368 76.4627 16.688 76.2774L21.3149 72.8809C22.0962 74.3757 22.9425 75.8412 23.854 77.2774C24.9831 79.0587 26.2028 80.781 27.5083 82.4375L21.8755 91.211H14.5024C14.1394 89.4326 13.129 87.8523 11.6671 86.7766C10.2052 85.7009 8.39589 85.2063 6.59002 85.3887C4.78416 85.5711 3.11036 86.4176 1.89313 87.764C0.675898 89.1104 0.00195313 90.8608 0.00195312 92.6758C0.00195313 94.4909 0.675898 96.2413 1.89313 97.5877C3.11036 98.9341 4.78416 99.7805 6.59002 99.9629C8.39589 100.145 10.2052 99.6508 11.6671 98.575C13.129 97.4993 14.1394 95.919 14.5024 94.1407H22.6782C22.9237 94.1409 23.1653 94.0793 23.3807 93.9616C23.5961 93.8438 23.7783 93.6736 23.9106 93.4668L29.4633 84.8028C34.9938 91.1376 41.7718 96.2634 49.3735 99.8594C49.5696 99.952 49.7837 99.9999 50.0005 99.9999C50.2173 99.9999 50.4314 99.952 50.6274 99.8594C58.2291 96.2634 65.0071 91.1376 70.5376 84.8028L76.0903 93.4668C76.2226 93.6736 76.4048 93.8438 76.6202 93.9616C76.8356 94.0793 77.0772 94.1409 77.3227 94.1407H85.4985C85.8615 95.919 86.8719 97.4993 88.3338 98.575C89.7958 99.6508 91.605 100.145 93.4109 99.9629C95.2168 99.7805 96.8905 98.9341 98.1078 97.5877C99.325 96.2413 99.999 94.4909 99.999 92.6758C99.999 90.8608 99.325 89.1104 98.1078 87.764C96.8905 86.4176 95.2168 85.5711 93.4109 85.3887C91.605 85.2063 89.7958 85.7009 88.3338 86.7766C86.8719 87.8523 85.8615 89.4326 85.4985 91.211H78.1255L72.5005 82.4375C73.8059 80.781 75.0256 79.0587 76.1548 77.2774C77.0636 75.8425 77.9074 74.377 78.686 72.8809ZM94.6294 72.6563C95.1122 72.6563 95.5843 72.7995 95.9857 73.0677C96.3872 73.336 96.7001 73.7173 96.8849 74.1634C97.0697 74.6095 97.1181 75.1004 97.0239 75.574C96.9297 76.0476 96.6971 76.4826 96.3557 76.824C96.0143 77.1655 95.5792 77.398 95.1057 77.4922C94.6321 77.5864 94.1412 77.538 93.6951 77.3533C93.249 77.1685 92.8677 76.8556 92.5994 76.4541C92.3311 76.0526 92.188 75.5806 92.188 75.0977C92.189 74.4505 92.4465 73.8301 92.9042 73.3725C93.3618 72.9149 93.9822 72.6573 94.6294 72.6563ZM94.6294 51.4649C95.1122 51.4649 95.5843 51.6081 95.9857 51.8763C96.3872 52.1446 96.7001 52.5259 96.8849 52.972C97.0697 53.4181 97.1181 53.909 97.0239 54.3826C96.9297 54.8562 96.6971 55.2912 96.3557 55.6326C96.0143 55.9741 95.5792 56.2066 95.1057 56.3008C94.6321 56.395 94.1412 56.3466 93.6951 56.1618C93.249 55.9771 92.8677 55.6641 92.5994 55.2627C92.3311 54.8612 92.188 54.3891 92.188 53.9063C92.189 53.2591 92.4465 52.6387 92.9042 52.1811C93.3618 51.7235 93.9822 51.4659 94.6294 51.4649ZM2.93015 53.9063C2.93015 53.4234 3.07333 52.9514 3.3416 52.5499C3.60986 52.1484 3.99116 51.8355 4.43727 51.6507C4.88337 51.4659 5.37426 51.4176 5.84785 51.5118C6.32143 51.606 6.75645 51.8385 7.09789 52.1799C7.43932 52.5214 7.67185 52.9564 7.76605 53.43C7.86025 53.9036 7.8119 54.3945 7.62712 54.8406C7.44233 55.2867 7.12941 55.668 6.72793 55.9362C6.32644 56.2045 5.85442 56.3477 5.37155 56.3477C4.72437 56.3467 4.10399 56.0891 3.64636 55.6315C3.18873 55.1739 2.93118 54.5535 2.93015 53.9063ZM5.37155 77.5391C4.88869 77.5391 4.41667 77.3959 4.01518 77.1276C3.61369 76.8594 3.30077 76.4781 3.11599 76.032C2.9312 75.5859 2.88285 75.095 2.97706 74.6214C3.07126 74.1478 3.30378 73.7128 3.64522 73.3714C3.98665 73.0299 4.42167 72.7974 4.89526 72.7032C5.36884 72.609 5.85973 72.6573 6.30584 72.8421C6.75195 73.0269 7.13324 73.3398 7.40151 73.7413C7.66977 74.1428 7.81296 74.6148 7.81296 75.0977C7.81193 75.7449 7.55437 76.3653 7.09675 76.8229C6.63912 77.2805 6.01874 77.5381 5.37155 77.5391ZM7.32468 97.0703C6.45552 97.0703 5.60588 96.8126 4.88321 96.3297C4.16053 95.8469 3.59727 95.1605 3.26466 94.3575C2.93205 93.5545 2.84502 92.6709 3.01459 91.8185C3.18415 90.966 3.60269 90.183 4.21727 89.5684C4.83186 88.9538 5.61489 88.5353 6.46735 88.3657C7.3198 88.1962 8.2034 88.2832 9.00639 88.6158C9.80939 88.9484 10.4957 89.5117 10.9786 90.2343C11.4615 90.957 11.7192 91.8067 11.7192 92.6758C11.7182 93.841 11.2548 94.9582 10.4309 95.7821C9.60703 96.606 8.48986 97.0693 7.32468 97.0703ZM92.6762 88.2813C93.5454 88.2813 94.395 88.539 95.1177 89.0219C95.8404 89.5048 96.4036 90.1911 96.7363 90.9941C97.0689 91.7971 97.1559 92.6807 96.9863 93.5331C96.8168 94.3856 96.3982 95.1686 95.7836 95.7832C95.1691 96.3978 94.386 96.8163 93.5336 96.9859C92.6811 97.1555 91.7975 97.0684 90.9945 96.7358C90.1915 96.4032 89.5052 95.84 89.0223 95.1173C88.5394 94.3946 88.2817 93.545 88.2817 92.6758C88.2827 91.5106 88.7461 90.3935 89.57 89.5696C90.3939 88.7456 91.5111 88.2823 92.6762 88.2813ZM50.0005 96.9102C30.104 87.1953 17.2856 66.7168 17.2856 44.541V18.5645L50.0005 3.08597L82.7153 18.5703V44.5469C82.7153 66.7168 69.8969 87.1953 50.0005 96.9102Z" fill="#1B71FF"/>
<path d="M76.9941 21.2657L50.627 8.78909C50.4312 8.69561 50.217 8.64709 50 8.64709C49.783 8.64709 49.5688 8.69561 49.373 8.78909L23.0059 21.2696C22.7554 21.3882 22.5438 21.5753 22.3955 21.8094C22.2472 22.0434 22.1683 22.3147 22.168 22.5918V44.545C22.1696 53.9973 24.6802 63.2798 29.4434 71.4442C34.2066 79.6087 41.0517 86.3624 49.2793 91.0157C49.4992 91.1399 49.7474 91.2052 50 91.2052C50.2526 91.2052 50.5008 91.1399 50.7207 91.0157C58.9504 86.3613 65.7967 79.6054 70.56 71.4383C75.3233 63.2712 77.8328 53.9859 77.832 44.5313V22.5879C77.8317 22.3108 77.7528 22.0395 77.6045 21.8055C77.4562 21.5714 77.2446 21.3842 76.9941 21.2657ZM74.9023 44.541C74.9026 53.3345 72.6049 61.9754 68.2368 69.6073C63.8688 77.2392 57.5822 83.5971 50 88.0508C42.4178 83.5971 36.1312 77.2392 31.7632 69.6073C27.3951 61.9754 25.0974 53.3345 25.0977 44.541V23.5157L50 11.7285L74.9023 23.5157V44.541Z" fill="#1B71FF"/>
<path d="M40.7227 31.5918V37.9395H36.3281C35.9396 37.9395 35.567 38.0938 35.2923 38.3685C35.0176 38.6432 34.8633 39.0158 34.8633 39.4043V62.8418C34.8633 63.2303 35.0176 63.6029 35.2923 63.8776C35.567 64.1523 35.9396 64.3066 36.3281 64.3066H63.6719C64.0604 64.3066 64.433 64.1523 64.7077 63.8776C64.9824 63.6029 65.1367 63.2303 65.1367 62.8418V39.4043C65.1367 39.0158 64.9824 38.6432 64.7077 38.3685C64.433 38.0938 64.0604 37.9395 63.6719 37.9395H59.2773V31.5918C59.2773 29.1313 58.2999 26.7716 56.5601 25.0317C54.8202 23.2919 52.4605 22.3145 50 22.3145C47.5395 22.3145 45.1798 23.2919 43.4399 25.0317C41.7001 26.7716 40.7227 29.1313 40.7227 31.5918ZM62.207 61.377H37.793V40.8691H62.207V61.377ZM56.3477 31.5918V37.9395H43.6523V31.5918C43.6523 29.9083 44.3211 28.2937 45.5115 27.1033C46.7019 25.9129 48.3165 25.2441 50 25.2441C51.6835 25.2441 53.2981 25.9129 54.4885 27.1033C55.6789 28.2937 56.3477 29.9083 56.3477 31.5918Z" fill="#1B71FF"/>
<path d="M49.0234 55.5176H50.9766C52.1421 55.5176 53.2598 55.0546 54.084 54.2305C54.9081 53.4063 55.3711 52.2885 55.3711 51.123C55.3711 49.9575 54.9081 48.8398 54.084 48.0156C53.2598 47.1915 52.1421 46.7285 50.9766 46.7285H49.0234C47.8579 46.7285 46.7402 47.1915 45.916 48.0156C45.0919 48.8398 44.6289 49.9575 44.6289 51.123C44.6289 52.2885 45.0919 53.4063 45.916 54.2305C46.7402 55.0546 47.8579 55.5176 49.0234 55.5176ZM49.0234 49.6582H50.9766C51.3651 49.6582 51.7377 49.8125 52.0124 50.0872C52.2871 50.362 52.4414 50.7345 52.4414 51.123C52.4414 51.5115 52.2871 51.8841 52.0124 52.1589C51.7377 52.4336 51.3651 52.5879 50.9766 52.5879H49.0234C48.6349 52.5879 48.2623 52.4336 47.9876 52.1589C47.7129 51.8841 47.5586 51.5115 47.5586 51.123C47.5586 50.7345 47.7129 50.362 47.9876 50.0872C48.2623 49.8125 48.6349 49.6582 49.0234 49.6582Z" fill="#1B71FF"/>
</g>
<defs>
<clipPath id="clip0_723_2449">
<rect width="100" height="100" fill="white"/>
</clipPath>
</defs>
</svg>
