<svg width="117" height="24" viewBox="0 0 117 24" fill="none" xmlns="http://www.w3.org/2000/svg">
<path d="M14.1226 0.219971C16.6126 0.621096 18.954 1.97034 20.4405 3.97596C20.7379 4.37709 21.0352 4.81468 21.2582 5.28874C20.2919 5.94512 19.3256 6.56504 18.3965 7.22143C18.2478 7.33083 18.1363 7.40376 17.9505 7.47669C17.5045 6.38271 16.7241 5.39813 15.7206 4.74175C14.9773 4.26769 14.1226 3.9395 13.2678 3.75717C13.5279 2.59026 13.8252 1.42335 14.1226 0.219971ZM5.12872 1.27748C6.28082 0.912823 7.61875 1.49628 8.10189 2.55379C8.5107 3.35604 8.3992 4.41355 7.84173 5.10641C7.13561 5.98159 5.79768 6.30978 4.79424 5.79926C4.12527 5.47107 3.60497 4.85114 3.45631 4.12183C3.34482 3.57484 3.38198 2.99138 3.6793 2.48086C3.97661 1.8974 4.53408 1.49628 5.12872 1.27748ZM0 13.7124C1.37509 13.6759 2.71302 13.7124 4.08811 13.7124C4.34826 15.171 4.98006 16.5567 5.9835 17.6507C6.76396 18.5259 7.7674 19.1458 8.84518 19.5469C10.3318 20.0939 11.967 20.1668 13.5279 19.8022C14.9402 19.474 16.2038 18.7082 17.1329 17.5778C17.7647 16.812 18.2478 15.9368 18.508 14.9887C19.7344 15.3169 20.8865 15.7545 22.1129 16.1191C22.0758 16.4838 21.9271 16.8484 21.7785 17.2131C20.9608 19.2917 19.4371 21.0785 17.4674 22.2089C16.2038 22.9382 14.7544 23.4123 13.3049 23.5946C10.4433 23.9593 7.43292 23.3758 5.01722 21.8078C3.71646 20.9691 2.56436 19.8386 1.74674 18.5259C0.780457 17.1402 0.222988 15.4627 0 13.7124Z" fill="#28BB4E"/>
<path d="M25.3829 10.4304C27.1297 7.65898 30.9948 6.38267 34.0795 7.65898C35.0457 8.02364 35.7147 8.78942 36.2722 9.62814C36.235 8.97175 36.235 8.31536 36.235 7.62251H39.9515C40.0258 12.8371 39.8028 18.0518 40.1001 23.2664H36.458C36.4208 22.5371 36.3837 21.8442 36.3465 21.1149C34.4511 24.4333 29.5082 24.3239 26.8324 22.063C23.5247 19.2187 23.0787 13.9676 25.3829 10.4304ZM31.032 10.5033C27.6128 11.342 27.0182 15.8638 28.5791 18.4894C29.7684 20.6408 33.1132 21.0784 34.8227 19.2916C36.5323 17.5412 36.681 14.6969 35.6775 12.5454C34.8971 10.868 32.8159 10.0657 31.032 10.5033ZM58.9426 8.75295C61.6556 6.565 65.8552 6.60146 68.6426 8.68002C70.9839 10.5033 71.6157 13.6394 71.3927 16.4108C67.4905 16.4473 63.551 16.4108 59.6487 16.4108C59.8345 17.9424 60.6893 19.5104 62.2131 20.0939C64.4058 21.1514 67.3046 20.1303 68.0851 17.7965C69.1629 18.1247 70.2035 18.4529 71.2812 18.7446C70.6866 20.3491 69.6088 21.8442 68.0479 22.6829C65.0004 24.3968 60.7637 23.8863 58.2736 21.4066C54.8545 18.0518 55.1146 11.7432 58.9426 8.75295ZM60.6893 11.5608C60.1319 12.1443 59.946 12.9465 59.723 13.6759C62.3617 13.6759 65.0376 13.7488 67.6763 13.6029C67.4161 12.6548 67.1188 11.6338 66.264 11.0138C64.6659 9.84693 62.0273 9.9928 60.6893 11.5608ZM77.0789 8.60709C79.6433 6.6744 83.3969 6.6744 86.1099 8.31536C88.7858 10.0293 89.6777 13.4571 89.3061 16.4108C85.4038 16.3743 81.5015 16.4108 77.5992 16.4108C77.7851 17.3224 78.008 18.2706 78.6398 18.9634C80.0521 20.6773 82.8766 21.0055 84.6605 19.6927C85.3295 19.2187 85.6268 18.4164 86.1099 17.833C87.1505 18.0882 88.1912 18.4529 89.2318 18.7811C88.6371 20.4221 87.5222 21.9172 85.9241 22.7559C82.9138 24.3604 78.8257 23.9228 76.3728 21.5525C72.7307 18.1612 73.028 11.5608 77.0789 8.60709ZM78.5655 11.5973C78.0452 12.1808 77.8594 12.9465 77.6364 13.6759H85.5525C85.3666 12.7642 85.1065 11.7796 84.326 11.1232C82.7279 9.81047 79.9406 9.91986 78.5655 11.5973ZM96.5904 9.51874C98.7087 6.30974 104.321 6.3462 106.104 9.84693C107.814 6.96612 112.088 6.30974 114.764 8.24243C116.213 9.33641 116.882 11.1597 116.882 12.9101C116.919 16.3379 116.882 19.7657 116.882 23.1935H113.203V13.9676C113.203 13.0195 113.054 11.9984 112.385 11.3056C110.973 9.91986 108.26 10.2845 107.331 12.0349C106.848 12.8371 106.848 13.8217 106.848 14.6969V23.1935H103.131C103.094 19.8751 103.168 16.5567 103.094 13.2747C103.094 11.8161 101.868 10.4669 100.344 10.5033C98.5601 10.2481 96.8877 11.6702 96.7762 13.3841C96.6647 16.6661 96.7762 19.948 96.739 23.1935H92.9854V7.54958H96.6275C96.6275 8.24243 96.6275 8.89882 96.5904 9.51874ZM44.7829 7.58604H48.4993C48.4993 8.38829 48.4622 9.22701 48.4622 10.0293C49.5028 7.98717 51.9185 7.14845 54.1112 7.44018V11.2691C52.8104 11.2326 51.361 11.0868 50.2461 11.889C49.0568 12.6548 48.648 14.1499 48.6108 15.4627C48.5737 18.0518 48.6108 20.6408 48.5737 23.2299H44.7829V7.58604Z" fill="#28BB4E"/>
</svg>
