<svg width="138" height="27" viewBox="0 0 138 27" fill="none" xmlns="http://www.w3.org/2000/svg">
<path d="M9.35207 26.3971H4.2005V13.4176H0.691162V9.19177H4.20037V6.18478C4.20037 2.62149 5.7525 0.065918 10.8901 0.065918C11.9767 0.065918 13.6827 0.287276 13.6827 0.287276V4.21121H11.8909C10.0652 4.21121 9.35234 4.77248 9.35234 6.3242V9.19177H13.6143L13.2348 13.4176H9.35221L9.35207 26.3971ZM21.1725 8.85407C21.0974 8.85407 21.0202 8.85683 20.9437 8.85877C16.1669 8.85877 13.9814 12.4903 13.9814 17.6454C13.9814 24.1394 16.8163 26.7385 20.9811 26.7385C23.3639 26.7385 24.9294 25.7248 25.8809 23.8332V26.3989H30.7808V9.19357H25.8809V11.8395C25.104 10.1372 23.4947 8.87424 21.1725 8.85407ZM22.4184 12.9196C24.4246 12.9196 25.6288 14.334 25.6288 16.7398L25.6335 19.197C25.6335 20.8185 24.6389 22.7155 22.4184 22.7155C19.0046 22.7155 19.0958 18.99 19.0958 17.7492C19.0958 13.5753 20.9146 12.9196 22.4184 12.9196ZM32.7596 17.7971C32.7596 15.7064 32.6606 8.86526 41.4793 8.86526C45.0193 8.86526 46.4975 10.0029 46.4975 10.0029L45.3094 13.7271C45.3094 13.7271 43.8331 12.9055 41.9096 12.9055C39.4458 12.9055 37.8737 14.3491 37.8737 16.8889L37.8765 18.71C37.8765 21.1505 39.3933 22.7796 41.9146 22.7796C43.667 22.7796 45.2822 21.9503 45.2822 21.9503L46.4672 25.5968C46.4672 25.5968 45.1157 26.7415 41.5041 26.7415C33.1073 26.7415 32.7598 20.6038 32.7598 17.7971H32.7596ZM75.2272 8.85877C80.0042 8.85877 82.2241 12.4903 82.2241 17.6454C82.2241 24.1394 79.3891 26.7385 75.2243 26.7385C72.8415 26.7385 71.0801 25.725 70.1285 23.8332V26.3989L65.2903 26.3969V0.589053L70.4273 0.13625V11.6064C71.1687 9.59967 73.6052 8.85877 75.2273 8.85877H75.2272ZM73.787 12.9196C71.7807 12.9196 70.4273 14.334 70.4273 16.7398L70.4225 19.197C70.4195 20.8185 71.3598 22.7155 73.787 22.7155C77.2008 22.7155 77.1096 18.99 77.1096 17.7492C77.1096 13.5753 75.2909 12.9196 73.787 12.9196ZM55.4105 8.873C49.9924 8.873 47.1321 11.8586 47.1321 17.1643V18.15C47.1321 25.0363 51.1489 26.8093 55.9378 26.8093C60.5925 26.8093 62.6994 25.4934 62.6994 25.4934L61.7382 21.9892C61.7382 21.9892 59.2598 23.055 56.5537 23.055C53.7483 23.055 52.5418 22.3323 52.2325 19.6075H63.1101V16.7963C63.1101 11.041 59.8999 8.87286 55.4103 8.87286L55.4105 8.873ZM55.541 12.3818C57.4165 12.3818 58.6317 13.5442 58.565 16.2399H52.2419C52.3516 13.4027 53.6621 12.382 55.541 12.382V12.3818ZM92.467 8.84937C86.9031 8.84937 83.974 12.0183 83.974 17.6972C83.974 25.489 89.0231 26.7432 92.4763 26.7432C97.5314 26.7432 100.895 23.9925 100.895 17.768C100.895 11.2893 97.1131 8.84937 92.467 8.84937ZM92.397 12.9337C94.8435 12.9337 95.8129 14.7843 95.8129 16.8908V18.7019C95.8129 21.2537 94.4565 22.7297 92.3877 22.7297C90.4529 22.7297 89.0931 21.3491 89.0931 18.7019V16.8908C89.0931 14.0676 90.7111 12.9337 92.397 12.9337ZM111.128 8.84937C105.564 8.84937 102.635 12.0183 102.635 17.6972C102.635 25.489 107.684 26.7432 111.138 26.7432C116.193 26.7432 119.556 23.9925 119.556 17.768C119.556 11.2893 115.774 8.84937 111.128 8.84937ZM111.058 12.9337C113.505 12.9337 114.474 14.7843 114.474 16.8908V18.7019C114.474 21.2537 113.118 22.7297 111.049 22.7297C109.114 22.7297 107.754 21.3491 107.754 18.7019V16.8908C107.754 14.0676 109.372 12.9337 111.058 12.9337ZM121.497 26.3971V0.589053L126.649 0.13625V17.4344L131.76 9.19177H137.201L131.869 17.7287L137.406 26.3971H131.95L126.649 17.9802V26.3971H121.497Z" fill="#3873FF"/>
</svg>
