<svg width="117" height="39" viewBox="0 0 117 39" fill="none" xmlns="http://www.w3.org/2000/svg">
<path d="M28.7746 13.7549H15.114V17.8019H24.7893C24.314 23.4942 19.5723 25.8959 15.114 25.8959C9.38968 25.8959 4.42634 21.4056 4.42634 15.1123C4.42634 8.97667 9.17031 4.26697 15.114 4.26697C19.698 4.26697 22.4196 7.20796 22.4196 7.20796L25.2646 4.26697C25.2646 4.26697 21.6289 0.219971 14.9883 0.219971C6.54467 0.219971 0 7.36792 0 15.0506C0 22.6076 6.16533 29.9749 15.21 29.9749C23.1783 29.9749 28.9963 24.5043 28.9963 16.44C28.9963 14.7352 28.7746 13.7549 28.7746 13.7549Z" fill="#4285F4"/>
<path d="M39.9374 10.814C34.341 10.814 30.3237 15.2084 30.3237 20.2997C30.3237 25.4847 34.2131 29.9453 39.9991 29.9453C45.248 29.9453 49.5167 25.9303 49.5167 20.4277C49.551 14.0704 44.5556 10.814 39.9374 10.814ZM40.0013 14.5777C42.7527 14.5777 45.376 16.792 45.376 20.3957C45.376 23.9056 42.7824 26.2137 40.0013 26.2137C36.9347 26.2137 34.5307 23.7777 34.5307 20.3957C34.5307 17.0433 36.9027 14.5777 40.0013 14.5777Z" fill="#EA4335"/>
<path d="M60.8722 10.814C55.2758 10.814 51.2585 15.2084 51.2585 20.2997C51.2585 25.4847 55.1479 29.9453 60.9339 29.9453C66.1829 29.9453 70.4515 25.9303 70.4515 20.4277C70.4538 14.0704 65.4562 10.814 60.8722 10.814ZM60.9362 14.5777C63.6875 14.5777 66.3108 16.792 66.3108 20.3957C66.3108 23.9056 63.7172 26.2137 60.9362 26.2137C57.8695 26.2137 55.4655 23.7777 55.4655 20.3957C55.4335 17.0433 57.8352 14.5777 60.9362 14.5777Z" fill="#FBBC05"/>
<path d="M81.3627 10.814C76.2074 10.814 72.1924 15.3043 72.1924 20.3637C72.1924 26.1177 76.8724 29.9453 81.2987 29.9453C84.018 29.9453 85.4737 28.8713 86.5477 27.6053V29.502C86.5477 32.7903 84.555 34.783 81.5204 34.783C78.6114 34.783 77.126 32.6007 76.6187 31.369L72.951 32.9183C74.2467 35.6696 76.8724 38.5466 81.5524 38.5466C86.6757 38.5466 90.565 35.3223 90.565 28.5856V11.383H86.55V12.9963C85.3137 11.6984 83.6067 10.814 81.3627 10.814ZM81.742 14.5777C84.2717 14.5777 86.8653 16.728 86.8653 20.3957C86.8653 24.1273 84.2717 26.1817 81.71 26.1817C78.9587 26.1817 76.429 23.9674 76.429 20.4277C76.3971 16.7577 79.0547 14.5777 81.742 14.5777Z" fill="#4285F4"/>
<path d="M108.366 10.814C103.529 10.814 99.4497 14.6714 99.4497 20.3637C99.4497 26.4033 104.004 29.9773 108.842 29.9773C112.889 29.9773 115.386 27.763 116.842 25.7726L113.522 23.5583C112.667 24.886 111.214 26.1839 108.842 26.1839C106.154 26.1839 104.92 24.6986 104.162 23.275L117 17.9597L116.335 16.4104C115.103 13.3437 112.194 10.814 108.366 10.814ZM108.556 14.4817C110.295 14.4817 111.561 15.398 112.098 16.536L103.529 20.11C103.149 17.329 105.775 14.4817 108.556 14.4817Z" fill="#EA4335"/>
<path d="M97.5506 1.20026H93.3459V29.4059H97.5506V1.20026Z" fill="#34A853"/>
</svg>
