<svg width="112" height="37" viewBox="0 0 112 37" fill="none" xmlns="http://www.w3.org/2000/svg">
<path d="M13.756 0.0133667H14.7493C18.1975 0.0891297 21.5896 1.49075 24.0258 3.97198C23.1263 4.90008 22.208 5.7903 21.3272 6.71839C19.9591 5.4683 18.31 4.50232 16.5109 4.16139C13.8498 3.59317 10.9825 4.10457 8.75235 5.63877C6.31608 7.24873 4.66692 9.9762 4.31085 12.8931C3.9173 15.7721 4.72314 18.8026 6.57845 21.0376C8.35879 23.2158 11.0762 24.5795 13.8872 24.6742C16.5109 24.8258 19.247 24.0113 21.1585 22.1551C22.6578 20.8482 23.3512 18.8594 23.5761 16.9275C20.4651 16.9275 17.3542 16.9464 14.2433 16.9275V13.0257H27.3429C28.0175 17.2116 27.043 21.9278 23.8946 24.9205C21.7957 27.0418 18.8909 28.2919 15.9299 28.5381C13.0627 28.8223 10.1017 28.273 7.55295 26.8714C4.49826 25.2235 2.062 22.4392 0.862607 19.1625C-0.261821 16.1509 -0.280562 12.7416 0.768905 9.71103C1.72467 6.94568 3.56123 4.50232 5.92253 2.79766C8.19013 1.11193 10.945 0.183833 13.756 0.0133667Z" fill="#3873FF"/>
<path d="M88.9058 0.998352H92.9162V28.0457C91.5856 28.0457 90.2363 28.0646 88.9058 28.0268C88.9245 19.0299 88.9058 10.0141 88.9058 0.998352Z" fill="#3873FF"/>
<path d="M36.2628 10.3741C38.7366 9.90056 41.4165 10.4309 43.4592 11.9272C45.3145 13.253 46.6076 15.3365 47.0011 17.6094C47.5071 20.2421 46.87 23.1211 45.1833 25.2046C43.3655 27.5343 40.3857 28.7843 37.481 28.5949C34.8198 28.4434 32.2336 27.0986 30.6594 24.9015C28.8791 22.4771 28.4481 19.1436 29.4226 16.3025C30.3971 13.253 33.1519 10.9233 36.2628 10.3741ZM36.8251 13.9728C35.8131 14.238 34.876 14.8251 34.2014 15.6585C32.3836 17.8556 32.496 21.4354 34.5012 23.481C35.6444 24.6553 37.3685 25.2046 38.9615 24.8826C40.442 24.6174 41.7351 23.6136 42.4472 22.2877C43.6841 20.0338 43.328 16.9275 41.4352 15.166C40.2171 14.0296 38.4367 13.5561 36.8251 13.9728Z" fill="#3873FF"/>
<path d="M56.1262 10.3739C58.956 9.82466 62.0482 10.6202 64.1659 12.6279C67.6141 15.7531 67.9889 21.6058 65.0467 25.2046C63.2663 27.4775 60.3803 28.7276 57.5317 28.595C54.8144 28.5192 52.1345 27.1555 50.5228 24.9015C48.705 22.4203 48.3114 19.0109 49.3422 16.113C50.3729 13.1582 53.0715 10.9043 56.1262 10.3739ZM56.6884 13.9727C55.6764 14.2379 54.7394 14.825 54.0648 15.6395C52.2657 17.7987 52.3406 21.3217 54.2709 23.3863C55.4141 24.6174 57.1944 25.2235 58.8436 24.8826C60.3053 24.5985 61.6172 23.6135 62.3293 22.2877C63.5474 20.0148 63.1914 16.9085 61.2798 15.147C60.0617 14.0106 58.2814 13.556 56.6884 13.9727Z" fill="#3873FF"/>
<path d="M72.976 11.4726C75.1312 10.1089 77.9985 9.73006 80.3223 10.9044C81.0532 11.2264 81.6529 11.7757 82.2338 12.3249C82.2526 11.8135 82.2338 11.2832 82.2526 10.7529C83.5082 10.7718 84.7638 10.7529 86.0382 10.7718V27.4775C86.0194 29.9966 85.3823 32.6673 83.5832 34.5045C81.6154 36.5312 78.5982 37.1562 75.8808 36.7395C72.976 36.3039 70.4461 34.1636 69.3216 31.4551C70.4461 30.9058 71.6267 30.4701 72.7886 29.9587C73.4446 31.5119 74.7751 32.8377 76.443 33.1408C78.1109 33.4438 80.0412 33.0271 81.1282 31.6255C82.2901 30.186 82.2901 28.2162 82.2338 26.4547C81.3718 27.307 80.3785 28.0647 79.1791 28.3488C76.5742 29.0875 73.7069 28.1783 71.7017 26.3979C69.6777 24.6175 68.4783 21.8711 68.5908 19.1436C68.647 16.0563 70.3711 13.0826 72.976 11.4726ZM76.8553 13.897C75.7122 14.0864 74.6439 14.7304 73.9131 15.6206C72.1515 17.742 72.1515 21.1324 73.9318 23.2158C74.9438 24.447 76.5742 25.1289 78.1484 24.9584C79.6289 24.8069 80.997 23.8598 81.7279 22.5529C82.9647 20.3369 82.7586 17.3253 81.0907 15.3933C80.06 14.2001 78.4108 13.6129 76.8553 13.897Z" fill="#3873FF"/>
<path d="M97.7295 12.4386C99.9784 10.3172 103.445 9.59745 106.331 10.715C109.068 11.7567 110.81 14.3895 111.691 17.098C107.624 18.8027 103.577 20.4884 99.5099 22.193C100.072 23.2727 100.934 24.2576 102.096 24.6553C103.726 25.2425 105.675 25.0342 107.044 23.9356C107.587 23.5189 108.018 22.9696 108.43 22.4393C109.461 23.1401 110.492 23.8219 111.522 24.5228C110.061 26.7388 107.606 28.292 104.963 28.5382C102.04 28.8981 98.9289 27.7616 97.0361 25.4508C93.9252 21.8142 94.225 15.7153 97.7295 12.4386ZM99.7347 15.9426C99.0976 16.8707 98.8352 18.0071 98.8539 19.1246C101.571 17.9882 104.289 16.8518 107.006 15.6964C106.556 14.6357 105.469 13.9917 104.364 13.8212C102.583 13.4992 100.728 14.4652 99.7347 15.9426Z" fill="#3873FF"/>
</svg>
