<svg width="99" height="40" viewBox="0 0 99 40" fill="none" xmlns="http://www.w3.org/2000/svg">
<path d="M19.2501 36.5046V39.22H0V36.5046H19.2501ZM49.3333 36.5046C47.4023 38.2574 44.873 39.2269 42.25 39.2198L22 39.1931V36.5046H49.3333ZM77.9559 36.5046L76.9957 39.2198L76.044 36.5046H77.9559ZM68.7501 36.5046V39.22H55.0001V36.5046H68.7501ZM99 36.5046V39.22H85.25V36.5046H99ZM52.4482 31.3214C52.2122 32.2738 51.8396 33.1881 51.3417 34.0365H22V31.3214H52.4482ZM79.7988 31.3214L78.8338 34.0367H75.1663L74.2011 31.3214H79.7988ZM68.7501 31.3214V34.0365H55.0001V31.3214H68.7501ZM99 31.3214V34.0365H85.25V31.3214H99ZM19.2501 31.3214V34.0365H0V31.3214H19.2501ZM13.7498 26.1376V28.8529H5.49991V26.1376H13.7498ZM35.7498 26.1376V28.8529H27.4998V26.1376H35.7498ZM52.382 26.1376C52.6257 27.0226 52.7494 27.9357 52.7498 28.8529H43.5001V26.1376H52.382ZM81.6419 26.1376L80.6765 28.8529H73.3232L72.3576 26.1376H81.6419ZM68.7499 26.1376V28.8529H60.4998V26.1376H68.7499ZM93.4999 26.1376V28.8529H85.2498V26.1376H93.4999ZM13.7498 20.9541V23.6693H5.49991V20.9541H13.7498ZM68.7499 20.9541V23.6693H60.4998V20.9541H68.7499ZM93.4999 20.9541V23.6693H85.2498V20.9541H93.4999ZM49.0446 20.9541C49.9605 21.7233 50.7363 22.6416 51.3385 23.6691H27.5V20.9539L49.0446 20.9541ZM83.485 20.9541L82.5198 23.6693H71.4799L70.5147 20.9539L83.485 20.9541ZM76.2267 15.7707L76.9998 17.9654L77.7726 15.7707H93.4997V18.4858H85.2502V15.9912L84.3627 18.486H69.6372L68.7499 15.9908V18.486H60.5002V15.7707H76.2267ZM27.4998 15.7707H51.3388C50.7366 16.7983 49.9607 17.7166 49.0448 18.4858H27.5L27.4998 15.7707ZM13.7498 15.7707V18.4858H5.49991V15.7705L13.7498 15.7707ZM13.7498 10.5871V13.3022H5.49991V10.5871H13.7498ZM35.7498 10.5871V13.3022H27.4998V10.5871H35.7498ZM52.75 10.5871C52.7495 11.5042 52.6258 12.4172 52.382 13.3022H43.5001V10.5871H52.75ZM74.401 10.5871L75.3574 13.3022H60.5002V10.5871H74.401ZM93.4997 10.5871V13.3022H78.6423L79.5985 10.5871H93.4997ZM19.2497 5.40342V8.11876H0V5.40323L19.2497 5.40342ZM51.3416 5.40342C51.8394 6.25185 52.212 7.16613 52.448 8.11857H21.9997V5.40342H51.3416ZM98.9998 5.40342V8.11857H80.4679L81.4242 5.40342H98.9998ZM72.5753 5.40342L73.5317 8.11857H54.9999V5.40342H72.5753ZM19.2503 0.220171V2.93512H0V0.21998L19.2503 0.220171ZM42.25 0.21998C44.8723 0.216475 47.4003 1.1855 49.3333 2.93512H22V0.21998H42.25ZM99 0.21998V2.93532H82.2938L83.2501 0.220171L99 0.21998ZM70.7502 0.21998L71.7064 2.93532H55.0001V0.220171L70.7502 0.21998Z" fill="black"/>
</svg>
