<svg width="281" height="52" viewBox="0 0 281 52" fill="none" xmlns="http://www.w3.org/2000/svg">
<path d="M85.36 21.72C86.0533 21.72 86.7733 21.8667 87.52 22.16C88.2667 22.4533 88.9867 22.84 89.68 23.32H89.64C90.3333 23.8 90.8667 24.4533 91.24 25.28C91.6133 26.1067 91.8 27.0533 91.8 28.12V33.6C91.8 35.76 91.08 37.3733 89.64 38.44C88.9467 38.9467 88.2267 39.3467 87.48 39.64C86.76 39.9067 86.0533 40.04 85.36 40.04H76.64C75.9467 40.04 75.2267 39.9067 74.48 39.64C73.76 39.3467 73.0533 38.9467 72.36 38.44C70.92 37.3733 70.2 35.76 70.2 33.6V30.96C70.2 29.7067 70.9867 29.08 72.56 29.08C74.16 29.08 74.96 29.7067 74.96 30.96V33.28C74.96 33.9733 75.16 34.6 75.56 35.16C75.96 35.72 76.6533 36 77.64 36H84.36C85.3467 36 86.04 35.72 86.44 35.16C86.84 34.6 87.04 33.9733 87.04 33.28V28.44C87.04 27.7733 86.84 27.16 86.44 26.6C86.04 26.0133 85.3467 25.72 84.36 25.72H76.64C75.2533 25.72 73.8267 25.2133 72.36 24.2C70.92 23.08 70.2 21.4667 70.2 19.36V14.6C70.2 13.5333 70.3867 12.6 70.76 11.8C71.1333 10.9733 71.6667 10.3067 72.36 9.8H72.32C73.0133 9.34667 73.7333 8.97333 74.48 8.68C75.2267 8.38667 75.9467 8.24 76.64 8.24H85.36C86.0533 8.24 86.7733 8.38667 87.52 8.68C88.2667 8.97333 88.9867 9.34667 89.68 9.8H89.64C90.3333 10.3067 90.8667 10.9733 91.24 11.8C91.6133 12.6 91.8 13.5333 91.8 14.6V16.96C91.8 18.2133 91 18.84 89.4 18.84C87.8267 18.84 87.04 18.2133 87.04 16.96V14.96C87.04 14.2933 86.84 13.68 86.44 13.12C86.04 12.56 85.3467 12.28 84.36 12.28H77.64C76.6533 12.28 75.96 12.56 75.56 13.12C75.16 13.68 74.96 14.2933 74.96 14.96V19.04C74.96 19.7333 75.16 20.36 75.56 20.92C75.96 21.4533 76.6533 21.72 77.64 21.72H85.36ZM102.131 33.6C102.131 34.24 102.331 34.84 102.731 35.4C103.157 35.96 103.864 36.24 104.851 36.24H109.851C110.837 36.24 111.531 36 111.931 35.52C112.357 35.0133 112.571 34.44 112.571 33.8V33.36C112.571 32.1067 113.304 31.48 114.771 31.48C116.237 31.48 116.971 32.1067 116.971 33.36V33.84C116.971 34.96 116.784 35.88 116.411 36.6C116.064 37.32 115.531 37.9467 114.811 38.48C113.397 39.4933 111.984 40 110.571 40H103.851C102.437 40 101.064 39.4933 99.7306 38.48C99.0906 37.9467 98.5973 37.28 98.2506 36.48C97.904 35.6533 97.7306 34.7067 97.7306 33.64V22.24C97.7306 20.08 98.3973 18.48 99.7306 17.44C100.397 16.96 101.077 16.5867 101.771 16.32C102.491 16.0267 103.184 15.88 103.851 15.88H110.571C111.211 15.88 111.917 16.0133 112.691 16.28C113.464 16.52 114.184 16.8533 114.851 17.28C115.491 17.7333 115.997 18.36 116.371 19.16C116.771 19.96 116.971 20.9067 116.971 22V27.4C116.971 28.0133 116.784 28.56 116.411 29.04C116.064 29.52 115.411 29.76 114.451 29.76H105.811C104.851 29.76 104.344 29.1333 104.291 27.88C104.291 26.6267 104.797 26 105.811 26H112.611L112.571 22.28C112.571 21.6133 112.357 21.0133 111.931 20.48C111.531 19.92 110.837 19.64 109.851 19.64H104.851C103.864 19.64 103.157 19.92 102.731 20.48C102.331 21.0133 102.131 21.6133 102.131 22.28V33.6ZM141.307 33.64C141.307 35.8267 140.587 37.44 139.147 38.48C137.733 39.4933 136.32 40 134.907 40H128.187C126.773 40 125.4 39.4933 124.067 38.48C123.427 37.9467 122.933 37.28 122.587 36.48C122.24 35.6533 122.067 34.7067 122.067 33.64V22.24C122.067 20.08 122.733 18.48 124.067 17.44C124.733 16.96 125.413 16.5867 126.107 16.32C126.827 16.0267 127.52 15.88 128.187 15.88H134.907C135.547 15.88 136.253 16.0133 137.027 16.28C137.8 16.52 138.52 16.8533 139.187 17.28C139.827 17.7333 140.333 18.36 140.707 19.16C141.107 19.96 141.307 20.9067 141.307 22V24C141.307 25.28 140.573 25.92 139.107 25.92C137.64 25.92 136.907 25.28 136.907 24V22.28C136.907 21.6133 136.693 21.0133 136.267 20.48C135.867 19.92 135.173 19.64 134.187 19.64H129.187C128.2 19.64 127.493 19.92 127.067 20.48C126.667 21.0133 126.467 21.6133 126.467 22.28V33.6C126.467 34.24 126.667 34.84 127.067 35.4C127.493 35.96 128.2 36.24 129.187 36.24H134.187C135.173 36.24 135.867 35.96 136.267 35.4C136.693 34.84 136.907 34.24 136.907 33.6V31.76C136.907 30.5067 137.64 29.88 139.107 29.88C140.573 29.88 141.307 30.5067 141.307 31.76V33.64ZM165.564 33.64C165.564 34.7067 165.378 35.6533 165.004 36.48C164.631 37.3067 164.098 37.9733 163.404 38.48H163.444C162.778 38.9333 162.071 39.3067 161.324 39.6C160.578 39.8667 159.858 40 159.164 40H152.724C152.058 40 151.338 39.8667 150.564 39.6C149.818 39.3067 149.111 38.9333 148.444 38.48H148.484C147.791 37.9733 147.258 37.3067 146.884 36.48C146.511 35.6533 146.324 34.7067 146.324 33.64V17.6C146.324 16.32 147.058 15.68 148.524 15.68C149.991 15.68 150.724 16.32 150.724 17.6V33.32C150.724 34.0667 150.911 34.72 151.284 35.28C151.631 35.92 152.351 36.24 153.444 36.24H158.444C159.511 36.24 160.218 35.92 160.564 35.28L160.524 35.32C160.951 34.68 161.164 34.0133 161.164 33.32V17.6C161.164 16.32 161.898 15.68 163.364 15.68C164.831 15.68 165.564 16.32 165.564 17.6V33.64ZM174.902 38.32C174.902 39.6 174.169 40.24 172.702 40.24C171.182 40.24 170.422 39.6 170.422 38.32V21.76C170.422 19.5733 171.076 18.0533 172.382 17.2C173.689 16.3467 175.196 15.92 176.902 15.92H181.462C182.449 15.92 182.942 16.5467 182.942 17.8C182.996 19.0533 182.502 19.68 181.462 19.68H177.222C176.262 19.68 175.636 19.8667 175.342 20.24C175.049 20.6133 174.902 21.1333 174.902 21.8V38.32ZM190.724 33.6C190.724 34.24 190.924 34.84 191.324 35.4C191.751 35.96 192.458 36.24 193.444 36.24H198.444C199.431 36.24 200.124 36 200.524 35.52C200.951 35.0133 201.164 34.44 201.164 33.8V33.36C201.164 32.1067 201.898 31.48 203.364 31.48C204.831 31.48 205.564 32.1067 205.564 33.36V33.84C205.564 34.96 205.378 35.88 205.004 36.6C204.658 37.32 204.124 37.9467 203.404 38.48C201.991 39.4933 200.578 40 199.164 40H192.444C191.031 40 189.658 39.4933 188.324 38.48C187.684 37.9467 187.191 37.28 186.844 36.48C186.498 35.6533 186.324 34.7067 186.324 33.64V22.24C186.324 20.08 186.991 18.48 188.324 17.44C188.991 16.96 189.671 16.5867 190.364 16.32C191.084 16.0267 191.778 15.88 192.444 15.88H199.164C199.804 15.88 200.511 16.0133 201.284 16.28C202.058 16.52 202.778 16.8533 203.444 17.28C204.084 17.7333 204.591 18.36 204.964 19.16C205.364 19.96 205.564 20.9067 205.564 22V27.4C205.564 28.0133 205.378 28.56 205.004 29.04C204.658 29.52 204.004 29.76 203.044 29.76H194.404C193.444 29.76 192.938 29.1333 192.884 27.88C192.884 26.6267 193.391 26 194.404 26H201.204L201.164 22.28C201.164 21.6133 200.951 21.0133 200.524 20.48C200.124 19.92 199.431 19.64 198.444 19.64H193.444C192.458 19.64 191.751 19.92 191.324 20.48C190.924 21.0133 190.724 21.6133 190.724 22.28V33.6Z" fill="#252466"/>
<path d="M222.856 31.16C222.856 32.456 222.424 33.424 221.56 34.064C221.144 34.368 220.712 34.608 220.264 34.784C219.832 34.944 219.408 35.024 218.992 35.024H213.76C213.344 35.024 212.912 34.944 212.464 34.784C212.032 34.608 211.608 34.368 211.192 34.064C210.776 33.744 210.456 33.352 210.232 32.888C210.008 32.408 209.896 31.832 209.896 31.16V19.76C209.896 19.12 210.008 18.56 210.232 18.08C210.456 17.584 210.776 17.184 211.192 16.88H211.168C211.584 16.608 212.016 16.384 212.464 16.208C212.912 16.032 213.344 15.944 213.76 15.944H218.992C219.408 15.944 219.84 16.032 220.288 16.208C220.736 16.384 221.168 16.608 221.584 16.88H221.56C221.976 17.184 222.296 17.584 222.52 18.08C222.744 18.56 222.856 19.12 222.856 19.76V21.416C222.856 22.184 222.376 22.568 221.416 22.568C220.472 22.568 220 22.184 220 21.416V19.976C220 19.576 219.88 19.208 219.64 18.872C219.4 18.536 218.984 18.368 218.392 18.368H214.36C213.768 18.368 213.352 18.536 213.112 18.872C212.872 19.208 212.752 19.576 212.752 19.976V30.968C212.752 31.384 212.872 31.76 213.112 32.096C213.352 32.432 213.768 32.6 214.36 32.6H218.392C218.984 32.6 219.4 32.432 219.64 32.096C219.88 31.76 220 31.384 220 30.968V29.576C220 28.824 220.472 28.448 221.416 28.448C222.376 28.448 222.856 28.824 222.856 29.576V31.16ZM228.702 33.992C228.702 34.76 228.262 35.144 227.382 35.144C226.47 35.144 226.014 34.76 226.014 33.992V24.056C226.014 22.744 226.406 21.832 227.19 21.32C227.974 20.808 228.878 20.552 229.902 20.552H232.638C233.23 20.552 233.526 20.928 233.526 21.68C233.558 22.432 233.262 22.808 232.638 22.808H230.094C229.518 22.808 229.142 22.92 228.966 23.144C228.79 23.368 228.702 23.68 228.702 24.08V33.992ZM243.236 20.552C243.652 20.552 244.076 20.64 244.508 20.816C244.956 20.992 245.388 21.216 245.804 21.488H245.78C246.196 21.792 246.516 22.192 246.74 22.688C246.964 23.168 247.076 23.728 247.076 24.368V31.184C247.076 32.496 246.644 33.464 245.78 34.088C244.932 34.696 244.084 35 243.236 35H239.396C238.98 35 238.556 34.928 238.124 34.784C237.692 34.64 237.268 34.408 236.852 34.088C235.988 33.48 235.556 32.512 235.556 31.184V24.368C235.556 23.728 235.668 23.168 235.892 22.688C236.116 22.192 236.436 21.792 236.852 21.488H236.828C237.228 21.216 237.652 20.992 238.1 20.816C238.548 20.64 238.98 20.552 239.396 20.552H243.236ZM242.804 32.744C243.396 32.744 243.812 32.576 244.052 32.24C244.308 31.904 244.436 31.544 244.436 31.16V24.392C244.436 23.992 244.308 23.632 244.052 23.312C243.812 22.976 243.396 22.808 242.804 22.808H239.828C239.236 22.808 238.812 22.976 238.556 23.312C238.316 23.632 238.196 23.992 238.196 24.392V31.16C238.196 31.544 238.316 31.904 238.556 32.24C238.812 32.576 239.236 32.744 239.828 32.744H242.804ZM255.15 34.256L255.174 34.232C255.062 34.6 254.846 34.84 254.526 34.952C254.206 35.064 253.886 35.12 253.566 35.12C253.262 35.12 252.942 35.064 252.606 34.952C252.286 34.84 252.078 34.6 251.982 34.232L252.006 34.256L248.862 21.824C248.67 21.152 248.982 20.704 249.798 20.48C250.582 20.272 251.086 20.544 251.31 21.296V21.272L253.254 29.096H253.902L255.846 21.272C255.926 20.936 256.102 20.72 256.374 20.624C256.662 20.512 256.926 20.456 257.166 20.456C257.438 20.456 257.702 20.52 257.958 20.648C258.23 20.76 258.414 20.968 258.51 21.272C258.654 21.848 258.782 22.384 258.894 22.88C259.022 23.376 259.142 23.856 259.254 24.32C259.366 24.784 259.47 25.24 259.566 25.688C259.678 26.136 259.798 26.6 259.926 27.08L260.454 29.12H261.102C261.422 27.824 261.742 26.52 262.062 25.208C262.398 23.88 262.726 22.568 263.046 21.272L263.022 21.296C263.246 20.544 263.75 20.272 264.534 20.48C265.35 20.672 265.662 21.12 265.47 21.824L262.35 34.256L262.374 34.232C262.278 34.6 262.062 34.84 261.726 34.952C261.406 35.064 261.086 35.12 260.766 35.12C260.462 35.12 260.15 35.064 259.83 34.952C259.51 34.84 259.294 34.6 259.182 34.232L259.206 34.256L257.502 27.512H256.854L255.15 34.256ZM276.241 22.808H271.609C270.953 22.808 270.521 23 270.313 23.384C270.089 23.72 269.977 24.112 269.977 24.56V31.472C269.977 31.888 270.105 32.208 270.361 32.432C270.617 32.64 271.041 32.744 271.633 32.744H274.105C274.681 32.744 274.969 33.12 274.969 33.872C274.969 34.192 274.897 34.464 274.753 34.688C274.625 34.896 274.409 35 274.105 35H271.201C270.193 35 269.297 34.744 268.513 34.232C267.729 33.752 267.337 32.84 267.337 31.496V24.344C267.337 23.688 267.441 23.12 267.649 22.64C267.857 22.16 268.185 21.768 268.633 21.464C269.481 20.856 270.329 20.552 271.177 20.552H276.241V16.952C276.241 16.184 276.681 15.8 277.561 15.8C278.441 15.8 278.881 16.184 278.881 16.952V33.992C278.881 34.76 278.441 35.144 277.561 35.144C277.225 35.144 276.921 35.088 276.649 34.976C276.377 34.848 276.241 34.576 276.241 34.16V22.808Z" fill="#252466"/>
<path d="M7.76619 9.36906L6.76947 9.41773L6.71083 10.4136C6.4614 14.6266 4.2209 18.5449 0.717071 20.8956L0 21.3765L0.288797 22.1902C4.83926 35.0121 17.6176 46.8782 22.9005 51.3847L23.6218 52L24.3431 51.3847C29.626 46.8782 42.4047 35.012 46.955 22.1905L47.2438 21.3767L46.5269 20.8957C43.0227 18.5449 40.7821 14.6266 40.5328 10.4136L40.474 9.41773L39.4776 9.36906C38.364 9.31485 37.1126 9.18064 35.7792 8.91708C35.764 9.59686 35.6886 10.3539 35.5584 11.1365C36.557 11.3252 37.5135 11.4515 38.4031 11.5257C38.924 15.7586 41.1671 19.6544 44.5693 22.2289C42.8127 26.7518 37.6302 36.9314 23.6218 49.0732C9.6135 36.9318 4.43109 26.7517 2.6746 22.2288C6.07653 19.6544 8.31966 15.7585 8.84055 11.5257C9.72898 11.4515 10.6842 11.3255 11.6815 11.1371C11.5538 10.3582 11.4821 9.60365 11.467 8.91652C10.1326 9.18037 8.8802 9.31471 7.76619 9.36906Z" fill="url(#paint0_linear_199_4882)"/>
<path d="M30.6318 21.1582L30.0235 21.7013C30.4216 22.534 30.8483 23.3392 31.3129 24.0989C31.1538 24.345 30.9906 24.5929 30.8242 24.8415C30.6595 25.0873 30.479 25.3514 30.2872 25.627C30.2797 25.627 30.2727 25.6248 30.2649 25.6248C29.3107 25.6248 28.5371 26.3984 28.5371 27.3529C28.5371 28.3072 29.3107 29.0808 30.2649 29.0808C31.2193 29.0808 31.993 28.3072 31.993 27.3529C31.993 27.099 31.9353 26.86 31.837 26.6429C32.0231 26.3746 32.2004 26.1155 32.3633 25.8722C32.7674 25.2688 33.1515 24.6716 33.5111 24.0871C32.7866 23.028 32.1381 21.8731 31.5648 20.6376C31.2963 21.0111 30.8877 21.1248 30.6318 21.1582Z" fill="url(#paint1_linear_199_4882)"/>
<path d="M13.7327 24.087C14.0924 24.6716 14.4762 25.2689 14.8802 25.8721C16.5393 28.3493 19.3582 32.1306 23.6219 36.5676C24.6314 35.5173 25.5582 34.5046 26.4091 33.5364C26.5085 33.5543 26.6099 33.5674 26.7145 33.5674C27.6688 33.5674 28.4425 32.7937 28.4425 31.8393C28.4425 30.885 27.6688 30.1114 26.7145 30.1114C25.7601 30.1114 24.9865 30.885 24.9865 31.8393C24.9865 31.9912 25.0124 32.1357 25.049 32.2759C24.596 32.7926 24.1224 33.3214 23.6219 33.8646C20.1547 30.1016 17.8173 26.9285 16.4195 24.8415C16.2535 24.5936 16.0903 24.3457 15.9306 24.0989C16.3955 23.339 16.8222 22.5336 17.2204 21.7009L16.6111 21.157C16.3379 21.1177 15.9416 20.9978 15.6798 20.6355C15.1062 21.8715 14.4575 23.0272 13.7327 24.087Z" fill="url(#paint2_linear_199_4882)"/>
<path d="M33.2903 17.0645L33.2284 17.1445L33.153 17.2118C32.8635 17.471 32.5552 17.6938 32.2325 17.8825L32.4322 17.9051C33.1039 19.7329 34.1489 21.9515 35.7294 23.9869C35.1833 24.9275 34.5713 25.9042 33.9027 26.9029C31.9876 29.7626 28.6918 34.1364 23.6219 39.2146C21.5893 37.1787 19.8478 35.2599 18.3611 33.5032C18.4115 33.3413 18.4462 33.1726 18.4462 32.9938C18.4462 32.0396 17.6725 31.2661 16.7182 31.2661C15.7637 31.2661 14.9901 32.0396 14.9901 32.9938C14.9901 33.9483 15.7637 34.7219 16.7182 34.7219C16.7961 34.7219 16.8704 34.7089 16.9456 34.699C18.7783 36.8643 20.9847 39.2629 23.6219 41.8136C29.5057 36.1228 33.2742 31.1703 35.4416 27.9337C36.5627 26.2597 37.3876 24.8548 37.9706 23.7795C35.7687 21.3475 34.5117 18.4063 33.8276 16.2648C33.6586 16.5511 33.4799 16.82 33.2903 17.0645Z" fill="url(#paint3_linear_199_4882)"/>
<path d="M9.27307 23.7794C9.85635 24.8551 10.6813 26.2602 11.802 27.9338C11.8786 28.0483 11.9603 28.1681 12.0418 28.2876C11.9459 28.5025 11.8901 28.7392 11.8901 28.9896C11.8901 29.944 12.6638 30.7177 13.6181 30.7177C14.5725 30.7177 15.3461 29.944 15.3461 28.9896C15.3461 28.0353 14.5725 27.2617 13.6181 27.2617C13.6072 27.2617 13.5971 27.2646 13.5863 27.2648C13.5026 27.1421 13.4194 27.02 13.341 26.903C12.6722 25.9043 12.0607 24.9277 11.5143 23.9869C13.0948 21.951 14.1399 19.7324 14.8115 17.9052L15.0116 17.8826C14.689 17.6939 14.3806 17.4711 14.0911 17.2118L14.0156 17.1446L13.9539 17.0646C13.7635 16.8192 13.5849 16.5499 13.4161 16.2653C12.732 18.4064 11.4748 21.3473 9.27307 23.7794Z" fill="url(#paint4_linear_199_4882)"/>
<path d="M34.6884 14.4312L35.2418 14.4936C35.791 16.6096 37.1798 20.6563 40.2378 23.4329C39.6689 24.5823 38.6335 26.4967 36.9809 28.9646C35.8113 30.7111 34.2082 32.9096 32.1115 35.421C32.0214 35.4064 31.9307 35.3934 31.8367 35.3934C30.8822 35.3934 30.1085 36.167 30.1085 37.1213C30.1085 38.0756 30.8822 38.8492 31.8367 38.8492C32.7912 38.8492 33.5647 38.0756 33.5647 37.1213C33.5647 36.9601 33.5354 36.8073 33.4941 36.6592C40.339 28.4683 42.5244 22.8893 42.5244 22.8893C37.8717 19.6821 36.7642 12.8012 36.7642 12.8012L35.2481 12.6301C35.0938 13.2424 34.9066 13.8503 34.6884 14.4312Z" fill="url(#paint5_linear_199_4882)"/>
<path d="M10.4796 12.8012C10.4796 12.8012 9.37214 19.6821 4.71936 22.8892C4.71936 22.8892 8.84862 33.4666 23.6219 46.8907C24.8685 45.7582 26.0338 44.6476 27.1309 43.5609C27.2887 43.6082 27.4527 43.6415 27.6258 43.6415C28.5803 43.6415 29.3539 42.8677 29.3539 41.9135C29.3539 40.9591 28.5803 40.1856 27.6258 40.1856C26.6716 40.1856 25.8978 40.9591 25.8978 41.9135C25.8978 41.9944 25.9109 42.0719 25.9216 42.1498C25.1892 42.8782 24.4255 43.6182 23.6219 44.3706C16.9195 38.0943 12.6795 32.5732 10.2628 28.9645C8.61043 26.4972 7.57544 24.5831 7.00603 23.4329C10.0634 20.6561 11.4528 16.6096 12.0017 14.4936L12.5499 14.4319C12.3311 13.8508 12.1441 13.2433 11.9905 12.6306L10.4796 12.8012Z" fill="url(#paint6_linear_199_4882)"/>
<path d="M6.7533 4.41612V6.34619H9.49015V6.06267C13.8665 3.88261 18.717 2.73741 23.6147 2.73741C28.5126 2.73741 33.3631 3.88261 37.7394 6.06267V6.34619H40.4763V4.41612C35.2413 1.47199 29.428 0 23.6147 0C17.8015 0 11.9882 1.47199 6.7533 4.41612Z" fill="url(#paint7_linear_199_4882)"/>
<path d="M20.1862 6.07116C18.8419 6.07116 17.7522 7.16105 17.7522 8.50535V11.995C17.7522 12.9141 18.1109 13.661 18.8293 14.2353L21.5995 16.5039V13.0779L20.5309 12.2102V8.54846H26.3254V12.6842H29.1043V8.50535C29.1043 7.16105 28.0145 6.07116 26.6702 6.07116H20.1862Z" fill="url(#paint8_linear_199_4882)"/>
<path d="M25.0391 19.3209L26.3255 20.3742V24.5532H20.531V19.8358H17.709V24.5965C17.709 26.2193 18.5203 27.0305 20.1433 27.0305H26.7131C28.336 27.0305 29.1473 26.2193 29.1473 24.5965V20.6329C29.1473 19.6708 28.7953 18.9095 28.092 18.3496L25.0391 15.8709V19.3209Z" fill="url(#paint9_linear_199_4882)"/>
<path d="M22.3001 13.9481C21.7775 14.5014 21.827 15.3279 22.4329 15.8326C22.5927 15.9658 22.6192 16.0823 22.57 16.2739C22.3772 17.0231 22.2036 17.7773 22.0174 18.5284C21.9772 18.6909 21.9705 18.8046 22.1898 18.8035C22.943 18.7999 23.6961 18.8021 24.4983 18.8021C24.4711 18.6498 24.4579 18.5442 24.4328 18.4415C24.2599 17.7313 24.0883 17.0209 23.9078 16.3127C23.8555 16.1076 23.8745 15.9678 24.0584 15.8129C24.6581 15.3074 24.6874 14.4696 24.1526 13.928C23.9006 13.6728 23.5682 13.5455 23.2362 13.5455C22.8947 13.5455 22.5535 13.68 22.3001 13.9481Z" fill="url(#paint10_linear_199_4882)"/>
<defs>
<linearGradient id="paint0_linear_199_4882" x1="0.436278" y1="-0.60789" x2="45.0831" y2="44.0389" gradientUnits="userSpaceOnUse">
<stop stop-color="#4370B7"/>
<stop offset="0.866439" stop-color="#273275"/>
<stop offset="1" stop-color="#273275"/>
</linearGradient>
<linearGradient id="paint1_linear_199_4882" x1="2.76314" y1="-2.93477" x2="47.41" y2="41.7121" gradientUnits="userSpaceOnUse">
<stop stop-color="#273275"/>
<stop offset="0.133562" stop-color="#273275"/>
<stop offset="1" stop-color="#4370B7"/>
</linearGradient>
<linearGradient id="paint2_linear_199_4882" x1="-3.99244" y1="3.82093" x2="40.6543" y2="48.4677" gradientUnits="userSpaceOnUse">
<stop stop-color="#273275"/>
<stop offset="0.133562" stop-color="#273275"/>
<stop offset="1" stop-color="#4370B7"/>
</linearGradient>
<linearGradient id="paint3_linear_199_4882" x1="-0.37497" y1="0.203364" x2="44.2717" y2="44.85" gradientUnits="userSpaceOnUse">
<stop stop-color="#4370B7"/>
<stop offset="0.866439" stop-color="#273275"/>
<stop offset="1" stop-color="#273275"/>
</linearGradient>
<linearGradient id="paint4_linear_199_4882" x1="-5.25198" y1="5.08029" x2="39.3948" y2="49.727" gradientUnits="userSpaceOnUse">
<stop stop-color="#4370B7"/>
<stop offset="0.866439" stop-color="#273275"/>
<stop offset="1" stop-color="#273275"/>
</linearGradient>
<linearGradient id="paint5_linear_199_4882" x1="3.97275" y1="-4.14453" x2="48.6195" y2="40.5022" gradientUnits="userSpaceOnUse">
<stop stop-color="#273275"/>
<stop offset="0.133562" stop-color="#273275"/>
<stop offset="1" stop-color="#4370B7"/>
</linearGradient>
<linearGradient id="paint6_linear_199_4882" x1="-6.10945" y1="5.93783" x2="38.5372" y2="50.5844" gradientUnits="userSpaceOnUse">
<stop stop-color="#273275"/>
<stop offset="0.133562" stop-color="#273275"/>
<stop offset="1" stop-color="#4370B7"/>
</linearGradient>
<linearGradient id="paint7_linear_199_4882" x1="6.75334" y1="3.17308" x2="40.4763" y2="3.17308" gradientUnits="userSpaceOnUse">
<stop stop-color="#4370B7"/>
<stop offset="0.866439" stop-color="#273275"/>
<stop offset="1" stop-color="#273275"/>
</linearGradient>
<linearGradient id="paint8_linear_199_4882" x1="17.7522" y1="11.2875" x2="29.1043" y2="11.2875" gradientUnits="userSpaceOnUse">
<stop stop-color="#273275"/>
<stop offset="0.133562" stop-color="#273275"/>
<stop offset="1" stop-color="#4370B7"/>
</linearGradient>
<linearGradient id="paint9_linear_199_4882" x1="17.7091" y1="21.4507" x2="29.1473" y2="21.4507" gradientUnits="userSpaceOnUse">
<stop stop-color="#273275"/>
<stop offset="0.133562" stop-color="#273275"/>
<stop offset="1" stop-color="#4370B7"/>
</linearGradient>
<linearGradient id="paint10_linear_199_4882" x1="21.9406" y1="16.1745" x2="24.5322" y2="16.1745" gradientUnits="userSpaceOnUse">
<stop stop-color="#273275"/>
<stop offset="0.133562" stop-color="#273275"/>
<stop offset="1" stop-color="#4370B7"/>
</linearGradient>
</defs>
</svg>
