<svg width="117" height="26" viewBox="0 0 117 26" fill="none" xmlns="http://www.w3.org/2000/svg">
<path d="M117 11.5813V9.51249H114.445V6.29622L114.359 6.32285L111.959 7.06117L111.911 7.07562V9.5126H108.123V8.15499C108.123 7.52285 108.264 7.03909 108.541 6.71648C108.816 6.39773 109.21 6.23568 109.712 6.23568C110.072 6.23568 110.446 6.32114 110.822 6.48968L110.916 6.53201V4.35324L110.872 4.33685C110.521 4.21008 110.044 4.14624 109.453 4.14624C108.708 4.14624 108.03 4.30931 107.44 4.6325C106.849 4.95614 106.384 5.41816 106.058 6.00558C105.734 6.59232 105.569 7.26999 105.569 8.01991V9.51249H103.79V11.5813H105.569V20.297H108.123V11.5813H111.911V17.12C111.911 19.4011 112.982 20.557 115.092 20.557C115.439 20.557 115.804 20.5162 116.177 20.4362C116.556 20.354 116.814 20.2719 116.966 20.1843L117 20.1643V18.0763L116.896 18.1454C116.757 18.2383 116.585 18.3142 116.383 18.3706C116.179 18.4281 116.009 18.4569 115.878 18.4569C115.384 18.4569 115.018 18.3229 114.791 18.0586C114.561 17.7918 114.445 17.3254 114.445 16.6729V11.5813H117ZM98.0862 18.4572C97.1592 18.4572 96.4282 18.1481 95.9132 17.5393C95.3949 16.9274 95.1323 16.0551 95.1323 14.9467C95.1323 13.8031 95.3949 12.9081 95.9134 12.2854C96.4288 11.6668 97.1527 11.3528 98.0654 11.3528C98.951 11.3528 99.656 11.6527 100.161 12.2445C100.669 12.8395 100.926 13.7273 100.926 14.8842C100.926 16.0553 100.684 16.9549 100.206 17.5566C99.732 18.1538 99.0187 18.4572 98.0862 18.4572ZM98.1997 9.25269C96.4311 9.25269 95.0263 9.77377 94.0246 10.8015C93.0237 11.8293 92.5162 13.2517 92.5162 15.0294C92.5162 16.7179 93.0116 18.0761 93.9888 19.0656C94.966 20.0554 96.2958 20.5568 97.9411 20.5568C99.6556 20.5568 101.032 20.0284 102.034 18.9865C103.035 17.9457 103.542 16.5368 103.542 14.8006C103.542 13.0856 103.066 11.7173 102.127 10.7344C101.187 9.75112 99.8659 9.25269 98.1997 9.25269ZM88.3981 9.25269C87.195 9.25269 86.1998 9.5621 85.4396 10.1722C84.6747 10.7859 84.2867 11.5908 84.2867 12.5648C84.2867 13.0711 84.3705 13.5208 84.5353 13.9022C84.7011 14.2849 84.9576 14.6219 85.2985 14.9047C85.6368 15.1852 86.159 15.479 86.851 15.778C87.4328 16.0186 87.8666 16.2222 88.1422 16.3827C88.4116 16.5399 88.6027 16.698 88.7107 16.852C88.8156 17.0027 88.8688 17.2089 88.8688 17.4633C88.8688 18.1879 88.3292 18.5404 87.2188 18.5404C86.8069 18.5404 86.3371 18.4539 85.8224 18.2834C85.3115 18.1156 84.8292 17.8697 84.3925 17.5545L84.2865 17.478V19.9505L84.3254 19.9687C84.6868 20.1364 85.1425 20.2779 85.6795 20.3892C86.2155 20.5006 86.7025 20.5572 87.1256 20.5572C88.4311 20.5572 89.4825 20.2463 90.2496 19.6326C91.0216 19.0147 91.4129 18.1908 91.4129 17.1831C91.4129 16.4562 91.2023 15.8328 90.7871 15.3301C90.3748 14.8314 89.6592 14.3736 88.661 13.9689C87.8658 13.648 87.3564 13.3816 87.1462 13.1771C86.9436 12.9796 86.8407 12.7002 86.8407 12.3464C86.8407 12.0328 86.9677 11.7815 87.2284 11.578C87.4911 11.3735 87.8568 11.2695 88.3154 11.2695C88.7409 11.2695 89.1763 11.3371 89.6093 11.4696C90.042 11.602 90.4221 11.7794 90.7393 11.9965L90.8437 12.0682V9.72278L90.8036 9.70549C90.5109 9.57928 90.125 9.47129 89.6562 9.38367C89.1896 9.29661 88.7663 9.25269 88.3981 9.25269ZM77.6282 18.4572C76.7014 18.4572 75.9702 18.1481 75.4552 17.5393C74.9369 16.9274 74.6748 16.0553 74.6748 14.9467C74.6748 13.8031 74.9372 12.9081 75.4558 12.2854C75.9708 11.6668 76.6946 11.3528 77.6077 11.3528C78.493 11.3528 79.198 11.6527 79.7031 12.2445C80.2107 12.8395 80.4682 13.7273 80.4682 14.8842C80.4682 16.0553 80.2259 16.9549 79.7483 17.5566C79.274 18.1538 78.561 18.4572 77.6282 18.4572ZM77.7421 9.25269C75.9729 9.25269 74.568 9.77377 73.5669 10.8015C72.566 11.8293 72.0581 13.2517 72.0581 15.0294C72.0581 16.7186 72.5539 18.0761 73.5311 19.0656C74.5083 20.0554 75.838 20.5568 77.4833 20.5568C79.1976 20.5568 80.5747 20.0284 81.5759 18.9865C82.5768 17.9457 83.0842 16.5368 83.0842 14.8006C83.0842 13.0856 82.6081 11.7173 81.6688 10.7344C80.7291 9.75112 79.4078 9.25269 77.7421 9.25269ZM68.181 11.3801V9.51249H65.658V20.2968H68.181V14.7802C68.181 13.8421 68.3926 13.0715 68.81 12.4894C69.2221 11.9143 69.7712 11.6229 70.4417 11.6229C70.669 11.6229 70.9241 11.6605 71.2003 11.7351C71.4738 11.8092 71.6719 11.8896 71.7887 11.9743L71.8947 12.0515V9.49405L71.8538 9.47641C71.6189 9.37604 71.2865 9.3254 70.8659 9.3254C70.2319 9.3254 69.6645 9.53024 69.1785 9.93354C68.7519 10.288 68.4436 10.774 68.2079 11.3801H68.181ZM61.1397 9.25269C59.9822 9.25269 58.9498 9.50224 58.0716 9.99419C57.1917 10.4873 56.5111 11.1912 56.0481 12.0864C55.5871 12.9793 55.3531 14.0224 55.3531 15.1856C55.3531 16.2046 55.58 17.1397 56.0285 17.9638C56.4773 18.7893 57.1124 19.4351 57.9165 19.883C58.7194 20.3303 59.6473 20.5571 60.6748 20.5571C61.8738 20.5571 62.8975 20.3161 63.7183 19.8408L63.7515 19.8216V17.4976L63.6454 17.5754C63.2736 17.8477 62.8582 18.0651 62.4111 18.2217C61.9652 18.3781 61.5586 18.4572 61.2021 18.4572C60.2121 18.4572 59.4174 18.1457 58.8405 17.5317C58.2624 16.9168 57.9692 16.0535 57.9692 14.967C57.9692 13.8738 58.2749 12.9882 58.8774 12.3348C59.478 11.6833 60.2743 11.3528 61.2438 11.3528C62.073 11.3528 62.8811 11.6352 63.6457 12.1928L63.7515 12.27V9.82122L63.7173 9.80187C63.4296 9.63994 63.0372 9.50623 62.5501 9.40483C62.065 9.30367 61.5905 9.25269 61.1397 9.25269ZM53.6154 9.5126H51.0924V20.2968H53.6154V9.5126ZM52.3797 4.91847C51.9644 4.91847 51.6023 5.06061 51.3047 5.34225C51.0059 5.6247 50.8544 5.98032 50.8544 6.4C50.8544 6.81309 51.0041 7.16222 51.3001 7.43716C51.5941 7.7113 51.9574 7.85024 52.3798 7.85024C52.8021 7.85024 53.1668 7.7113 53.4643 7.43761C53.7638 7.16222 53.9157 6.8132 53.9157 6.4C53.9157 5.995 53.7679 5.64302 53.4766 5.35363C53.1857 5.06482 52.8165 4.91847 52.3797 4.91847ZM46.0846 8.71693V20.2968H48.6595V5.2486H45.0957L40.566 16.4259L36.1702 5.2486H32.4614V20.2966H34.8811V8.71579H34.9642L39.606 20.2968H41.4321L46.0015 8.71693H46.0846Z" fill="#706D6E"/>
<path d="M11.869 12.1537H0V0.219971H11.869V12.1537Z" fill="#F1511B"/>
<path d="M24.9738 12.1537H13.105V0.219971H24.9738V12.1537Z" fill="#80CC28"/>
<path d="M11.8687 25.3344H0V13.4008H11.8687V25.3344Z" fill="#00ADEF"/>
<path d="M24.9738 25.3344H13.105V13.4008H24.9738V25.3344Z" fill="#FBBC09"/>
</svg>
