<svg width="117" height="30" viewBox="0 0 117 30" fill="none" xmlns="http://www.w3.org/2000/svg">
<path d="M21.4126 2.43649C20.0384 0.885176 17.5544 0.220091 14.3768 0.220091H5.15424C4.83968 0.219925 4.53538 0.330965 4.29611 0.533226C4.05684 0.735487 3.89831 1.01569 3.84904 1.32341L0.0106152 25.4476C-0.00718306 25.5596 -0.000274947 25.674 0.030864 25.783C0.0620029 25.892 0.116632 25.993 0.190988 26.0791C0.265344 26.1652 0.357659 26.2343 0.461573 26.2817C0.565487 26.329 0.67853 26.3535 0.792913 26.3534H6.48653L7.9165 17.3699L7.87217 17.6512C7.92049 17.3441 8.07797 17.0642 8.31621 16.8619C8.55446 16.6596 8.85782 16.5483 9.17162 16.5479H11.8772C17.1924 16.5479 21.3543 14.4096 22.57 8.22383C22.6061 8.0409 22.6373 7.86283 22.6644 7.68884C23.0256 5.40252 22.6619 3.84633 21.4134 2.4373" fill="#003087"/>
<path d="M91.1153 13.916C90.7673 16.1795 89.0221 16.1795 87.3343 16.1795H86.3739L87.0479 11.9532C87.0889 11.6979 87.3105 11.5101 87.5716 11.5101H88.0124C89.1616 11.5101 90.2468 11.5101 90.8067 12.1581C91.1408 12.546 91.2417 13.1216 91.1153 13.916ZM90.3806 8.00991H84.0139C83.803 8.01002 83.5991 8.08456 83.4387 8.22016C83.2783 8.35576 83.172 8.54354 83.1388 8.74979L80.5662 24.9191C80.5544 24.994 80.559 25.0706 80.5799 25.1437C80.6008 25.2167 80.6373 25.2843 80.6871 25.342C80.7368 25.3997 80.7986 25.4461 80.8681 25.4779C80.9376 25.5097 81.0133 25.5263 81.0899 25.5264H84.357C84.6616 25.5264 84.921 25.3069 84.9686 25.0093L85.6992 20.4237C85.7665 19.9984 86.1375 19.6838 86.5726 19.6838H88.587C92.7817 19.6838 95.2016 17.6747 95.8337 13.6899C96.1186 11.9484 95.8452 10.5792 95.0219 9.62058C94.1164 8.56686 92.5116 8.0091 90.3814 8.0091" fill="#009CDE"/>
<path d="M45.7041 13.9159C45.356 16.1794 43.6108 16.1794 41.9223 16.1794H40.9619L41.6358 11.9532C41.6768 11.6979 41.8985 11.5101 42.1595 11.5101H42.6003C43.7496 11.5101 44.8348 11.5101 45.3946 12.1581C45.7295 12.5459 45.8305 13.1215 45.7041 13.9159ZM44.9694 8.00984H38.6026C38.1676 8.00984 37.7965 8.32368 37.7284 8.74973L35.155 24.919C35.143 24.994 35.1475 25.0707 35.1684 25.1437C35.1892 25.2168 35.2257 25.2845 35.2755 25.3422C35.3253 25.4 35.3871 25.4463 35.4567 25.4781C35.5263 25.5099 35.602 25.5264 35.6787 25.5264H38.7192C39.1543 25.5264 39.5245 25.2125 39.5926 24.7865L40.2879 20.4244C40.3552 19.9984 40.7263 19.6845 41.1613 19.6845H43.1758C47.3705 19.6845 49.7904 17.6747 50.4225 13.6899C50.7073 11.9483 50.434 10.5791 49.6106 9.62051C48.7052 8.56679 47.1004 8.00903 44.9702 8.00903M59.751 19.7211C59.4554 21.4464 58.0739 22.605 56.3098 22.605C55.4257 22.605 54.7173 22.3229 54.2626 21.7895C53.8111 21.2611 53.642 20.5074 53.7848 19.6691C54.059 17.9584 55.4643 16.7632 57.2013 16.7632C58.0673 16.7632 58.7692 17.0478 59.2338 17.586C59.7009 18.1283 59.8848 18.8861 59.751 19.7211ZM63.9998 13.8427H60.9511C60.8243 13.8426 60.7017 13.8873 60.6054 13.9689C60.509 14.0504 60.4453 14.1634 60.4257 14.2875L60.2927 15.1314L60.0793 14.8257C59.4193 13.8769 57.9475 13.559 56.4781 13.559C53.11 13.559 50.2329 16.0876 49.673 19.6325C49.3816 21.4025 49.7953 23.0929 50.8083 24.2726C51.7383 25.3564 53.0657 25.8077 54.6475 25.8077C57.363 25.8077 58.8685 24.0807 58.8685 24.0807L58.7322 24.9198C58.7202 24.9949 58.7248 25.0716 58.7457 25.1447C58.7665 25.2179 58.8032 25.2856 58.853 25.3434C58.9029 25.4011 58.9648 25.4474 59.0345 25.4792C59.1042 25.5109 59.1801 25.5273 59.2568 25.5272H62.0018C62.4369 25.5272 62.8079 25.2141 62.876 24.7873L64.5244 14.4509C64.5362 14.3758 64.5315 14.299 64.5106 14.2259C64.4896 14.1528 64.4529 14.085 64.403 14.0273C64.353 13.9696 64.2911 13.9233 64.2213 13.8916C64.1516 13.8598 64.0757 13.8434 63.999 13.8435" fill="#003087"/>
<path d="M105.162 19.7211C104.867 21.4464 103.485 22.605 101.721 22.605C100.837 22.605 100.128 22.3229 99.6736 21.7895C99.2222 21.2611 99.0531 20.5074 99.1959 19.6691C99.4701 17.9584 100.875 16.7632 102.612 16.7632C103.478 16.7632 104.18 17.0478 104.645 17.586C105.112 18.1283 105.296 18.8861 105.162 19.7211ZM109.411 13.8427H106.362C106.235 13.8426 106.113 13.8873 106.016 13.9689C105.92 14.0504 105.856 14.1634 105.837 14.2875L105.704 15.1314L105.49 14.8257C104.83 13.8769 103.359 13.559 101.889 13.559C98.5219 13.559 95.6448 16.0876 95.0841 19.6325C94.7927 21.4025 95.2072 23.0929 96.2202 24.2726C97.1503 25.3564 98.4776 25.8077 100.059 25.8077C102.776 25.8077 104.281 24.0807 104.281 24.0807L104.145 24.9198C104.133 24.9948 104.137 25.0715 104.158 25.1446C104.178 25.2177 104.215 25.2855 104.265 25.3433C104.314 25.4011 104.376 25.4475 104.446 25.4792C104.515 25.511 104.591 25.5273 104.668 25.5272H107.412C107.847 25.5272 108.218 25.2141 108.287 24.7873L109.935 14.4509C109.947 14.3758 109.943 14.299 109.922 14.2259C109.901 14.1528 109.864 14.085 109.814 14.0273C109.764 13.9696 109.702 13.9233 109.632 13.8916C109.563 13.8598 109.487 13.8434 109.41 13.8435" fill="#009CDE"/>
<path d="M80.2374 13.8436H77.1722C76.8791 13.8436 76.6058 13.9875 76.4416 14.2282L72.2141 20.3944L70.4221 14.4688C70.3674 14.2881 70.2554 14.1296 70.1027 14.0168C69.95 13.9041 69.7646 13.843 69.5741 13.8428H66.5623C66.4779 13.8428 66.3947 13.8628 66.3196 13.9011C66.2445 13.9394 66.1797 13.9948 66.1306 14.0629C66.0814 14.1309 66.0494 14.2096 66.0371 14.2923C66.0249 14.3751 66.0327 14.4596 66.06 14.5387L69.4338 24.3491L66.2603 28.7843C66.2042 28.8631 66.171 28.9555 66.1644 29.0517C66.1577 29.1478 66.1778 29.2439 66.2226 29.3294C66.2673 29.415 66.3349 29.4868 66.4179 29.5369C66.501 29.587 66.5964 29.6135 66.6937 29.6136H69.7556C70.0445 29.6136 70.3162 29.473 70.482 29.2372L80.6724 14.6688C80.7278 14.5901 80.7603 14.4978 80.7664 14.4021C80.7725 14.3063 80.7521 14.2107 80.7072 14.1257C80.6624 14.0407 80.5949 13.9694 80.5121 13.9197C80.4292 13.8699 80.3342 13.8436 80.2374 13.8436Z" fill="#003087"/>
<path d="M113.004 8.45457L110.39 24.9198C110.378 24.9948 110.383 25.0715 110.404 25.1446C110.425 25.2176 110.461 25.2854 110.511 25.3431C110.561 25.4008 110.623 25.4471 110.693 25.4789C110.762 25.5107 110.838 25.5271 110.915 25.5272H113.542C113.977 25.5272 114.348 25.2133 114.417 24.7873L116.993 8.61719C117.005 8.54214 117.001 8.4654 116.98 8.39228C116.959 8.31915 116.922 8.25138 116.873 8.19364C116.823 8.1359 116.761 8.08957 116.691 8.05783C116.621 8.0261 116.545 8.00972 116.469 8.00983H113.528C113.402 8.00951 113.279 8.05412 113.183 8.13556C113.087 8.21699 113.023 8.33069 113.004 8.45457Z" fill="#009CDE"/>
<path d="M21.4126 2.43649C20.0384 0.885176 17.5544 0.220091 14.3768 0.220091H5.15424C4.83968 0.219925 4.53538 0.330965 4.29611 0.533226C4.05684 0.735487 3.89831 1.01569 3.84904 1.32341L0.0106152 25.4476C-0.00718306 25.5596 -0.000274947 25.674 0.030864 25.783C0.0620029 25.892 0.116632 25.993 0.190988 26.0791C0.265344 26.1652 0.357659 26.2343 0.461573 26.2817C0.565487 26.329 0.67853 26.3535 0.792913 26.3534H6.48653L7.9165 17.3699L7.87217 17.6512C7.92049 17.3441 8.07797 17.0642 8.31621 16.8619C8.55446 16.6596 8.85782 16.5483 9.17162 16.5479H11.8772C17.1924 16.5479 21.3543 14.4096 22.57 8.22383C22.6061 8.0409 22.6373 7.86283 22.6644 7.68884C23.0256 5.40252 22.6619 3.84633 21.4134 2.4373" fill="#003087"/>
<path d="M9.45234 7.71888C9.49548 7.45 9.63396 7.20515 9.84293 7.02828C10.0519 6.8514 10.3177 6.75408 10.5925 6.75378H17.8228C18.679 6.75378 19.4777 6.80907 20.2075 6.92452C20.6065 6.9881 21.0012 7.07553 21.3896 7.18633C21.8306 7.30913 22.2573 7.47755 22.6627 7.6888C23.0256 5.40167 22.6611 3.84629 21.4125 2.43645C20.0376 0.885946 17.5544 0.220863 14.3768 0.220863H5.1534C4.83911 0.221085 4.53521 0.332298 4.29628 0.534525C4.05735 0.736752 3.89906 1.01674 3.84984 1.32418L0.00976831 25.446C-0.00815038 25.5579 -0.00136029 25.6723 0.0296711 25.7814C0.0607025 25.8904 0.115237 25.9915 0.189517 26.0777C0.263797 26.1639 0.356056 26.2331 0.459937 26.2805C0.563818 26.328 0.67685 26.3525 0.791245 26.3525H6.48568L7.91565 17.3683L9.45234 7.71888Z" fill="#003087"/>
<path d="M22.6634 7.68792C22.6353 7.86681 22.6038 8.04517 22.569 8.22291C21.3533 14.4078 17.1915 16.547 11.8763 16.547H9.16983C8.85607 16.5472 8.55274 16.6585 8.31459 16.8609C8.07645 17.0632 7.91918 17.3432 7.8712 17.6503L6.48556 26.3517L6.09153 28.8201C6.07587 28.9181 6.08184 29.0183 6.10905 29.1138C6.13625 29.2093 6.18404 29.2978 6.24912 29.3732C6.31419 29.4487 6.39501 29.5092 6.48599 29.5507C6.57698 29.5922 6.67597 29.6137 6.77615 29.6136H11.5758C12.1439 29.6136 12.6266 29.2039 12.716 28.6485L12.7628 28.4063L13.6674 22.7279L13.7249 22.414C13.7679 22.1449 13.9065 21.8999 14.1156 21.723C14.3248 21.546 14.5908 21.4489 14.8659 21.4489H15.5842C20.2336 21.4489 23.8742 19.5789 24.9381 14.1672C25.3814 11.9069 25.1515 10.0181 23.9777 8.69205C23.6049 8.28092 23.1596 7.94063 22.6634 7.68792Z" fill="#009CDE"/>
<path d="M21.3906 7.18634C21.2051 7.13186 21.0139 7.08308 20.8168 7.03999C20.6198 6.99689 20.4163 6.95868 20.2077 6.92616C19.4772 6.80827 18.6793 6.75298 17.8223 6.75298H10.5928C10.3176 6.75264 10.0514 6.84984 9.84228 7.027C9.63315 7.20416 9.49493 7.44958 9.45259 7.71889L7.91591 17.3699L7.87158 17.6504C7.91957 17.3433 8.07683 17.0633 8.31497 16.861C8.55312 16.6586 8.85646 16.5473 9.17021 16.5471H11.8766C17.1918 16.5471 21.3537 14.4087 22.5694 8.22298C22.6055 8.04005 22.6359 7.8628 22.6638 7.68799C22.3428 7.5216 22.0083 7.38182 21.664 7.27008C21.5745 7.24081 21.4834 7.21398 21.3906 7.18634Z" fill="#012169"/>
</svg>
