<svg width="117" height="23" viewBox="0 0 117 23" fill="none" xmlns="http://www.w3.org/2000/svg">
<path d="M103.74 16.2683C103.724 16.2716 103.709 16.2705 103.693 16.2727L103.773 16.2618C103.762 16.2628 103.751 16.2683 103.74 16.2705V16.2683ZM50.1712 19.9744C50.1744 20.2208 50.1261 20.4652 50.0294 20.6924C49.9328 20.9197 49.7897 21.1249 49.6092 21.2955C49.4347 21.4727 49.2252 21.613 48.9937 21.7077C48.7622 21.8023 48.5135 21.8494 48.2628 21.8459H44.4827C43.7332 21.8573 42.9892 21.7175 42.2965 21.4352C41.6038 21.1529 40.977 20.7341 40.4547 20.2044C39.3395 19.1089 38.7952 17.7911 38.7952 16.2476V8.745C38.7952 8.21634 38.98 7.7727 39.3517 7.41191C39.7234 7.05111 40.177 6.87235 40.7124 6.87235C40.9616 6.86875 41.2089 6.91577 41.4388 7.01048C41.6687 7.10518 41.8764 7.24554 42.0488 7.42281C42.4205 7.78905 42.6075 8.22942 42.6075 8.74391V11.4613H47.9752C48.462 11.4613 48.8802 11.6314 49.2286 11.9714C49.5771 12.3115 49.7508 12.7192 49.7508 13.1966C49.7539 13.425 49.7094 13.6517 49.6199 13.8624C49.5305 14.0732 49.3981 14.2636 49.2308 14.4218C49.0685 14.5859 48.8739 14.7158 48.659 14.8035C48.4441 14.8912 48.2133 14.9349 47.9807 14.9319H42.6075V16.2465C42.6075 16.7621 42.79 17.2003 43.1573 17.5611C43.5246 17.9219 43.9693 18.1017 44.4937 18.1017H48.2551C48.7784 18.1017 49.2286 18.287 49.6015 18.6533C49.782 18.8238 49.925 19.029 50.0217 19.2563C50.1184 19.4836 50.1666 19.728 50.1634 19.9744H50.1712ZM94.3297 19.9744C94.333 20.2207 94.285 20.465 94.1885 20.6923C94.092 20.9195 93.9492 21.1248 93.7688 21.2955C93.5945 21.4727 93.3852 21.6129 93.1539 21.7075C92.9226 21.8022 92.674 21.8493 92.4236 21.8459H90.7111C89.9614 21.8574 89.2172 21.7178 88.5243 21.4355C87.8314 21.1532 87.2045 20.7342 86.682 20.2044C86.1435 19.6926 85.7173 19.0774 85.43 18.3968C85.1427 17.7162 85.0002 16.9847 85.0115 16.2476V8.745C85.0115 8.21634 85.1962 7.7727 85.5679 7.41191C85.9396 7.05111 86.3921 6.87235 86.9286 6.87235C87.1778 6.86875 87.4251 6.91577 87.655 7.01048C87.8849 7.10518 88.0926 7.24554 88.265 7.42281C88.4448 7.59371 88.587 7.79914 88.6829 8.02638C88.7788 8.25362 88.8264 8.49783 88.8226 8.74391V11.4613H92.1337C92.3667 11.4581 92.5979 11.5016 92.8132 11.5893C93.0285 11.677 93.2234 11.8071 93.3861 11.9714C93.7345 12.3115 93.9082 12.7192 93.9082 13.1966C93.9113 13.425 93.8668 13.6517 93.7773 13.8624C93.6879 14.0732 93.5555 14.2636 93.3883 14.4218C93.2259 14.5859 93.0313 14.7158 92.8164 14.8035C92.6015 14.8912 92.3708 14.9349 92.1382 14.9319H88.8226V16.2465C88.8226 16.7621 89.0052 17.2003 89.3724 17.5611C89.7397 17.9219 90.1845 18.1017 90.7088 18.1017H92.4236C92.9469 18.1017 93.3971 18.287 93.7699 18.6533C93.9503 18.8239 94.0931 19.0292 94.1896 19.2564C94.2861 19.4837 94.333 19.728 94.3297 19.9744ZM84.3731 19.9744C84.3731 20.4867 84.1851 20.9281 83.8122 21.2955C83.6378 21.4728 83.4283 21.6131 83.1968 21.7078C82.9653 21.8024 82.7165 21.8494 82.4659 21.8459H80.7534C79.1824 21.8459 77.8405 21.2987 76.7265 20.2044C76.1876 19.6928 75.7611 19.0776 75.4733 18.397C75.1856 17.7164 75.0428 16.9848 75.0538 16.2476V8.745C75.0482 8.497 75.0948 8.25054 75.1905 8.02112C75.2863 7.79171 75.4292 7.58429 75.6102 7.41191C75.982 7.0522 76.4355 6.87235 76.971 6.87235C77.2202 6.86875 77.4674 6.91577 77.6973 7.01048C77.9273 7.10518 78.1349 7.24554 78.3074 7.42281C78.6791 7.78905 78.866 8.22942 78.866 8.74391V11.4613H82.176C82.6628 11.4613 83.081 11.6314 83.4295 11.9714C83.5974 12.1292 83.7304 12.3195 83.8201 12.5303C83.9098 12.7412 83.9542 12.968 83.9505 13.1966C83.9537 13.425 83.9091 13.6517 83.8197 13.8624C83.7302 14.0732 83.5978 14.2636 83.4306 14.4218C83.0843 14.7488 82.6562 14.9319 82.1827 14.9319H78.855V16.2465C78.855 16.7621 79.0375 17.2003 79.4048 17.5611C79.7721 17.9219 80.2168 18.1017 80.7412 18.1017H82.4559C82.9792 18.1017 83.4295 18.287 83.8023 18.6533C83.9826 18.8239 84.1255 19.0292 84.2219 19.2564C84.3184 19.4837 84.3665 19.728 84.3632 19.9744H84.3731ZM68.5555 16.6084C68.5555 18.0527 68.0355 19.2855 66.9912 20.3101C66.503 20.806 65.917 21.1981 65.2691 21.4622C64.6212 21.7264 63.9253 21.857 63.2243 21.8459C61.8812 21.8459 60.6986 21.4099 59.6764 20.5052C58.7186 21.3801 57.4567 21.8596 56.1507 21.8448C55.4495 21.8554 54.7536 21.7246 54.1056 21.4605C53.4576 21.1964 52.8713 20.8045 52.3827 20.309C51.8787 19.8303 51.4799 19.2548 51.2111 18.618C50.9422 17.9813 50.8089 17.2969 50.8195 16.6073V12.9503C50.8139 12.7179 50.8576 12.4869 50.9479 12.2722C51.0382 12.0574 51.1731 11.8637 51.3439 11.7033C51.6923 11.3763 52.1127 11.1975 52.6017 11.1975C52.8352 11.1936 53.0671 11.2364 53.2833 11.3233C53.4995 11.4103 53.6955 11.5395 53.8596 11.7033C54.2091 12.0303 54.3839 12.4663 54.3839 12.9514V16.6106C54.3798 16.839 54.4233 17.0657 54.5118 17.2769C54.6003 17.488 54.7319 17.679 54.8983 17.8379C55.0616 18.0006 55.2564 18.1291 55.4712 18.2158C55.686 18.3025 55.9163 18.3456 56.1485 18.3426C56.6242 18.3426 57.0335 18.1758 57.3654 17.8379C57.5317 17.6789 57.663 17.4879 57.7513 17.2767C57.8396 17.0656 57.883 16.8389 57.8787 16.6106V12.9699C57.8787 12.4903 58.0557 12.0739 58.4042 11.7229C58.5698 11.5528 58.7692 11.4183 58.99 11.3277C59.2109 11.2371 59.4483 11.1924 59.6875 11.1964C59.9222 11.1933 60.1551 11.2375 60.372 11.3261C60.5888 11.4148 60.7851 11.5461 60.9486 11.712C61.2993 12.0565 61.4741 12.4685 61.4741 12.9503V16.6095C61.4651 16.8371 61.5036 17.0641 61.5871 17.2765C61.6705 17.4889 61.7973 17.6822 61.9595 17.8445C62.1217 18.0068 62.316 18.1346 62.5303 18.2201C62.7446 18.3056 62.9743 18.3469 63.2055 18.3415C63.6955 18.3415 64.1126 18.1747 64.4556 17.8368C64.622 17.6779 64.7536 17.4869 64.8421 17.2758C64.9306 17.0646 64.9741 16.8379 64.97 16.6095V12.9503C64.97 12.4685 65.1448 12.0565 65.4944 11.712C65.6572 11.546 65.8528 11.4146 66.0691 11.326C66.2855 11.2373 66.5179 11.1932 66.7522 11.1964C67.2423 11.1964 67.6616 11.3687 68.0112 11.712C68.3607 12.0554 68.5344 12.4674 68.5344 12.9492V16.6062L68.5555 16.6084ZM73.7052 8.32425C73.7087 8.57075 73.6607 8.81532 73.5642 9.04277C73.4677 9.27022 73.3248 9.4757 73.1443 9.64644C72.97 9.82364 72.7607 9.96387 72.5294 10.0585C72.2981 10.1532 72.0495 10.2003 71.7991 10.1969C71.5485 10.1999 71.2999 10.1527 71.0685 10.058C70.837 9.9634 70.6275 9.82337 70.4527 9.64644C70.2727 9.47565 70.1301 9.27029 70.0339 9.04306C69.9376 8.81583 69.8896 8.57156 69.893 8.32534C69.893 7.81085 70.081 7.37049 70.4527 7.00424C70.6272 6.82691 70.8367 6.6866 71.0682 6.59194C71.2997 6.49728 71.5484 6.45026 71.7991 6.45378C72.0496 6.45028 72.2981 6.49731 72.5295 6.59198C72.7608 6.68664 72.9701 6.82694 73.1443 7.00424C73.5182 7.37049 73.7052 7.80976 73.7052 8.32425ZM73.7052 19.9624C73.7082 20.209 73.66 20.4535 73.5635 20.6811C73.4671 20.9087 73.3244 21.1144 73.1443 21.2857C72.9701 21.463 72.7608 21.6033 72.5295 21.6979C72.2981 21.7926 72.0496 21.8396 71.7991 21.8361C71.2758 21.8361 70.8278 21.653 70.4527 21.2857C70.2726 21.1145 70.13 20.9088 70.0337 20.6812C69.9374 20.4536 69.8895 20.2089 69.893 19.9624V13.0626C69.893 12.5481 70.081 12.1066 70.4527 11.7404C70.6271 11.5628 70.8365 11.4223 71.068 11.3275C71.2996 11.2326 71.5484 11.1854 71.7991 11.1888C72.0496 11.1855 72.2983 11.2327 72.5296 11.3275C72.761 11.4224 72.9702 11.5629 73.1443 11.7404C73.5182 12.1066 73.7052 12.547 73.7052 13.0626V19.9624ZM117 13.1857C117 13.6621 116.826 14.0708 116.478 14.4109C116.316 14.5754 116.121 14.7055 115.907 14.7933C115.692 14.881 115.461 14.9245 115.229 14.921H112.627C112.14 14.921 111.727 15.0889 111.388 15.4224C111.222 15.5799 111.091 15.7693 111.003 15.9788C110.915 16.1883 110.872 16.4133 110.876 16.64V20.0954C110.876 20.5728 110.704 20.9826 110.356 21.3238C110.195 21.4884 110.001 21.6188 109.787 21.7069C109.572 21.795 109.342 21.839 109.11 21.8361C108.626 21.8361 108.208 21.6661 107.862 21.3238C107.695 21.1654 107.562 20.9748 107.473 20.7638C107.383 20.5529 107.339 20.3261 107.342 20.0975V16.6422C107.331 15.9587 107.463 15.2804 107.73 14.6493C107.996 14.0182 108.391 13.4477 108.891 12.9732C109.375 12.4815 109.957 12.0927 110.599 11.8307C111.242 11.5686 111.932 11.4388 112.628 11.4493H115.227C115.46 11.446 115.691 11.4898 115.906 11.5779C116.121 11.666 116.316 11.7966 116.478 11.9616C116.646 12.1189 116.779 12.309 116.868 12.5198C116.958 12.7305 117.002 12.9573 116.998 13.1857H117ZM100.298 21.835C98.798 21.835 97.3842 21.2726 96.269 20.1499C95.1539 19.0271 94.7258 17.803 94.7258 16.2192C94.7258 16.2192 94.6173 11.1855 100.397 11.1855C104.918 11.1855 106.293 14.3139 106.293 15.8595C106.293 17.0869 105.723 17.5229 104.426 17.5229H98.6464C98.6464 17.5229 98.4252 18.8255 101.08 18.8255H104.377C104.577 18.8255 104.776 18.8644 104.961 18.94C105.146 19.0156 105.315 19.1264 105.457 19.2661C105.598 19.4057 105.711 19.5716 105.787 19.7541C105.864 19.9366 105.904 20.1322 105.904 20.3297C105.904 20.5272 105.864 20.7228 105.787 20.9053C105.711 21.0878 105.598 21.2537 105.457 21.3934C105.315 21.533 105.146 21.6438 104.961 21.7194C104.776 21.795 104.577 21.8339 104.377 21.8339H100.306L100.298 21.835ZM98.6852 15.1478H102.48C102.48 13.9193 100.592 13.9193 100.592 13.9193C100.592 13.9193 98.6852 13.9193 98.6852 15.1478ZM33.5083 10.7245C32.3279 10.9229 30.6176 10.7158 29.7104 10.343C31.5944 10.1904 32.87 9.34669 33.3612 8.20108C32.6819 8.61311 30.5733 9.0731 29.4117 8.63382L29.2259 7.87516C28.3408 4.66397 25.3019 2.07627 22.1213 2.38911L22.9012 2.10352C23.2497 1.98035 25.3052 1.65007 24.9811 0.937203C24.7078 0.307173 22.1965 1.41027 21.7241 1.55524C22.3481 1.33724 23.3814 0.927392 23.4909 0.219971C22.5139 0.362562 21.602 0.788282 20.8712 1.44297C21.1345 1.16502 21.3325 0.827111 21.3746 0.461955C18.8235 2.06973 17.3333 5.30817 16.1285 8.45178C15.1816 7.54707 14.3408 6.83311 13.5885 6.43525C11.4777 5.32016 8.94211 4.15494 4.98935 2.70303C4.87872 3.99688 5.63764 5.71693 7.8657 6.86036C7.38557 6.79496 6.50718 6.93884 5.80579 7.10343C6.09121 8.58586 7.02602 9.80668 9.55831 10.3953C8.40114 10.4716 7.80264 10.7223 7.26166 11.2891C7.78826 12.3213 9.07597 13.5345 11.3881 13.2838C8.81489 14.3782 10.3371 16.4035 12.4324 16.1015C8.86246 19.74 3.23257 19.4806 0 16.4285C8.43875 27.7723 26.7865 23.1365 29.519 12.2102C31.5701 12.2265 32.7715 11.5104 33.5183 10.7212L33.5083 10.7245Z" fill="#1DA1F2"/>
</svg>
