<svg width="109" height="37" viewBox="0 0 109 37" fill="none" xmlns="http://www.w3.org/2000/svg">
<path d="M104.026 7.03106H99.2729V0.377258H88.8369L84.0376 7.03106H75.5094L72.6577 9.88268V7.03106H66.0039V0.377258H45.092V7.03106H15.6727L10.8725 0.377258H0.416504V23.1903L13.7241 36.4979H27.0317V32.6957L30.8339 36.4979H56.4985V32.6957L60.3007 36.4979H72.6577V32.6957L76.4599 36.4979H100.223L108.778 27.943V11.7838L104.026 7.03106ZM16.5757 16.5365H9.92193V18.4376H16.5757V26.0419H6.11976L2.31759 22.2397V2.27834H9.92193V8.93214H16.5757V16.5365ZM45.092 26.0419H22.279L18.4768 22.2397V8.93214H26.0812V18.4376H27.9822V8.93214H35.5866V18.4376H37.4877V8.93214H45.092V26.0419ZM54.5974 26.0419H46.9931V8.93214H54.5974V26.0419ZM54.5974 7.03106H46.9931V2.27834H54.5974V7.03106ZM70.7567 16.5365H64.1029V18.4376H70.7567V26.0419H60.3007L56.4985 22.2397V2.27834H64.1029V8.93214H70.7567V16.5365ZM87.8664 16.5365H80.2621V18.4376H87.8664V26.0419H76.4599L72.6577 22.2397V12.7343L76.4599 8.93214H87.8664V16.5365ZM106.877 26.0419H99.2729V16.5365H97.3718V26.0419H89.7675V2.27834H97.3718V8.93214H103.075L106.877 12.7343V26.0419Z" fill="#3873FF"/>
</svg>
