<svg width="117" height="42" viewBox="0 0 117 42" fill="none" xmlns="http://www.w3.org/2000/svg">
<path d="M6.73139 29.3817C7.22582 30.7008 7.91035 31.8287 8.78509 32.7653C9.65984 33.702 10.6962 34.4189 11.894 34.9159C13.0921 35.413 14.3946 35.6614 15.8018 35.6614C17.1709 35.6614 18.4544 35.4033 19.6524 34.8871C20.8504 34.3709 21.8962 33.6446 22.7899 32.7079C23.6836 31.7712 24.3777 30.653 24.8721 29.3531C25.3666 28.0531 25.6137 26.6004 25.6137 24.9946V0.219971H31.6035V40.3639H25.6708V36.6362C24.3397 38.0508 22.7708 39.1404 20.9644 39.9052C19.1579 40.6698 17.2089 41.0521 15.1172 41.0521C12.9874 41.0521 11.0004 40.6793 9.15582 39.9338C7.3114 39.1882 5.71401 38.1274 4.36402 36.751C3.01403 35.3745 1.94906 33.7212 1.16949 31.7904C0.389787 29.8596 0 27.7091 0 25.3386V0.219971H5.98981V24.9946C5.98981 26.6004 6.23696 28.0627 6.73139 29.3817ZM41.9283 0.219971V14.8438C43.2594 13.5057 44.7997 12.4448 46.5491 11.661C48.2985 10.8772 50.2001 10.4853 52.2536 10.4853C54.3834 10.4853 56.3798 10.8867 58.2434 11.6896C60.1069 12.4924 61.7231 13.5821 63.0923 14.9585C64.4615 16.335 65.5454 17.9597 66.344 19.8331C67.1426 21.7066 67.5419 23.6947 67.5419 25.7975C67.5419 27.9001 67.1426 29.8787 66.344 31.7329C65.5454 33.5872 64.4615 35.2026 63.0923 36.5788C61.7231 37.9552 60.1069 39.0449 58.2434 39.8477C56.3798 40.6506 54.3833 41.052 52.2536 41.052C50.1999 41.052 48.289 40.6601 46.5206 39.8763C44.7521 39.0926 43.2023 38.0316 41.8713 36.6935V40.3638H36.1667V0.219971H41.9283ZM42.5843 29.7544C43.0977 30.978 43.8109 32.0485 44.7236 32.966C45.6363 33.8836 46.7012 34.6101 47.9181 35.1454C49.1352 35.6806 50.4472 35.9482 51.8544 35.9482C53.2235 35.9482 54.5165 35.6806 55.7334 35.1454C56.9504 34.6101 58.0056 33.8838 58.8996 32.966C59.7932 32.0486 60.5063 30.978 61.0387 29.7544C61.5711 28.531 61.8374 27.2121 61.8374 25.7975C61.8374 24.3828 61.5711 23.0542 61.0387 21.8117C60.5063 20.5691 59.7932 19.4891 58.8996 18.5715C58.0058 17.654 56.9505 16.9371 55.7334 16.421C54.5164 15.9049 53.2234 15.6467 51.8544 15.6467C50.4853 15.6467 49.1923 15.9048 47.9753 16.421C46.7584 16.9372 45.6935 17.654 44.7807 18.5715C43.868 19.4891 43.1454 20.5691 42.613 21.8117C42.0806 23.0542 41.8143 24.3828 41.8143 25.7975C41.8142 27.2121 42.071 28.531 42.5843 29.7544ZM70.793 19.8906C71.5535 18.0554 72.5995 16.4402 73.9305 15.0447C75.2614 13.6492 76.8398 12.55 78.6653 11.7472C80.4908 10.9443 82.4684 10.5429 84.5981 10.5429C86.6898 10.5429 88.6294 10.9253 90.4169 11.6898C92.2042 12.4545 93.7444 13.5155 95.0375 14.8727C96.3306 16.2299 97.3385 17.8358 98.0609 19.69C98.7835 21.5443 99.1448 23.561 99.1448 25.7403V27.6329H75.4708C75.661 28.8181 76.0413 29.9172 76.6118 30.9303C77.1823 31.9434 77.8952 32.8228 78.7509 33.5683C79.6066 34.3139 80.5764 34.897 81.6603 35.3174C82.7442 35.738 83.8945 35.9483 85.1116 35.9483C88.5725 35.9483 91.3677 34.5145 93.4974 31.6471L97.6618 34.7439C96.2166 36.6937 94.4292 38.2231 92.2995 39.3318C90.1697 40.4405 87.7738 40.9949 85.1117 40.9949C82.9439 40.9949 80.9189 40.6124 79.0363 39.8479C77.1538 39.0833 75.5185 38.0127 74.1304 36.6362C72.7423 35.2598 71.6489 33.6446 70.8503 31.7904C70.0517 29.9362 69.6523 27.9193 69.6523 25.7401C69.652 23.6756 70.0325 21.7257 70.793 19.8906ZM78.808 17.6252C77.1916 18.9825 76.1173 20.789 75.5849 23.0447H93.3263C92.8318 20.789 91.7765 18.9825 90.1601 17.6252C88.5438 16.2681 86.6518 15.5895 84.4841 15.5895C82.3163 15.5895 80.4243 16.2681 78.808 17.6252ZM109.926 18.2847C108.709 19.6228 108.101 21.4388 108.101 23.7329V40.3641H102.339V11.1163H108.043V14.7292C108.766 13.544 109.707 12.6073 110.867 11.9191C112.027 11.2308 113.406 10.8867 115.003 10.8867H117V16.2775H114.604C112.702 16.2776 111.143 16.9466 109.926 18.2847Z" fill="#010202"/>
</svg>
