<svg width="136" height="35" viewBox="0 0 136 35" fill="none" xmlns="http://www.w3.org/2000/svg">
<path d="M44.3228 13.7421C44.3228 11.323 41.9704 8.75369 37.8996 8.75369C33.3282 8.75369 28.3064 12.1071 27.539 18.7973C26.7548 25.5542 30.9591 28.5573 35.1968 28.5573C39.4345 28.5573 41.6534 26.9056 43.9224 24.7033C41.9704 22.2508 39.4511 23.3853 38.9673 23.6356C38.4334 23.9025 37.7494 24.2695 36.348 24.2695C34.713 24.2695 33.0446 23.5355 33.0446 20.4823C43.522 19.448 44.3228 16.1613 44.3228 13.7421ZM39.1342 14.1425C39.0674 14.8933 38.7671 16.1779 33.4617 16.8953C34.5795 12.9246 36.715 12.6243 37.6994 12.6243C38.617 12.6243 39.2009 13.3417 39.1342 14.1425ZM21.3827 14.7932C21.3827 14.7932 19.1304 21.8671 18.9469 22.451C18.8801 21.8504 17.2285 9.1541 17.2285 9.1541C13.3912 9.1541 11.3391 11.8902 10.2547 14.7765C10.2547 14.7765 7.51854 21.8671 7.28497 22.4677C7.26828 21.9171 6.86787 14.8599 6.86787 14.8599C6.6343 11.323 3.39766 9.17079 0.77832 9.17079L3.94822 28.4071C7.969 28.3904 10.1379 25.671 11.2724 22.7847C11.2724 22.7847 13.6915 16.5283 13.7916 16.2447C13.8083 16.5116 15.5267 28.4071 15.5267 28.4071C19.5642 28.4071 21.7331 25.8545 22.9009 23.0683L28.5567 9.17079C24.5693 9.17079 22.4671 11.8902 21.3827 14.7932ZM59.1379 8.72033C56.652 8.72033 54.7501 10.0717 53.1485 12.0571V12.0404L54.5833 0.478577C51.2799 0.478577 48.5938 3.34817 48.0766 7.6192L45.5741 28.2569C47.476 28.2569 49.4947 27.7064 50.5792 26.305C51.5468 27.5562 52.9983 28.5573 55.1505 28.5573C60.7229 28.5573 64.5434 22.084 64.5434 16.0111C64.5101 10.4721 61.824 8.72033 59.1379 8.72033ZM58.6207 18.6471C58.0368 22.0339 56.1515 24.3363 54.333 24.3363C52.4978 24.3363 51.7137 23.5188 51.7137 23.5188C52.064 20.5491 52.2809 18.7305 52.9483 17.1623C53.6156 15.594 55.2006 13.0915 56.8523 13.0915C58.4706 13.0915 59.2047 15.2437 58.6207 18.6471ZM78.4576 9.17079H74.5703L74.587 8.97058C74.854 6.43466 75.4546 5.09996 77.4399 4.88307C78.7913 4.74961 79.3919 4.04889 79.5421 3.28144C79.6589 2.68083 80.0259 0.595363 80.0259 0.595363C72.2179 0.545311 69.7654 3.91542 69.1315 9.054L69.1148 9.17079H69.0314C67.7634 9.17079 66.362 10.6056 66.1284 12.4241L66.045 13.0915H68.6476L66.4621 31.1432L65.7947 34.3799C65.8781 34.3799 65.9782 34.3965 66.0617 34.3965C69.7154 34.2631 72.0511 31.3768 72.5683 27.1892L74.27 13.0915H75.488C76.6892 13.0915 78.0906 11.8902 78.3409 9.88819L78.4576 9.17079ZM98.6783 8.83711C94.1904 8.83711 89.9527 12.1405 88.6514 17.3291C87.3501 22.5178 89.3187 28.6574 95.9255 28.6574C102.516 28.6574 106.319 22.2675 106.319 16.9454C106.319 11.6567 102.732 8.83711 98.6783 8.83711ZM100.497 18.4803C100.263 20.8327 99.2289 24.403 96.3926 24.403C93.5397 24.403 93.9401 20.2321 94.2237 18.2467C94.5241 16.1279 95.7086 13.1081 98.2612 13.1081C100.547 13.1081 100.764 15.8276 100.497 18.4803ZM128.492 14.7932C128.492 14.7932 126.24 21.8671 126.056 22.451C125.99 21.8504 124.338 9.1541 124.338 9.1541C120.501 9.1541 118.448 11.8902 117.364 14.7765C117.364 14.7765 114.628 21.8671 114.394 22.4677C114.378 21.9171 113.977 14.8599 113.977 14.8599C113.744 11.323 110.507 9.17079 107.888 9.17079L111.041 28.4071C115.062 28.3904 117.231 25.671 118.365 22.7847C118.365 22.7847 120.784 16.5283 120.868 16.2447C120.901 16.5116 122.603 28.4071 122.603 28.4071C126.64 28.4071 128.809 25.8545 129.977 23.0683L135.633 9.17079C131.662 9.17079 129.56 11.8902 128.492 14.7932ZM82.1281 0.595363L78.8581 26.9723L78.1907 30.2256C78.2741 30.2256 78.3742 30.2423 78.4576 30.2423C81.9779 30.1923 84.4805 27.1058 84.9476 23.2185L86.8329 8.08635C87.4001 3.46496 84.6473 0.595363 82.1281 0.595363Z" fill="#3873FF"/>
</svg>
