<svg width="127" height="29" viewBox="0 0 127 29" fill="none" xmlns="http://www.w3.org/2000/svg">
<path d="M21.4016 28.4571L13.1523 28.3045C10.4813 28.2515 7.80371 28.3576 5.18521 27.8071C1.20166 26.9846 0.919467 22.9519 0.624147 19.5692C0.217261 14.8135 0.374765 9.9716 1.1426 5.25571C1.57573 2.60925 3.28203 1.03065 5.92023 0.8582C14.8258 0.234722 23.7904 0.307682 32.6763 0.599523C33.6147 0.626054 34.5597 0.771974 35.4851 0.937793C40.0527 1.74699 40.1643 6.31695 40.4596 10.164C40.7549 14.0507 40.6302 17.9574 40.0658 21.8177C39.613 25.0147 38.7467 27.6943 35.0913 27.953C30.5106 28.2913 26.0348 28.5632 21.441 28.477C21.441 28.4571 21.4147 28.4571 21.4016 28.4571ZM16.5518 20.3651C20.0037 18.362 23.3901 16.3921 26.8223 14.4023C23.3638 12.3992 19.984 10.4293 16.5518 8.43944V20.3651Z" fill="#3873FF"/>
<path d="M106.627 24.8224C106.47 25.4725 106.332 25.9832 106.194 26.5271H102.965V1.35553H106.732V10.6415C106.929 10.3894 107.027 10.2833 107.113 10.1705C107.756 9.27512 108.589 8.69143 109.666 8.46591C111.378 8.12764 112.842 8.89041 113.36 10.5552C113.695 11.59 113.912 12.6976 113.938 13.7788C113.99 16.558 113.951 19.3305 113.853 22.1096C113.813 22.9586 113.557 23.8275 113.236 24.6235C112.179 27.2501 108.727 27.648 107.014 25.373C106.909 25.2337 106.811 25.0811 106.627 24.8224ZM106.811 17.8978V22.501C106.811 23.2505 107.205 23.7081 107.946 23.8806C108.675 24.053 109.265 23.7678 109.561 23.0846C109.685 22.7994 109.81 22.501 109.817 22.2025C109.889 19.3902 109.954 16.5778 109.974 13.7589C109.974 13.2349 109.849 12.691 109.692 12.1803C109.397 11.2583 108.583 10.9864 107.782 11.5236C107.178 11.9349 106.811 12.5186 106.811 13.2946V17.8978ZM96.5731 8.82408H100.517V26.5403H97.4394C97.3278 25.8704 97.2163 25.1806 97.085 24.3714C96.875 24.6832 96.7503 24.8821 96.6191 25.0811C95.5953 26.5735 94.1449 27.0842 92.4321 26.8123C90.9686 26.5735 90.0892 25.4327 89.8923 23.5622C89.8333 23.005 89.807 22.4413 89.807 21.8841C89.7939 17.7386 89.807 13.5798 89.807 9.4343V8.81082H93.7971V9.5338C93.7971 13.54 93.784 17.5396 93.8102 21.5458C93.8102 22.1163 93.8693 22.7066 93.9677 23.277C94.0793 23.8607 94.4993 24.0729 95.0637 24.0331C95.9759 23.9602 96.6059 23.277 96.6059 22.3617V9.60676C96.5731 9.34808 96.5731 9.10929 96.5731 8.82408ZM69.4168 8.81082H73.3807V9.56033C73.3807 13.5466 73.3675 17.5263 73.3938 21.4994C73.3938 22.0698 73.4463 22.6601 73.5644 23.2173C73.7154 23.8739 74.096 24.0862 74.7457 24C75.6448 23.8739 76.1895 23.2438 76.196 22.3219V9.63329V8.83735H80.1402V26.5403H77.0754C76.9639 25.8837 76.8523 25.2071 76.7079 24.3515C76.5111 24.65 76.3995 24.8224 76.2879 25.0015C75.2641 26.5204 73.8269 27.0776 72.0747 26.8057C70.6703 26.5934 69.8106 25.5454 69.5481 23.8275C69.4759 23.2903 69.4234 22.7596 69.4234 22.2224C69.4102 17.9177 69.4102 13.5931 69.4102 9.28838L69.4168 8.81082ZM67.3824 18.2692C67.3693 18.8662 67.3299 19.4631 67.2971 20.0601C67.1461 21.8509 67.0739 24.3913 65.6433 25.698C64.7311 26.5204 63.576 26.8189 62.3816 26.8587C61.8501 26.872 61.3119 26.872 60.7803 26.799C58.2668 26.4143 57.0987 25.2934 56.6787 22.501C56.1996 19.2774 56.1602 16.0008 56.7312 12.7772C57.3218 9.44094 59.3562 8.26029 62.5194 8.47918C65.4726 8.69143 66.7917 10.6481 67.1396 13.4339C67.3299 15.0324 67.4218 16.6508 67.3824 18.2692ZM63.366 17.659C63.366 16.5248 63.3923 15.3839 63.3529 14.2497C63.3267 13.5931 63.2413 12.9298 63.1035 12.2798C62.946 11.5303 62.4735 11.1721 61.8829 11.1854C61.3054 11.1986 60.8985 11.5568 60.6885 12.2533C60.6163 12.5119 60.5375 12.7772 60.5375 13.0359C60.5375 14.8135 60.5244 16.5977 60.5113 18.3753C60.4981 20.0335 60.2881 21.7713 60.8066 23.3566C60.9641 23.8408 61.371 24.1061 61.9026 24.1061C62.421 24.1061 62.7623 23.8474 62.9526 23.3831C63.1035 23.0249 63.2348 22.6336 63.2348 22.2489C63.2807 20.7234 63.366 19.1912 63.366 17.659ZM50.8904 14.3227C51.2382 12.6048 51.5664 10.9267 51.9273 9.24195C52.3801 7.09955 52.8855 4.95715 53.3317 2.80812C53.4433 2.28412 53.6533 2.1581 54.1455 2.17137C55.2021 2.21116 56.2784 2.18463 57.4071 2.18463C57.0396 3.55099 56.6787 4.85103 56.3243 6.13116C55.2021 10.1506 54.0799 14.1834 52.9708 18.2162C52.8855 18.5279 52.8461 18.8662 52.8461 19.1978C52.833 21.3999 52.8461 23.5954 52.8461 25.7975V26.5138H48.9938C48.9807 26.3148 48.9544 26.1158 48.9544 25.9169C48.9544 24.6699 48.856 23.4163 48.9675 22.1826C49.2497 19.2177 48.3178 16.4916 47.5631 13.7324C46.5656 10.0843 45.555 6.423 44.5574 2.77495C44.5049 2.6025 44.4852 2.41678 44.4327 2.20453H48.3638C49.1907 6.23065 50.0241 10.2568 50.8904 14.3227ZM126.263 18.9458H119.621C119.693 20.2922 119.72 21.5724 119.857 22.8392C119.956 23.7214 120.435 24.0995 121.19 24.1061C121.977 24.1194 122.437 23.7214 122.62 22.8459C122.679 22.5606 122.719 22.2754 122.745 21.9836C122.771 21.7249 122.784 21.4463 122.804 21.0749C123.926 21.1346 125.022 21.2009 126.105 21.2474C126.735 23.1377 125.6 25.5653 123.69 26.3148C122.187 26.9118 120.645 26.9118 119.109 26.4541C117.974 26.1158 117.127 25.3862 116.747 24.2653C116.392 23.2173 116.058 22.1229 115.985 21.0285C115.789 18.3289 115.716 15.6028 116.123 12.8966C116.195 12.4456 116.32 12.0145 116.458 11.5767C117.009 9.77258 118.21 8.6649 120.067 8.47918C121.078 8.37968 122.122 8.41948 123.119 8.59194C124.734 8.87715 125.593 10.0512 125.967 11.59C126.138 12.3129 126.263 13.0558 126.289 13.7921C126.295 15.4834 126.263 17.1615 126.263 18.9458ZM122.489 16.6176C122.489 15.2844 122.502 14.0308 122.476 12.7706C122.476 12.4721 122.364 12.1604 122.253 11.8752C122.03 11.318 121.564 11.1655 121.006 11.1655C120.448 11.1655 120.094 11.4507 119.956 11.9614C119.536 13.4936 119.674 15.0589 119.687 16.6309C120.691 16.6176 121.603 16.6176 122.489 16.6176Z" fill="#3873FF"/>
<path d="M83.1849 5.43494H79.2802V2.23792H90.9354V5.41504H87.0569V26.5141H83.1915L83.1849 5.43494Z" fill="#3873FF"/>
</svg>
