<svg width="140" height="140" viewBox="0 0 140 140" fill="none" xmlns="http://www.w3.org/2000/svg">
<path d="M97 80V37H30V80" stroke="url(#paint0_linear_627_2148)" stroke-width="5"/>
<path fill-rule="evenodd" clip-rule="evenodd" d="M84 80H28V91H84V80ZM67 86C67 87.6569 65.6569 89 64 89C62.3431 89 61 87.6569 61 86C61 84.3431 62.3431 83 64 83C65.6569 83 67 84.3431 67 86Z" fill="#3873FF"/>
<path d="M56 90H72C72 92.9385 73.9999 95.5 76.8507 96.2127L82 97.5V100H46V97.5L51.1493 96.2127C54.0001 95.5 56 92.9385 56 90Z" fill="#3873FF"/>
<path fill-rule="evenodd" clip-rule="evenodd" d="M88 69H112V105H88V69ZM91 72H109V97.5H91V72ZM102.182 101.182C102.182 102.387 101.205 103.364 99.9999 103.364C98.7949 103.364 97.8181 102.387 97.8181 101.182C97.8181 99.9768 98.7949 99 99.9999 99C101.205 99 102.182 99.9768 102.182 101.182Z" fill="#3873FF"/>
<path d="M122 56.5V115H88" stroke="#E2E2E2" stroke-width="3" stroke-linecap="round" stroke-linejoin="round"/>
<path fill-rule="evenodd" clip-rule="evenodd" d="M83 120C85.7614 120 88 117.761 88 115C88 112.239 85.7614 110 83 110C80.2386 110 78 112.239 78 115C78 117.761 80.2386 120 83 120Z" stroke="#E2E2E2" stroke-width="3"/>
<path fill-rule="evenodd" clip-rule="evenodd" d="M122 56C124.761 56 127 53.7614 127 51C127 48.2386 124.761 46 122 46C119.239 46 117 48.2386 117 51C117 53.7614 119.239 56 122 56Z" stroke="#E2E2E2" stroke-width="3"/>
<path d="M18 82.5V24H52" stroke="#E2E2E2" stroke-width="3" stroke-linecap="round" stroke-linejoin="round"/>
<path fill-rule="evenodd" clip-rule="evenodd" d="M57 19C54.2386 19 52 21.2386 52 24C52 26.7614 54.2386 29 57 29C59.7614 29 62 26.7614 62 24C62 21.2386 59.7614 19 57 19Z" stroke="#E2E2E2" stroke-width="3"/>
<path fill-rule="evenodd" clip-rule="evenodd" d="M18 83C15.2386 83 13 85.2386 13 88C13 90.7614 15.2386 93 18 93C20.7614 93 23 90.7614 23 88C23 85.2386 20.7614 83 18 83Z" stroke="#E2E2E2" stroke-width="3"/>
<rect opacity="0.1" x="19" y="71.8762" width="10.381" height="10.381" transform="rotate(-90 19 71.8762)" fill="#3CE1CD"/>
<rect opacity="0.1" x="13" y="56.381" width="10.381" height="10.381" transform="rotate(-90 13 56.381)" fill="#3CE1CD"/>
<rect opacity="0.4" x="32.4951" y="71.8762" width="10.381" height="10.381" transform="rotate(-90 32.4951 71.8762)" fill="#3CE1CD"/>
<rect opacity="0.4" x="26.4951" y="56.381" width="10.381" height="10.381" transform="rotate(-90 26.4951 56.381)" fill="#3CE1CD"/>
<rect opacity="0.7" x="45.9905" y="71.8762" width="10.381" height="10.381" transform="rotate(-90 45.9905 71.8762)" fill="#3CE1CD"/>
<rect opacity="0.7" x="39.9905" y="56.381" width="10.381" height="10.381" transform="rotate(-90 39.9905 56.381)" fill="#3CE1CD"/>
<rect x="59.4858" y="71.8762" width="10.381" height="10.381" transform="rotate(-90 59.4858 71.8762)" fill="#3CE1CD"/>
<rect x="53.4858" y="56.381" width="10.381" height="10.381" transform="rotate(-90 53.4858 56.381)" fill="#3CE1CD"/>
<defs>
<linearGradient id="paint0_linear_627_2148" x1="63.5" y1="37" x2="63.5" y2="80" gradientUnits="userSpaceOnUse">
<stop stop-color="#3873FF"/>
<stop offset="1" stop-color="#3873FF" stop-opacity="0"/>
</linearGradient>
</defs>
</svg>
