<svg width="502" height="502" viewBox="0 0 502 502" fill="none" xmlns="http://www.w3.org/2000/svg">
<path d="M396.078 162.648C396.078 162.648 399.843 111.886 347.193 78.0409C294.544 44.1961 219.334 50.7723 168.562 77.0972C117.789 103.422 125.319 163.552 108.432 202.095C91.5448 240.639 52.961 247.275 55.7823 299.875C58.6035 352.474 91.5146 377.906 129.074 386.369C166.634 394.833 201.473 384.492 235.318 390.124C269.162 395.757 316.17 407.052 370.697 385.426C425.224 363.799 435.565 304.573 428.045 257.566C420.525 210.559 396.078 193.641 396.078 162.648Z" fill="#90CAF9"/>
<path opacity="0.7" d="M396.078 162.648C396.078 162.648 399.843 111.886 347.193 78.0409C294.544 44.1961 219.334 50.7723 168.562 77.0972C117.789 103.422 125.319 163.552 108.432 202.095C91.5448 240.639 52.961 247.275 55.7823 299.875C58.6035 352.474 91.5146 377.906 129.074 386.369C166.634 394.833 201.473 384.492 235.318 390.124C269.162 395.757 316.17 407.052 370.697 385.426C425.224 363.799 435.565 304.573 428.045 257.566C420.525 210.559 396.078 193.641 396.078 162.648Z" fill="white"/>
<path d="M345.476 362.564H151.925L167.206 347.816H330.196L345.476 362.564Z" fill="white" stroke="#252466" stroke-linecap="round" stroke-linejoin="round"/>
<path d="M323.971 353.508C323.971 356.52 288.921 359 245.659 359C202.396 359 167.347 356.541 167.347 353.508C167.347 350.476 202.396 348.007 245.659 348.007C288.921 348.007 323.971 350.466 323.971 353.508Z" fill="#90CAF9"/>
<path opacity="0.5" d="M323.971 353.508C323.971 356.52 288.921 359 245.659 359C202.396 359 167.347 356.541 167.347 353.508C167.347 350.476 202.396 348.007 245.659 348.007C288.921 348.007 323.971 350.466 323.971 353.508Z" fill="white"/>
<path d="M345.476 362.565H151.925V376.229H345.476V362.565Z" fill="#263238" stroke="#252466" stroke-linecap="round" stroke-linejoin="round"/>
<path d="M359.171 390.968H138.231L151.925 376.229H345.476L359.171 390.968Z" fill="white" stroke="#252466" stroke-linecap="round" stroke-linejoin="round"/>
<path d="M359.131 390.968H138.271V405.345H359.131V390.968Z" fill="#263238" stroke="#252466" stroke-linecap="round" stroke-linejoin="round"/>
<path d="M246.562 216.794V124.898H281.532V86.2336" stroke="#252466" stroke-miterlimit="10"/>
<path d="M260.227 124.466V86.2336" stroke="#252466" stroke-miterlimit="10"/>
<path d="M249.173 231.442H410.174V208.551H440.947" stroke="#252466" stroke-miterlimit="10"/>
<path d="M241.281 230.649H88.1813V206.191H55.0393" stroke="#252466" stroke-miterlimit="10"/>
<path d="M215.238 61.7661V96.4944H195.509V118.582H219.976V192.768" stroke="#252466" stroke-miterlimit="10"/>
<path d="M323.358 164.355V114.637H336.772V93.3318H347.826" stroke="#252466" stroke-miterlimit="10"/>
<path d="M160.791 159.626V121.745L149.737 110.691V83.071" stroke="#252466" stroke-miterlimit="10"/>
<path d="M353.348 181.724H380.968V163.572H399.12V153.311H414.903" stroke="#252466" stroke-miterlimit="10"/>
<path d="M133.161 188.039H103.964V165.148H62.9308" stroke="#252466" stroke-miterlimit="10"/>
<path d="M159.998 311.933V332.455H146.584V355.346H107.91" stroke="#252466" stroke-miterlimit="10"/>
<path d="M307.575 315.095V336.4H338.348V327.726H347.033V345.868H373.87" stroke="#252466" stroke-miterlimit="10"/>
<path d="M283.781 86.2335C283.779 86.6779 283.645 87.1117 283.397 87.4803C283.148 87.8488 282.796 88.1355 282.385 88.3041C281.974 88.4728 281.522 88.5159 281.087 88.428C280.651 88.3401 280.251 88.1251 279.938 87.8102C279.624 87.4953 279.411 87.0946 279.325 86.6586C279.239 86.2226 279.284 85.7709 279.455 85.3606C279.625 84.9502 279.914 84.5996 280.283 84.3529C280.653 84.1062 281.087 83.9746 281.532 83.9745C281.828 83.9745 282.121 84.033 282.395 84.1467C282.668 84.2603 282.916 84.4269 283.125 84.6368C283.334 84.8467 283.5 85.0958 283.612 85.3698C283.725 85.6438 283.782 85.9374 283.781 86.2335Z" fill="#263238" stroke="#252466" stroke-linecap="round" stroke-linejoin="round"/>
<path d="M262.556 86.2335C262.554 86.6779 262.421 87.1117 262.172 87.4803C261.924 87.8488 261.572 88.1355 261.161 88.3041C260.75 88.4728 260.298 88.5159 259.862 88.428C259.427 88.3401 259.027 88.1251 258.713 87.8102C258.4 87.4953 258.187 87.0946 258.101 86.6586C258.015 86.2226 258.06 85.7709 258.23 85.3606C258.401 84.9502 258.689 84.5996 259.059 84.3529C259.428 84.1062 259.863 83.9746 260.307 83.9745C260.603 83.9745 260.897 84.033 261.17 84.1467C261.444 84.2603 261.692 84.4269 261.901 84.6368C262.11 84.8467 262.275 85.0958 262.388 85.3698C262.5 85.6438 262.557 85.9374 262.556 86.2335Z" fill="#263238" stroke="#252466" stroke-linecap="round" stroke-linejoin="round"/>
<path d="M217.507 61.1135C217.507 61.5607 217.374 61.9979 217.125 62.3696C216.877 62.7413 216.523 63.0308 216.11 63.2015C215.696 63.3722 215.242 63.4163 214.803 63.3283C214.365 63.2403 213.962 63.0242 213.647 62.7073C213.331 62.3903 213.117 61.9869 213.031 61.548C212.945 61.1091 212.991 60.6546 213.163 60.242C213.336 59.8294 213.627 59.4773 214 59.2303C214.373 58.9833 214.81 58.8525 215.258 58.8545C215.554 58.8545 215.847 58.913 216.121 59.0266C216.394 59.1403 216.643 59.3068 216.852 59.5167C217.06 59.7266 217.226 59.9757 217.338 60.2498C217.451 60.5238 217.508 60.8173 217.507 61.1135Z" fill="#263238" stroke="#252466" stroke-linecap="round" stroke-linejoin="round"/>
<path d="M152.006 81.9364C152.004 82.3808 151.87 82.8146 151.622 83.1831C151.373 83.5516 151.022 83.8383 150.61 84.007C150.199 84.1757 149.747 84.2188 149.312 84.1309C148.876 84.043 148.477 83.828 148.163 83.5131C147.849 83.1982 147.636 82.7974 147.55 82.3615C147.464 81.9255 147.509 81.4738 147.68 81.0634C147.85 80.6531 148.139 80.3024 148.508 80.0558C148.878 79.8091 149.312 79.6774 149.757 79.6774C150.053 79.6774 150.346 79.7359 150.62 79.8496C150.893 79.9632 151.142 80.1298 151.351 80.3397C151.56 80.5496 151.725 80.7987 151.837 81.0727C151.95 81.3467 152.007 81.6402 152.006 81.9364Z" fill="#263238" stroke="#252466" stroke-linecap="round" stroke-linejoin="round"/>
<path d="M65.1797 165.148C65.1817 165.596 65.0507 166.034 64.8032 166.407C64.5557 166.78 64.203 167.071 63.7899 167.243C63.3767 167.415 62.9216 167.461 62.4825 167.374C62.0434 167.287 61.6399 167.072 61.3234 166.755C61.0069 166.439 60.7915 166.035 60.7047 165.596C60.6178 165.157 60.6634 164.702 60.8356 164.289C61.0078 163.876 61.2989 163.523 61.672 163.276C62.045 163.028 62.4831 162.897 62.9308 162.899C63.5272 162.899 64.0993 163.136 64.521 163.558C64.9428 163.979 65.1797 164.552 65.1797 165.148Z" fill="#263238" stroke="#252466" stroke-linecap="round" stroke-linejoin="round"/>
<path d="M57.3586 206.121C57.3586 206.568 57.2261 207.005 56.9779 207.376C56.7296 207.748 56.3768 208.037 55.9641 208.208C55.5513 208.379 55.0971 208.424 54.6589 208.337C54.2207 208.25 53.8181 208.034 53.5022 207.719C53.1863 207.403 52.9711 207 52.884 206.562C52.7968 206.124 52.8416 205.67 53.0125 205.257C53.1835 204.844 53.4731 204.491 53.8445 204.243C54.216 203.995 54.6528 203.862 55.0996 203.862C55.6987 203.862 56.2733 204.1 56.6969 204.524C57.1206 204.948 57.3586 205.522 57.3586 206.121Z" fill="#263238" stroke="#252466" stroke-linecap="round" stroke-linejoin="round"/>
<path d="M110.36 354.914C110.36 355.361 110.227 355.798 109.978 356.17C109.73 356.542 109.376 356.831 108.963 357.002C108.55 357.173 108.095 357.217 107.656 357.129C107.218 357.041 106.815 356.825 106.5 356.508C106.184 356.191 105.97 355.787 105.884 355.349C105.798 354.91 105.844 354.455 106.017 354.043C106.189 353.63 106.48 353.278 106.853 353.031C107.226 352.784 107.664 352.653 108.111 352.655C108.407 352.655 108.7 352.714 108.974 352.827C109.247 352.941 109.496 353.107 109.705 353.317C109.914 353.527 110.079 353.776 110.191 354.05C110.304 354.324 110.361 354.618 110.36 354.914Z" fill="#263238" stroke="#252466" stroke-linecap="round" stroke-linejoin="round"/>
<path d="M377.263 345.426C377.265 345.873 377.134 346.311 376.887 346.684C376.64 347.057 376.288 347.348 375.876 347.52C375.463 347.693 375.008 347.739 374.57 347.653C374.131 347.567 373.727 347.353 373.41 347.037C373.093 346.722 372.877 346.319 372.789 345.881C372.701 345.442 372.745 344.987 372.916 344.574C373.087 344.161 373.376 343.807 373.748 343.559C374.12 343.31 374.557 343.177 375.004 343.177C375.3 343.176 375.594 343.233 375.868 343.346C376.142 343.458 376.391 343.623 376.601 343.832C376.811 344.041 376.977 344.29 377.091 344.563C377.205 344.837 377.263 345.13 377.263 345.426Z" fill="#263238" stroke="#252466" stroke-linecap="round" stroke-linejoin="round"/>
<path d="M444.34 208.109C444.34 208.554 444.208 208.989 443.961 209.359C443.714 209.728 443.363 210.017 442.952 210.187C442.541 210.357 442.089 210.402 441.653 210.315C441.216 210.228 440.816 210.014 440.501 209.699C440.187 209.385 439.972 208.984 439.886 208.548C439.799 208.112 439.843 207.659 440.014 207.248C440.184 206.838 440.472 206.486 440.842 206.239C441.212 205.992 441.647 205.86 442.091 205.86C442.688 205.86 443.26 206.097 443.682 206.519C444.103 206.941 444.34 207.513 444.34 208.109Z" fill="#263238" stroke="#252466" stroke-linecap="round" stroke-linejoin="round"/>
<path d="M418.216 152.829C418.216 153.274 418.084 153.709 417.837 154.078C417.59 154.448 417.239 154.736 416.828 154.907C416.417 155.077 415.965 155.121 415.529 155.035C415.092 154.948 414.692 154.734 414.377 154.419C414.063 154.105 413.848 153.704 413.762 153.268C413.675 152.831 413.719 152.379 413.89 151.968C414.06 151.557 414.348 151.206 414.718 150.959C415.088 150.712 415.522 150.58 415.967 150.58C416.564 150.58 417.136 150.817 417.558 151.239C417.979 151.66 418.216 152.232 418.216 152.829Z" fill="#263238" stroke="#252466" stroke-linecap="round" stroke-linejoin="round"/>
<path d="M351.531 93.2716C351.531 93.7164 351.399 94.1512 351.152 94.5211C350.904 94.8909 350.553 95.1791 350.142 95.3494C349.731 95.5196 349.279 95.5641 348.843 95.4773C348.407 95.3906 348.006 95.1764 347.691 94.8619C347.377 94.5473 347.163 94.1466 347.076 93.7104C346.989 93.2741 347.034 92.8219 347.204 92.411C347.374 92 347.662 91.6488 348.032 91.4017C348.402 91.1545 348.837 91.0226 349.282 91.0226C349.878 91.0226 350.45 91.2596 350.872 91.6813C351.294 92.1031 351.531 92.6751 351.531 93.2716Z" fill="#263238" stroke="#252466" stroke-linecap="round" stroke-linejoin="round"/>
<path d="M276.02 331.822V312.244H217.105V331.822C217.087 338.223 214.876 344.424 210.84 349.392L208.26 352.585H284.845L282.275 349.392C278.239 344.425 276.031 338.222 276.02 331.822Z" fill="white"/>
<mask id="mask0_774_10051" style="mask-type:luminance" maskUnits="userSpaceOnUse" x="208" y="312" width="77" height="41">
<path d="M276.02 331.822V312.244H217.105V331.822C217.087 338.223 214.876 344.424 210.84 349.392L208.26 352.585H284.845L282.275 349.392C278.239 344.425 276.031 338.222 276.02 331.822Z" fill="white"/>
</mask>
<g mask="url(#mask0_774_10051)">
<path d="M213.491 345.537H279.634C277.267 341.353 276.022 336.629 276.02 331.822V312.244H217.105V331.822C217.103 336.629 215.857 341.353 213.491 345.537Z" fill="#90CAF9"/>
<path opacity="0.3" d="M213.491 345.537H279.634C277.267 341.353 276.022 336.629 276.02 331.822V312.244H217.105V331.822C217.103 336.629 215.857 341.353 213.491 345.537Z" fill="white"/>
<path d="M213.491 324.894H279.634C277.267 320.711 276.022 315.986 276.02 311.18V291.602H217.105V311.18C217.103 315.986 215.857 320.711 213.491 324.894Z" fill="#263238"/>
</g>
<path d="M276.02 331.822V312.244H217.105V331.822C217.087 338.223 214.876 344.424 210.84 349.392L208.26 352.585H284.845L282.275 349.392C278.239 344.425 276.031 338.222 276.02 331.822Z" stroke="#252466" stroke-linecap="round" stroke-linejoin="round"/>
<path d="M356.43 144.566H136.695C131.993 144.566 128.181 148.378 128.181 153.08V309.895C128.181 314.597 131.993 318.409 136.695 318.409H356.43C361.132 318.409 364.944 314.597 364.944 309.895V153.08C364.944 148.378 361.132 144.566 356.43 144.566Z" fill="#263238" stroke="#252466" stroke-linecap="round" stroke-linejoin="round"/>
<path d="M128.181 291.391H364.944V309.895C364.944 312.153 364.047 314.318 362.45 315.915C360.854 317.512 358.688 318.409 356.43 318.409H136.695C134.437 318.409 132.271 317.512 130.674 315.915C129.078 314.318 128.181 312.153 128.181 309.895V291.391Z" fill="white" stroke="#252466" stroke-linecap="round" stroke-linejoin="round"/>
<path d="M353.026 155.389H140.088V278.208H353.026V155.389Z" fill="white" stroke="#252466" stroke-linecap="round" stroke-linejoin="round"/>
<path d="M250.93 309.232C250.948 308.365 250.707 307.511 250.238 306.781C249.769 306.051 249.094 305.478 248.297 305.133C247.501 304.789 246.62 304.689 245.767 304.847C244.914 305.006 244.127 305.414 243.508 306.021C242.888 306.628 242.463 307.406 242.287 308.256C242.111 309.105 242.192 309.988 242.52 310.791C242.847 311.595 243.407 312.282 244.127 312.766C244.847 313.25 245.695 313.509 246.562 313.509C247.708 313.52 248.812 313.075 249.631 312.274C250.449 311.472 250.917 310.378 250.93 309.232Z" fill="#263238" stroke="#252466" stroke-linecap="round" stroke-linejoin="round"/>
<path d="M284.865 352.615H208.27V356.109H284.865V352.615Z" fill="white" stroke="#252466" stroke-linecap="round" stroke-linejoin="round"/>
<path d="M246.884 149.014C236.181 159.054 208.732 169.094 176.794 190.469C176.794 190.469 178.802 262.757 246.884 302.224V149.014Z" fill="#90CAF9" stroke="#252466" stroke-linecap="round" stroke-linejoin="round"/>
<path d="M246.884 149.014C257.596 159.054 285.036 169.094 316.983 190.469C316.983 190.469 314.975 262.757 246.884 302.224V149.014Z" fill="#263238" stroke="#252466" stroke-linecap="round" stroke-linejoin="round"/>
<path d="M246.884 155.168C233.932 164.144 211.553 172.688 181.935 192.507C181.935 192.507 183.792 259.474 246.884 296.08C309.985 259.474 311.842 192.507 311.842 192.507C282.224 172.688 259.916 164.144 246.884 155.168Z" fill="#263238" stroke="#252466" stroke-linecap="round" stroke-linejoin="round"/>
<path d="M311.842 192.507C282.224 172.698 259.916 164.144 246.884 155.168V296.08C309.985 259.474 311.842 192.507 311.842 192.507Z" fill="#90CAF9" stroke="#252466" stroke-linecap="round" stroke-linejoin="round"/>
<path d="M365.677 227.958H127.448V243.38H365.677V227.958Z" fill="#263238" stroke="#252466" stroke-linecap="round" stroke-linejoin="round"/>
<path d="M132.137 230.408C132.143 230.725 132.054 231.036 131.882 231.303C131.711 231.569 131.463 231.779 131.172 231.904C130.881 232.03 130.559 232.066 130.248 232.007C129.936 231.949 129.649 231.8 129.422 231.578C129.196 231.356 129.041 231.071 128.977 230.761C128.913 230.45 128.943 230.128 129.063 229.834C129.183 229.541 129.387 229.29 129.65 229.113C129.913 228.936 130.223 228.842 130.54 228.842C130.748 228.839 130.954 228.878 131.147 228.955C131.34 229.032 131.516 229.147 131.664 229.293C131.813 229.438 131.931 229.612 132.012 229.803C132.093 229.995 132.135 230.2 132.137 230.408Z" fill="white"/>
<path d="M129.626 231.271C129.801 231.455 130.027 231.583 130.274 231.637C130.522 231.692 130.78 231.672 131.016 231.579C131.252 231.487 131.455 231.326 131.599 231.117C131.744 230.908 131.822 230.662 131.825 230.408C131.822 230.107 131.707 229.817 131.504 229.595C130.841 230.11 130.213 230.67 129.626 231.271Z" fill="#263238"/>
<path d="M138.402 230.408C138.41 230.727 138.322 231.042 138.151 231.311C137.979 231.581 137.731 231.793 137.438 231.92C137.145 232.048 136.821 232.086 136.507 232.028C136.193 231.971 135.903 231.821 135.674 231.598C135.445 231.375 135.288 231.089 135.223 230.777C135.158 230.464 135.187 230.139 135.308 229.843C135.428 229.547 135.634 229.294 135.899 229.116C136.164 228.937 136.476 228.842 136.795 228.842C137.003 228.839 137.21 228.877 137.404 228.955C137.597 229.032 137.774 229.147 137.923 229.292C138.072 229.438 138.191 229.611 138.273 229.802C138.355 229.994 138.399 230.2 138.402 230.408Z" fill="white"/>
<path d="M135.881 231.271C136.056 231.455 136.282 231.583 136.529 231.637C136.777 231.692 137.035 231.672 137.271 231.579C137.507 231.487 137.71 231.326 137.854 231.117C137.999 230.908 138.077 230.662 138.08 230.408C138.077 230.107 137.962 229.817 137.759 229.595C137.098 230.113 136.471 230.673 135.881 231.271Z" fill="#263238"/>
<path d="M144.656 230.408C144.624 230.811 144.442 231.187 144.145 231.461C143.848 231.735 143.459 231.887 143.055 231.887C142.651 231.887 142.262 231.735 141.965 231.461C141.668 231.187 141.486 230.811 141.454 230.408C141.486 230.005 141.668 229.629 141.965 229.355C142.262 229.081 142.651 228.928 143.055 228.928C143.459 228.928 143.848 229.081 144.145 229.355C144.442 229.629 144.624 230.005 144.656 230.408Z" fill="white"/>
<path d="M142.136 231.271C142.256 231.395 142.4 231.494 142.558 231.561C142.717 231.628 142.888 231.663 143.06 231.663C143.226 231.664 143.391 231.633 143.545 231.57C143.699 231.508 143.839 231.416 143.957 231.3C144.076 231.183 144.17 231.044 144.235 230.891C144.3 230.738 144.334 230.574 144.335 230.408C144.336 230.106 144.221 229.815 144.014 229.595C143.353 230.113 142.726 230.673 142.136 231.271Z" fill="#263238"/>
<path d="M150.911 230.408C150.917 230.725 150.829 231.036 150.657 231.303C150.485 231.569 150.238 231.779 149.947 231.904C149.656 232.03 149.334 232.066 149.022 232.007C148.711 231.949 148.424 231.8 148.197 231.578C147.971 231.356 147.816 231.071 147.752 230.761C147.688 230.45 147.718 230.128 147.837 229.834C147.957 229.541 148.162 229.29 148.425 229.113C148.688 228.936 148.998 228.842 149.315 228.842C149.523 228.839 149.729 228.878 149.922 228.955C150.115 229.032 150.291 229.147 150.439 229.293C150.587 229.438 150.705 229.612 150.787 229.803C150.868 229.995 150.91 230.2 150.911 230.408Z" fill="white"/>
<path d="M148.391 231.271C148.567 231.454 148.794 231.58 149.041 231.634C149.289 231.688 149.547 231.667 149.783 231.575C150.019 231.483 150.223 231.323 150.368 231.115C150.513 230.907 150.594 230.661 150.6 230.408C150.597 230.107 150.482 229.817 150.279 229.595C149.612 230.11 148.982 230.67 148.391 231.271Z" fill="#263238"/>
<path d="M157.166 230.408C157.172 230.725 157.084 231.036 156.912 231.303C156.74 231.569 156.493 231.779 156.202 231.904C155.911 232.03 155.589 232.066 155.277 232.007C154.966 231.949 154.678 231.8 154.452 231.578C154.226 231.356 154.071 231.071 154.007 230.761C153.943 230.45 153.972 230.128 154.092 229.834C154.212 229.541 154.417 229.29 154.68 229.113C154.943 228.936 155.253 228.842 155.57 228.842C155.778 228.839 155.984 228.878 156.177 228.955C156.37 229.032 156.546 229.147 156.694 229.293C156.842 229.438 156.96 229.612 157.041 229.803C157.122 229.995 157.165 230.2 157.166 230.408Z" fill="white"/>
<path d="M154.616 231.271C154.736 231.395 154.88 231.493 155.038 231.56C155.197 231.627 155.368 231.662 155.54 231.663C155.707 231.666 155.873 231.635 156.028 231.573C156.183 231.512 156.324 231.42 156.444 231.303C156.563 231.186 156.658 231.047 156.724 230.894C156.789 230.74 156.824 230.575 156.825 230.408C156.821 230.107 156.707 229.817 156.504 229.595C155.839 230.113 155.209 230.673 154.616 231.271Z" fill="#263238"/>
<path d="M163.421 230.408C163.427 230.725 163.339 231.036 163.167 231.303C162.995 231.569 162.748 231.779 162.457 231.904C162.166 232.03 161.844 232.066 161.532 232.007C161.221 231.949 160.933 231.8 160.707 231.578C160.481 231.356 160.326 231.071 160.262 230.761C160.198 230.45 160.227 230.128 160.347 229.834C160.467 229.541 160.672 229.29 160.935 229.113C161.198 228.936 161.508 228.842 161.825 228.842C162.033 228.839 162.239 228.878 162.432 228.955C162.625 229.032 162.8 229.147 162.949 229.293C163.097 229.438 163.215 229.612 163.296 229.803C163.377 229.995 163.42 230.2 163.421 230.408Z" fill="white"/>
<path d="M160.911 231.271C161.086 231.455 161.312 231.583 161.559 231.637C161.807 231.692 162.065 231.672 162.301 231.579C162.537 231.487 162.74 231.326 162.884 231.117C163.028 230.908 163.107 230.662 163.11 230.408C163.107 230.107 162.992 229.817 162.789 229.595C162.125 230.11 161.498 230.67 160.911 231.271Z" fill="#263238"/>
<path d="M169.676 230.408C169.684 230.727 169.597 231.042 169.425 231.311C169.253 231.581 169.005 231.793 168.713 231.92C168.42 232.048 168.096 232.086 167.782 232.028C167.467 231.971 167.177 231.821 166.949 231.598C166.72 231.375 166.563 231.089 166.498 230.777C166.432 230.464 166.462 230.139 166.582 229.843C166.702 229.547 166.908 229.294 167.173 229.116C167.438 228.937 167.75 228.842 168.07 228.842C168.278 228.839 168.485 228.877 168.678 228.955C168.872 229.032 169.048 229.147 169.197 229.292C169.346 229.438 169.465 229.611 169.548 229.802C169.63 229.994 169.673 230.2 169.676 230.408Z" fill="white"/>
<path d="M167.166 231.271C167.341 231.455 167.566 231.583 167.814 231.637C168.062 231.692 168.32 231.672 168.556 231.579C168.792 231.487 168.995 231.326 169.139 231.117C169.283 230.908 169.362 230.662 169.365 230.408C169.361 230.107 169.247 229.817 169.044 229.595C168.382 230.113 167.755 230.673 167.166 231.271Z" fill="#263238"/>
<path d="M175.941 230.408C175.947 230.725 175.858 231.036 175.687 231.303C175.515 231.569 175.268 231.779 174.977 231.904C174.686 232.03 174.364 232.066 174.052 232.007C173.74 231.949 173.453 231.8 173.227 231.578C173.001 231.356 172.846 231.071 172.782 230.761C172.717 230.45 172.747 230.128 172.867 229.834C172.987 229.541 173.192 229.29 173.455 229.113C173.718 228.936 174.028 228.842 174.345 228.842C174.553 228.839 174.759 228.878 174.952 228.955C175.145 229.032 175.32 229.147 175.469 229.293C175.617 229.438 175.735 229.612 175.816 229.803C175.897 229.995 175.94 230.2 175.941 230.408Z" fill="white"/>
<path d="M173.421 231.271C173.541 231.395 173.684 231.494 173.843 231.561C174.002 231.628 174.172 231.663 174.345 231.663C174.511 231.664 174.676 231.633 174.83 231.57C174.984 231.508 175.124 231.416 175.242 231.3C175.361 231.183 175.455 231.044 175.52 230.891C175.584 230.738 175.618 230.574 175.62 230.408C175.62 230.106 175.505 229.815 175.298 229.595C174.637 230.113 174.01 230.673 173.421 231.271Z" fill="#263238"/>
<path d="M182.196 230.408C182.202 230.725 182.113 231.036 181.942 231.303C181.77 231.569 181.523 231.779 181.232 231.904C180.94 232.03 180.619 232.066 180.307 232.007C179.995 231.949 179.708 231.8 179.482 231.578C179.256 231.356 179.101 231.071 179.036 230.761C178.972 230.45 179.002 230.128 179.122 229.834C179.242 229.541 179.446 229.29 179.71 229.113C179.973 228.936 180.283 228.842 180.6 228.842C180.807 228.839 181.014 228.878 181.207 228.955C181.4 229.032 181.575 229.147 181.724 229.293C181.872 229.438 181.99 229.612 182.071 229.803C182.152 229.995 182.195 230.2 182.196 230.408Z" fill="white"/>
<path d="M179.716 231.271C179.892 231.454 180.118 231.58 180.366 231.634C180.614 231.688 180.872 231.667 181.108 231.575C181.344 231.483 181.548 231.323 181.693 231.115C181.838 230.907 181.919 230.661 181.925 230.408C181.921 230.107 181.807 229.817 181.604 229.595C180.939 230.113 180.309 230.673 179.716 231.271Z" fill="#263238"/>
<path d="M188.451 230.408C188.457 230.725 188.368 231.036 188.197 231.303C188.025 231.569 187.778 231.779 187.487 231.904C187.195 232.03 186.874 232.066 186.562 232.007C186.25 231.949 185.963 231.8 185.737 231.578C185.511 231.356 185.355 231.071 185.291 230.761C185.227 230.45 185.257 230.128 185.377 229.834C185.497 229.541 185.701 229.29 185.965 229.113C186.228 228.936 186.538 228.842 186.855 228.842C187.062 228.839 187.269 228.878 187.462 228.955C187.654 229.032 187.83 229.147 187.979 229.293C188.127 229.438 188.245 229.612 188.326 229.803C188.407 229.995 188.45 230.2 188.451 230.408Z" fill="white"/>
<path d="M185.931 231.271C186.051 231.395 186.195 231.493 186.353 231.56C186.512 231.627 186.682 231.662 186.854 231.663C187.021 231.666 187.187 231.635 187.342 231.573C187.498 231.512 187.639 231.42 187.758 231.303C187.878 231.186 187.973 231.047 188.039 230.894C188.104 230.74 188.138 230.575 188.14 230.408C188.136 230.107 188.022 229.817 187.818 229.595C187.154 230.113 186.524 230.673 185.931 231.271Z" fill="#263238"/>
<path d="M194.706 230.408C194.712 230.725 194.623 231.036 194.452 231.303C194.28 231.569 194.033 231.779 193.742 231.904C193.45 232.03 193.128 232.066 192.817 232.007C192.505 231.949 192.218 231.8 191.992 231.578C191.765 231.356 191.61 231.071 191.546 230.761C191.482 230.45 191.512 230.128 191.632 229.834C191.752 229.541 191.956 229.29 192.219 229.113C192.483 228.936 192.792 228.842 193.109 228.842C193.317 228.839 193.524 228.878 193.716 228.955C193.909 229.032 194.085 229.147 194.233 229.293C194.382 229.438 194.5 229.612 194.581 229.803C194.662 229.995 194.704 230.2 194.706 230.408Z" fill="white"/>
<path d="M192.196 231.271C192.371 231.455 192.596 231.583 192.844 231.637C193.091 231.692 193.35 231.672 193.586 231.579C193.822 231.487 194.025 231.326 194.169 231.117C194.313 230.908 194.391 230.662 194.395 230.408C194.391 230.107 194.277 229.817 194.073 229.595C193.412 230.113 192.785 230.673 192.196 231.271Z" fill="#263238"/>
<path d="M200.971 230.408C200.979 230.728 200.891 231.043 200.719 231.312C200.547 231.582 200.298 231.794 200.005 231.921C199.712 232.049 199.387 232.086 199.073 232.028C198.758 231.97 198.468 231.819 198.24 231.595C198.011 231.371 197.855 231.084 197.791 230.77C197.727 230.457 197.758 230.132 197.88 229.836C198.001 229.54 198.209 229.288 198.475 229.111C198.741 228.933 199.055 228.84 199.374 228.842C199.582 228.839 199.789 228.878 199.981 228.955C200.174 229.032 200.35 229.147 200.498 229.293C200.647 229.438 200.765 229.612 200.846 229.803C200.927 229.995 200.969 230.2 200.971 230.408Z" fill="white"/>
<path d="M198.451 231.271C198.625 231.455 198.851 231.583 199.099 231.637C199.346 231.692 199.605 231.672 199.841 231.579C200.077 231.487 200.28 231.326 200.424 231.117C200.568 230.908 200.646 230.662 200.649 230.408C200.65 230.106 200.535 229.815 200.328 229.595C199.667 230.113 199.04 230.673 198.451 231.271Z" fill="#263238"/>
<path d="M207.226 230.408C207.232 230.725 207.143 231.036 206.971 231.303C206.8 231.569 206.552 231.779 206.261 231.904C205.97 232.03 205.648 232.066 205.337 232.007C205.025 231.949 204.738 231.8 204.512 231.578C204.285 231.356 204.13 231.071 204.066 230.761C204.002 230.45 204.032 230.128 204.152 229.834C204.272 229.541 204.476 229.29 204.739 229.113C205.002 228.936 205.312 228.842 205.629 228.842C205.837 228.839 206.043 228.878 206.236 228.955C206.429 229.032 206.605 229.147 206.753 229.293C206.902 229.438 207.02 229.612 207.101 229.803C207.182 229.995 207.224 230.2 207.226 230.408Z" fill="white"/>
<path d="M204.706 231.271C204.882 231.454 205.108 231.58 205.356 231.634C205.603 231.688 205.861 231.667 206.098 231.575C206.334 231.483 206.537 231.323 206.683 231.115C206.828 230.907 206.909 230.661 206.914 230.408C206.911 230.107 206.797 229.817 206.593 229.595C205.927 230.11 205.296 230.67 204.706 231.271Z" fill="#263238"/>
<path d="M213.481 230.408C213.487 230.725 213.398 231.036 213.226 231.303C213.055 231.569 212.807 231.779 212.516 231.904C212.225 232.03 211.903 232.066 211.592 232.007C211.28 231.949 210.993 231.8 210.767 231.578C210.54 231.356 210.385 231.071 210.321 230.761C210.257 230.45 210.287 230.128 210.407 229.834C210.527 229.541 210.731 229.29 210.994 229.113C211.257 228.936 211.567 228.842 211.884 228.842C212.092 228.839 212.298 228.878 212.491 228.955C212.684 229.032 212.86 229.147 213.008 229.293C213.157 229.438 213.275 229.612 213.356 229.803C213.437 229.995 213.479 230.2 213.481 230.408Z" fill="white"/>
<path d="M210.961 231.271C211.081 231.395 211.224 231.493 211.383 231.56C211.542 231.627 211.712 231.662 211.884 231.663C212.051 231.666 212.217 231.635 212.372 231.573C212.527 231.512 212.669 231.42 212.788 231.303C212.908 231.186 213.003 231.047 213.068 230.894C213.134 230.74 213.168 230.575 213.169 230.408C213.166 230.107 213.052 229.817 212.848 229.595C212.184 230.113 211.553 230.673 210.961 231.271Z" fill="#263238"/>
<path d="M132.137 240.358C132.145 240.675 132.058 240.987 131.887 241.255C131.717 241.523 131.47 241.734 131.179 241.861C130.889 241.988 130.566 242.025 130.254 241.968C129.942 241.911 129.654 241.762 129.426 241.541C129.199 241.319 129.043 241.035 128.978 240.724C128.913 240.414 128.942 240.091 129.062 239.797C129.181 239.502 129.386 239.251 129.649 239.073C129.913 238.896 130.223 238.802 130.54 238.801C130.747 238.799 130.953 238.837 131.145 238.914C131.337 238.99 131.512 239.104 131.661 239.249C131.809 239.393 131.927 239.566 132.009 239.756C132.091 239.946 132.134 240.151 132.137 240.358Z" fill="white"/>
<path d="M129.626 241.231C129.744 241.355 129.886 241.454 130.043 241.521C130.2 241.589 130.369 241.623 130.54 241.623C130.708 241.624 130.874 241.592 131.029 241.529C131.184 241.467 131.325 241.374 131.445 241.256C131.564 241.139 131.659 240.999 131.724 240.845C131.79 240.691 131.824 240.525 131.825 240.358C131.819 240.06 131.705 239.774 131.504 239.554C130.841 240.07 130.213 240.63 129.626 241.231Z" fill="#263238"/>
<path d="M138.401 240.358C138.411 240.677 138.326 240.993 138.155 241.263C137.985 241.534 137.738 241.748 137.445 241.877C137.153 242.006 136.828 242.045 136.514 241.989C136.199 241.933 135.908 241.784 135.678 241.562C135.448 241.339 135.29 241.053 135.224 240.74C135.158 240.427 135.187 240.102 135.307 239.805C135.427 239.509 135.632 239.255 135.898 239.076C136.163 238.897 136.475 238.802 136.795 238.801C137.214 238.796 137.618 238.957 137.919 239.248C138.22 239.54 138.394 239.939 138.401 240.358Z" fill="white"/>
<path d="M135.881 241.231C135.999 241.355 136.141 241.454 136.298 241.521C136.455 241.589 136.624 241.623 136.795 241.623C136.963 241.624 137.129 241.592 137.284 241.529C137.439 241.467 137.58 241.374 137.7 241.256C137.819 241.139 137.914 240.999 137.979 240.845C138.045 240.691 138.079 240.525 138.08 240.358C138.074 240.06 137.96 239.774 137.759 239.554C137.098 240.072 136.471 240.633 135.881 241.231Z" fill="#263238"/>
<path d="M144.656 240.358C144.666 240.678 144.58 240.993 144.41 241.264C144.239 241.535 143.991 241.749 143.698 241.878C143.405 242.007 143.08 242.046 142.765 241.989C142.45 241.932 142.159 241.782 141.929 241.558C141.7 241.335 141.543 241.048 141.478 240.734C141.413 240.42 141.443 240.095 141.564 239.798C141.686 239.502 141.893 239.249 142.16 239.071C142.426 238.893 142.74 238.8 143.06 238.801C143.267 238.799 143.473 238.837 143.665 238.914C143.857 238.99 144.032 239.104 144.181 239.249C144.329 239.393 144.447 239.566 144.529 239.756C144.61 239.946 144.654 240.151 144.656 240.358Z" fill="white"/>
<path d="M142.136 241.231C142.312 241.415 142.538 241.543 142.787 241.598C143.035 241.652 143.294 241.631 143.531 241.537C143.767 241.443 143.97 241.281 144.113 241.07C144.257 240.86 144.334 240.612 144.335 240.358C144.334 240.059 144.219 239.772 144.014 239.554C143.353 240.072 142.726 240.633 142.136 241.231Z" fill="#263238"/>
<path d="M150.911 240.358C150.919 240.675 150.833 240.987 150.662 241.255C150.492 241.523 150.245 241.734 149.954 241.861C149.663 241.988 149.341 242.025 149.029 241.968C148.717 241.911 148.428 241.762 148.201 241.541C147.974 241.319 147.818 241.035 147.753 240.724C147.688 240.414 147.717 240.091 147.837 239.797C147.956 239.502 148.161 239.251 148.424 239.073C148.687 238.896 148.998 238.802 149.315 238.801C149.522 238.799 149.727 238.837 149.92 238.914C150.112 238.99 150.287 239.104 150.436 239.249C150.584 239.393 150.702 239.566 150.784 239.756C150.865 239.946 150.909 240.151 150.911 240.358Z" fill="white"/>
<path d="M148.391 241.231C148.568 241.414 148.795 241.54 149.044 241.594C149.292 241.648 149.551 241.626 149.788 241.533C150.024 241.439 150.228 241.278 150.372 241.069C150.517 240.859 150.596 240.612 150.6 240.358C150.594 240.06 150.48 239.774 150.279 239.554C149.612 240.07 148.982 240.63 148.391 241.231Z" fill="#263238"/>
<path d="M157.166 240.358C157.174 240.675 157.087 240.987 156.917 241.255C156.746 241.523 156.5 241.734 156.209 241.861C155.918 241.988 155.596 242.025 155.284 241.968C154.972 241.911 154.683 241.762 154.456 241.541C154.229 241.319 154.073 241.035 154.008 240.724C153.943 240.414 153.972 240.091 154.092 239.797C154.211 239.502 154.416 239.251 154.679 239.073C154.942 238.896 155.252 238.802 155.57 238.801C155.777 238.799 155.982 238.837 156.175 238.914C156.367 238.99 156.542 239.104 156.69 239.249C156.839 239.393 156.957 239.566 157.039 239.756C157.12 239.946 157.164 240.151 157.166 240.358Z" fill="white"/>
<path d="M154.616 241.231C154.736 241.355 154.88 241.453 155.038 241.52C155.197 241.587 155.368 241.622 155.54 241.623C155.707 241.624 155.873 241.592 156.028 241.529C156.184 241.467 156.325 241.374 156.444 241.256C156.564 241.139 156.659 240.999 156.724 240.845C156.789 240.691 156.824 240.525 156.825 240.358C156.819 240.06 156.705 239.774 156.504 239.554C155.839 240.072 155.209 240.633 154.616 241.231Z" fill="#263238"/>
<path d="M163.421 240.358C163.429 240.675 163.342 240.987 163.172 241.255C163.001 241.523 162.755 241.734 162.464 241.861C162.173 241.988 161.851 242.025 161.539 241.968C161.226 241.911 160.938 241.762 160.711 241.541C160.484 241.319 160.328 241.035 160.263 240.724C160.198 240.414 160.227 240.091 160.347 239.797C160.466 239.502 160.671 239.251 160.934 239.073C161.197 238.896 161.507 238.802 161.825 238.801C162.032 238.799 162.237 238.837 162.43 238.914C162.622 238.99 162.797 239.104 162.945 239.249C163.094 239.393 163.212 239.566 163.294 239.756C163.375 239.946 163.419 240.151 163.421 240.358Z" fill="white"/>
<path d="M160.911 241.231C161.029 241.355 161.17 241.454 161.328 241.521C161.485 241.589 161.654 241.623 161.825 241.623C161.992 241.624 162.158 241.592 162.313 241.529C162.469 241.467 162.61 241.374 162.729 241.256C162.849 241.139 162.944 240.999 163.009 240.845C163.074 240.691 163.109 240.525 163.11 240.358C163.104 240.06 162.99 239.774 162.789 239.554C162.125 240.07 161.498 240.63 160.911 241.231Z" fill="#263238"/>
<path d="M169.676 240.358C169.686 240.677 169.6 240.993 169.43 241.263C169.26 241.534 169.012 241.748 168.72 241.877C168.427 242.006 168.103 242.045 167.788 241.989C167.473 241.933 167.182 241.784 166.953 241.562C166.723 241.339 166.565 241.053 166.499 240.74C166.433 240.427 166.461 240.102 166.581 239.805C166.701 239.509 166.907 239.255 167.172 239.076C167.437 238.897 167.75 238.802 168.07 238.801C168.489 238.796 168.893 238.957 169.194 239.248C169.495 239.54 169.668 239.939 169.676 240.358Z" fill="white"/>
<path d="M167.166 241.231C167.284 241.355 167.425 241.454 167.582 241.521C167.74 241.589 167.909 241.623 168.08 241.623C168.247 241.624 168.413 241.592 168.568 241.529C168.724 241.467 168.865 241.374 168.984 241.256C169.104 241.139 169.199 240.999 169.264 240.845C169.329 240.691 169.364 240.525 169.365 240.358C169.359 240.06 169.245 239.774 169.044 239.554C168.382 240.072 167.755 240.633 167.166 241.231Z" fill="#263238"/>
<path d="M175.941 240.358C175.949 240.675 175.862 240.987 175.692 241.255C175.521 241.523 175.275 241.734 174.984 241.861C174.693 241.988 174.371 242.025 174.059 241.968C173.746 241.911 173.458 241.762 173.231 241.541C173.004 241.319 172.847 241.035 172.783 240.724C172.718 240.414 172.747 240.091 172.866 239.797C172.986 239.502 173.19 239.251 173.454 239.073C173.717 238.896 174.027 238.802 174.345 238.801C174.552 238.799 174.757 238.837 174.949 238.914C175.142 238.99 175.317 239.104 175.465 239.249C175.613 239.393 175.732 239.566 175.813 239.756C175.895 239.946 175.938 240.151 175.941 240.358Z" fill="white"/>
<path d="M173.421 241.231C173.596 241.415 173.823 241.543 174.071 241.598C174.32 241.652 174.579 241.631 174.815 241.537C175.052 241.443 175.255 241.281 175.398 241.07C175.541 240.86 175.619 240.612 175.62 240.358C175.619 240.059 175.504 239.772 175.298 239.554C174.637 240.072 174.01 240.633 173.421 241.231Z" fill="#263238"/>
<path d="M182.196 240.358C182.204 240.675 182.117 240.987 181.947 241.255C181.776 241.523 181.53 241.734 181.239 241.861C180.948 241.988 180.626 242.025 180.314 241.968C180.001 241.911 179.713 241.762 179.486 241.541C179.258 241.319 179.102 241.035 179.037 240.724C178.973 240.414 179.002 240.091 179.121 239.797C179.241 239.502 179.445 239.251 179.709 239.073C179.972 238.896 180.282 238.802 180.6 238.801C180.807 238.799 181.012 238.837 181.204 238.914C181.397 238.99 181.572 239.104 181.72 239.249C181.868 239.393 181.987 239.566 182.068 239.756C182.15 239.946 182.193 240.151 182.196 240.358Z" fill="white"/>
<path d="M179.716 241.231C179.893 241.414 180.12 241.54 180.368 241.594C180.617 241.648 180.876 241.626 181.112 241.533C181.349 241.439 181.552 241.278 181.697 241.069C181.842 240.859 181.921 240.612 181.925 240.358C181.919 240.06 181.805 239.774 181.604 239.554C180.939 240.072 180.309 240.633 179.716 241.231Z" fill="#263238"/>
<path d="M188.451 240.358C188.459 240.675 188.372 240.987 188.202 241.255C188.031 241.523 187.785 241.734 187.494 241.861C187.203 241.988 186.881 242.025 186.568 241.968C186.256 241.911 185.968 241.762 185.741 241.541C185.513 241.319 185.357 241.035 185.292 240.724C185.227 240.414 185.257 240.091 185.376 239.797C185.496 239.502 185.7 239.251 185.964 239.073C186.227 238.896 186.537 238.802 186.855 238.801C187.062 238.799 187.267 238.837 187.459 238.914C187.652 238.99 187.827 239.104 187.975 239.249C188.123 239.393 188.242 239.566 188.323 239.756C188.405 239.946 188.448 240.151 188.451 240.358Z" fill="white"/>
<path d="M185.931 241.231C186.051 241.355 186.195 241.453 186.353 241.52C186.512 241.587 186.682 241.622 186.854 241.623C187.022 241.624 187.188 241.592 187.343 241.529C187.498 241.467 187.64 241.374 187.759 241.256C187.878 241.139 187.973 240.999 188.039 240.845C188.104 240.691 188.138 240.525 188.14 240.358C188.134 240.06 188.02 239.774 187.818 239.554C187.154 240.072 186.524 240.633 185.931 241.231Z" fill="#263238"/>
<path d="M194.706 240.358C194.714 240.675 194.627 240.987 194.456 241.255C194.286 241.523 194.04 241.734 193.749 241.861C193.458 241.988 193.136 242.025 192.823 241.968C192.511 241.911 192.223 241.762 191.996 241.541C191.768 241.319 191.612 241.035 191.547 240.724C191.482 240.414 191.512 240.091 191.631 239.797C191.751 239.502 191.955 239.251 192.218 239.073C192.482 238.896 192.792 238.802 193.109 238.801C193.316 238.799 193.522 238.837 193.714 238.914C193.906 238.99 194.082 239.104 194.23 239.249C194.378 239.393 194.496 239.566 194.578 239.756C194.66 239.946 194.703 240.151 194.706 240.358Z" fill="white"/>
<path d="M192.196 241.231C192.313 241.355 192.455 241.454 192.612 241.521C192.769 241.589 192.939 241.623 193.109 241.623C193.277 241.624 193.443 241.592 193.598 241.529C193.753 241.467 193.895 241.374 194.014 241.256C194.133 241.139 194.228 240.999 194.294 240.845C194.359 240.691 194.393 240.525 194.395 240.358C194.389 240.06 194.275 239.774 194.073 239.554C193.412 240.072 192.785 240.633 192.196 241.231Z" fill="#263238"/>
<path d="M200.971 240.358C200.981 240.678 200.895 240.993 200.724 241.264C200.553 241.535 200.305 241.749 200.012 241.878C199.719 242.007 199.394 242.046 199.079 241.989C198.764 241.932 198.473 241.782 198.244 241.558C198.014 241.335 197.857 241.048 197.792 240.734C197.727 240.42 197.757 240.095 197.879 239.798C198 239.502 198.208 239.249 198.474 239.071C198.741 238.893 199.054 238.8 199.374 238.801C199.581 238.799 199.787 238.837 199.979 238.914C200.171 238.99 200.347 239.104 200.495 239.249C200.643 239.393 200.761 239.566 200.843 239.756C200.925 239.946 200.968 240.151 200.971 240.358Z" fill="white"/>
<path d="M198.451 241.231C198.626 241.415 198.853 241.543 199.101 241.598C199.35 241.652 199.609 241.631 199.845 241.537C200.082 241.443 200.284 241.281 200.428 241.07C200.571 240.86 200.648 240.612 200.649 240.358C200.648 240.059 200.534 239.772 200.328 239.554C199.667 240.072 199.04 240.633 198.451 241.231Z" fill="#263238"/>
<path d="M207.226 240.358C207.234 240.675 207.147 240.987 206.976 241.255C206.806 241.523 206.559 241.734 206.269 241.861C205.978 241.988 205.655 242.025 205.343 241.968C205.031 241.911 204.743 241.762 204.515 241.541C204.288 241.319 204.132 241.035 204.067 240.724C204.002 240.414 204.031 240.091 204.151 239.797C204.271 239.502 204.475 239.251 204.738 239.073C205.002 238.896 205.312 238.802 205.629 238.801C205.836 238.799 206.042 238.837 206.234 238.914C206.426 238.99 206.602 239.104 206.75 239.249C206.898 239.393 207.016 239.566 207.098 239.756C207.18 239.946 207.223 240.151 207.226 240.358Z" fill="white"/>
<path d="M204.706 241.231C204.882 241.414 205.109 241.54 205.358 241.594C205.607 241.648 205.866 241.626 206.102 241.533C206.339 241.439 206.542 241.278 206.687 241.069C206.831 240.859 206.91 240.612 206.914 240.358C206.909 240.06 206.794 239.774 206.593 239.554C205.927 240.07 205.296 240.63 204.706 241.231Z" fill="#263238"/>
<path d="M213.481 240.358C213.489 240.675 213.402 240.987 213.231 241.255C213.061 241.523 212.814 241.734 212.523 241.861C212.233 241.988 211.91 242.025 211.598 241.968C211.286 241.911 210.998 241.762 210.77 241.541C210.543 241.319 210.387 241.035 210.322 240.724C210.257 240.414 210.286 240.091 210.406 239.797C210.525 239.502 210.73 239.251 210.993 239.073C211.257 238.896 211.567 238.802 211.884 238.801C212.091 238.799 212.297 238.837 212.489 238.914C212.681 238.99 212.856 239.104 213.005 239.249C213.153 239.393 213.271 239.566 213.353 239.756C213.435 239.946 213.478 240.151 213.481 240.358Z" fill="white"/>
<path d="M210.961 241.231C211.081 241.355 211.224 241.453 211.383 241.52C211.542 241.587 211.712 241.622 211.884 241.623C212.052 241.624 212.218 241.592 212.373 241.529C212.528 241.467 212.669 241.374 212.789 241.256C212.908 241.139 213.003 240.999 213.068 240.845C213.134 240.691 213.168 240.525 213.169 240.358C213.163 240.06 213.049 239.774 212.848 239.554C212.184 240.072 211.553 240.633 210.961 241.231Z" fill="#263238"/>
<path d="M282.807 230.408C282.813 230.725 282.724 231.036 282.553 231.303C282.381 231.569 282.134 231.779 281.843 231.904C281.551 232.03 281.23 232.066 280.918 232.007C280.606 231.949 280.319 231.8 280.093 231.578C279.866 231.356 279.711 231.071 279.647 230.761C279.583 230.45 279.613 230.128 279.733 229.834C279.853 229.541 280.057 229.29 280.321 229.113C280.584 228.936 280.893 228.842 281.21 228.842C281.418 228.839 281.625 228.878 281.818 228.955C282.01 229.032 282.186 229.147 282.334 229.293C282.483 229.438 282.601 229.612 282.682 229.803C282.763 229.995 282.805 230.2 282.807 230.408Z" fill="white"/>
<path d="M280.297 231.271C280.472 231.455 280.697 231.583 280.945 231.637C281.192 231.692 281.451 231.672 281.687 231.579C281.923 231.487 282.126 231.326 282.27 231.117C282.414 230.908 282.492 230.662 282.496 230.408C282.492 230.107 282.378 229.817 282.174 229.595C281.513 230.113 280.886 230.673 280.297 231.271Z" fill="#263238"/>
<path d="M289.072 230.408C289.08 230.728 288.992 231.043 288.82 231.312C288.648 231.582 288.399 231.794 288.106 231.921C287.813 232.049 287.488 232.086 287.174 232.028C286.859 231.97 286.569 231.819 286.341 231.595C286.113 231.371 285.956 231.084 285.892 230.77C285.828 230.457 285.859 230.132 285.981 229.836C286.102 229.54 286.31 229.288 286.576 229.111C286.842 228.933 287.156 228.84 287.475 228.842C287.683 228.839 287.89 228.878 288.082 228.955C288.275 229.032 288.451 229.147 288.599 229.293C288.748 229.438 288.866 229.612 288.947 229.803C289.028 229.995 289.07 230.2 289.072 230.408Z" fill="white"/>
<path d="M286.552 231.271C286.726 231.455 286.952 231.583 287.2 231.637C287.447 231.692 287.706 231.672 287.942 231.579C288.178 231.487 288.381 231.326 288.525 231.117C288.669 230.908 288.747 230.662 288.75 230.408C288.751 230.106 288.636 229.815 288.429 229.595C287.768 230.113 287.141 230.673 286.552 231.271Z" fill="#263238"/>
<path d="M295.327 230.408C295.333 230.725 295.244 231.036 295.072 231.303C294.901 231.569 294.653 231.779 294.362 231.904C294.071 232.03 293.749 232.066 293.438 232.007C293.126 231.949 292.839 231.8 292.613 231.578C292.386 231.356 292.231 231.071 292.167 230.761C292.103 230.45 292.133 230.128 292.253 229.834C292.373 229.541 292.577 229.29 292.84 229.113C293.103 228.936 293.413 228.842 293.73 228.842C293.938 228.839 294.144 228.878 294.337 228.955C294.53 229.032 294.706 229.147 294.854 229.293C295.003 229.438 295.121 229.612 295.202 229.803C295.283 229.995 295.325 230.2 295.327 230.408Z" fill="white"/>
<path d="M292.807 231.271C292.983 231.454 293.209 231.58 293.457 231.634C293.704 231.688 293.962 231.667 294.199 231.575C294.435 231.483 294.638 231.323 294.784 231.115C294.929 230.907 295.01 230.661 295.015 230.408C295.012 230.107 294.898 229.817 294.694 229.595C294.028 230.11 293.397 230.67 292.807 231.271Z" fill="#263238"/>
<path d="M301.582 230.408C301.588 230.725 301.499 231.036 301.327 231.303C301.156 231.569 300.908 231.779 300.617 231.904C300.326 232.03 300.004 232.066 299.693 232.007C299.381 231.949 299.094 231.8 298.868 231.578C298.641 231.356 298.486 231.071 298.422 230.761C298.358 230.45 298.388 230.128 298.508 229.834C298.628 229.541 298.832 229.29 299.095 229.113C299.358 228.936 299.668 228.842 299.985 228.842C300.193 228.839 300.399 228.878 300.592 228.955C300.785 229.032 300.961 229.147 301.109 229.293C301.258 229.438 301.376 229.612 301.457 229.803C301.538 229.995 301.58 230.2 301.582 230.408Z" fill="white"/>
<path d="M299.062 231.271C299.182 231.395 299.325 231.493 299.484 231.56C299.643 231.627 299.813 231.662 299.985 231.663C300.152 231.666 300.318 231.635 300.473 231.573C300.628 231.512 300.77 231.42 300.889 231.303C301.009 231.186 301.104 231.047 301.169 230.894C301.235 230.74 301.269 230.575 301.27 230.408C301.267 230.107 301.153 229.817 300.949 229.595C300.285 230.113 299.654 230.673 299.062 231.271Z" fill="#263238"/>
<path d="M307.836 230.408C307.842 230.725 307.754 231.036 307.582 231.303C307.41 231.569 307.163 231.779 306.872 231.904C306.581 232.03 306.259 232.066 305.948 232.007C305.636 231.949 305.349 231.8 305.122 231.578C304.896 231.356 304.741 231.071 304.677 230.761C304.613 230.45 304.643 230.128 304.763 229.834C304.882 229.541 305.087 229.29 305.35 229.113C305.613 228.936 305.923 228.842 306.24 228.842C306.448 228.839 306.654 228.878 306.847 228.955C307.04 229.032 307.216 229.147 307.364 229.293C307.513 229.438 307.631 229.612 307.712 229.803C307.793 229.995 307.835 230.2 307.836 230.408Z" fill="white"/>
<path d="M305.326 231.271C305.501 231.455 305.727 231.583 305.974 231.637C306.222 231.692 306.48 231.672 306.716 231.579C306.952 231.487 307.155 231.326 307.299 231.117C307.444 230.908 307.522 230.662 307.525 230.408C307.522 230.107 307.407 229.817 307.204 229.595C306.541 230.11 305.913 230.67 305.326 231.271Z" fill="#263238"/>
<path d="M314.101 230.408C314.109 230.727 314.022 231.042 313.85 231.311C313.679 231.581 313.431 231.793 313.138 231.92C312.845 232.048 312.521 232.086 312.207 232.028C311.893 231.971 311.603 231.821 311.374 231.598C311.145 231.375 310.988 231.089 310.923 230.777C310.858 230.464 310.887 230.139 311.007 229.843C311.128 229.547 311.334 229.294 311.599 229.116C311.864 228.937 312.176 228.842 312.495 228.842C312.703 228.839 312.91 228.877 313.104 228.955C313.297 229.032 313.474 229.147 313.623 229.292C313.772 229.438 313.891 229.611 313.973 229.802C314.055 229.994 314.099 230.2 314.101 230.408Z" fill="white"/>
<path d="M311.581 231.271C311.756 231.455 311.982 231.583 312.229 231.637C312.477 231.692 312.735 231.672 312.971 231.579C313.207 231.487 313.41 231.326 313.554 231.117C313.698 230.908 313.777 230.662 313.78 230.408C313.777 230.107 313.662 229.817 313.459 229.595C312.798 230.113 312.171 230.673 311.581 231.271Z" fill="#263238"/>
<path d="M320.356 230.408C320.364 230.728 320.277 231.043 320.105 231.312C319.933 231.582 319.684 231.794 319.391 231.921C319.097 232.049 318.773 232.086 318.458 232.028C318.144 231.97 317.854 231.819 317.625 231.595C317.397 231.371 317.241 231.084 317.177 230.77C317.113 230.457 317.143 230.132 317.265 229.836C317.387 229.54 317.594 229.288 317.861 229.111C318.127 228.933 318.44 228.84 318.76 228.842C318.968 228.839 319.174 228.878 319.367 228.955C319.56 229.032 319.736 229.147 319.884 229.293C320.032 229.438 320.151 229.612 320.232 229.803C320.313 229.995 320.355 230.2 320.356 230.408Z" fill="white"/>
<path d="M317.836 231.271C318.011 231.455 318.237 231.583 318.484 231.637C318.732 231.692 318.99 231.672 319.226 231.579C319.462 231.487 319.665 231.326 319.809 231.117C319.953 230.908 320.032 230.662 320.035 230.408C320.036 230.106 319.921 229.815 319.714 229.595C319.053 230.113 318.426 230.673 317.836 231.271Z" fill="#263238"/>
<path d="M326.611 230.408C326.617 230.725 326.529 231.036 326.357 231.303C326.185 231.569 325.938 231.779 325.647 231.904C325.356 232.03 325.034 232.066 324.722 232.007C324.411 231.949 324.123 231.8 323.897 231.578C323.671 231.356 323.516 231.071 323.452 230.761C323.388 230.45 323.417 230.128 323.537 229.834C323.657 229.541 323.862 229.29 324.125 229.113C324.388 228.936 324.698 228.842 325.015 228.842C325.223 228.839 325.429 228.878 325.622 228.955C325.815 229.032 325.991 229.147 326.139 229.293C326.287 229.438 326.405 229.612 326.486 229.803C326.568 229.995 326.61 230.2 326.611 230.408Z" fill="white"/>
<path d="M324.091 231.271C324.267 231.454 324.494 231.58 324.741 231.634C324.989 231.688 325.247 231.667 325.483 231.575C325.719 231.483 325.923 231.323 326.068 231.115C326.214 230.907 326.294 230.661 326.3 230.408C326.297 230.107 326.182 229.817 325.979 229.595C325.312 230.11 324.682 230.67 324.091 231.271Z" fill="#263238"/>
<path d="M332.866 230.408C332.872 230.725 332.784 231.036 332.612 231.303C332.44 231.569 332.193 231.779 331.902 231.904C331.611 232.03 331.289 232.066 330.977 232.007C330.666 231.949 330.378 231.8 330.152 231.578C329.926 231.356 329.771 231.071 329.707 230.761C329.643 230.45 329.672 230.128 329.792 229.834C329.912 229.541 330.117 229.29 330.38 229.113C330.643 228.936 330.953 228.842 331.27 228.842C331.478 228.839 331.684 228.878 331.877 228.955C332.07 229.032 332.246 229.147 332.394 229.293C332.542 229.438 332.66 229.612 332.741 229.803C332.823 229.995 332.865 230.2 332.866 230.408Z" fill="white"/>
<path d="M330.316 231.271C330.436 231.395 330.58 231.493 330.738 231.56C330.897 231.627 331.067 231.662 331.24 231.663C331.407 231.666 331.573 231.635 331.728 231.573C331.883 231.512 332.024 231.42 332.144 231.303C332.263 231.186 332.358 231.047 332.424 230.894C332.489 230.74 332.524 230.575 332.525 230.408C332.521 230.107 332.407 229.817 332.204 229.595C331.539 230.113 330.909 230.673 330.316 231.271Z" fill="#263238"/>
<path d="M339.121 230.408C339.127 230.725 339.039 231.036 338.867 231.303C338.695 231.569 338.448 231.779 338.157 231.904C337.866 232.03 337.544 232.066 337.232 232.007C336.921 231.949 336.633 231.8 336.407 231.578C336.181 231.356 336.026 231.071 335.962 230.761C335.898 230.45 335.927 230.128 336.047 229.834C336.167 229.541 336.372 229.29 336.635 229.113C336.898 228.936 337.208 228.842 337.525 228.842C337.733 228.839 337.939 228.878 338.132 228.955C338.325 229.032 338.5 229.147 338.649 229.293C338.797 229.438 338.915 229.612 338.996 229.803C339.077 229.995 339.12 230.2 339.121 230.408Z" fill="white"/>
<path d="M336.611 231.271C336.786 231.455 337.012 231.583 337.259 231.637C337.507 231.692 337.765 231.672 338.001 231.579C338.237 231.487 338.44 231.326 338.584 231.117C338.728 230.908 338.807 230.662 338.81 230.408C338.807 230.107 338.692 229.817 338.489 229.595C337.825 230.11 337.198 230.67 336.611 231.271Z" fill="#263238"/>
<path d="M345.376 230.408C345.384 230.727 345.297 231.042 345.125 231.311C344.953 231.581 344.705 231.793 344.413 231.92C344.12 232.048 343.796 232.086 343.482 232.028C343.167 231.971 342.877 231.821 342.649 231.598C342.42 231.375 342.263 231.089 342.198 230.777C342.132 230.464 342.162 230.139 342.282 229.843C342.402 229.547 342.608 229.294 342.873 229.116C343.138 228.937 343.45 228.842 343.77 228.842C343.978 228.839 344.185 228.877 344.378 228.955C344.572 229.032 344.748 229.147 344.897 229.292C345.046 229.438 345.165 229.611 345.248 229.802C345.33 229.994 345.373 230.2 345.376 230.408Z" fill="white"/>
<path d="M342.866 231.271C343.041 231.455 343.266 231.583 343.514 231.637C343.762 231.692 344.02 231.672 344.256 231.579C344.492 231.487 344.695 231.326 344.839 231.117C344.983 230.908 345.062 230.662 345.065 230.408C345.061 230.107 344.947 229.817 344.744 229.595C344.082 230.113 343.455 230.673 342.866 231.271Z" fill="#263238"/>
<path d="M351.641 230.408C351.647 230.725 351.558 231.036 351.387 231.303C351.215 231.569 350.968 231.779 350.677 231.904C350.386 232.03 350.064 232.066 349.752 232.007C349.44 231.949 349.153 231.8 348.927 231.578C348.701 231.356 348.546 231.071 348.482 230.761C348.417 230.45 348.447 230.128 348.567 229.834C348.687 229.541 348.892 229.29 349.155 229.113C349.418 228.936 349.728 228.842 350.045 228.842C350.252 228.839 350.459 228.878 350.652 228.955C350.845 229.032 351.02 229.147 351.169 229.293C351.317 229.438 351.435 229.612 351.516 229.803C351.597 229.995 351.64 230.2 351.641 230.408Z" fill="white"/>
<path d="M349.121 231.271C349.241 231.395 349.384 231.494 349.543 231.561C349.702 231.628 349.872 231.663 350.045 231.663C350.211 231.664 350.376 231.633 350.53 231.57C350.683 231.508 350.824 231.416 350.942 231.3C351.061 231.183 351.155 231.044 351.22 230.891C351.284 230.738 351.318 230.574 351.32 230.408C351.32 230.106 351.205 229.815 350.998 229.595C350.337 230.113 349.71 230.673 349.121 231.271Z" fill="#263238"/>
<path d="M357.896 230.408C357.902 230.725 357.813 231.036 357.642 231.303C357.47 231.569 357.223 231.779 356.932 231.904C356.641 232.03 356.319 232.066 356.007 232.007C355.695 231.949 355.408 231.8 355.182 231.578C354.956 231.356 354.801 231.071 354.736 230.761C354.672 230.45 354.702 230.128 354.822 229.834C354.942 229.541 355.146 229.29 355.41 229.113C355.673 228.936 355.983 228.842 356.3 228.842C356.507 228.839 356.714 228.878 356.907 228.955C357.1 229.032 357.275 229.147 357.424 229.293C357.572 229.438 357.69 229.612 357.771 229.803C357.852 229.995 357.895 230.2 357.896 230.408Z" fill="white"/>
<path d="M355.416 231.271C355.592 231.454 355.818 231.58 356.066 231.634C356.314 231.688 356.572 231.667 356.808 231.575C357.044 231.483 357.248 231.323 357.393 231.115C357.538 230.907 357.619 230.661 357.625 230.408C357.621 230.107 357.507 229.817 357.304 229.595C356.639 230.113 356.009 230.673 355.416 231.271Z" fill="#263238"/>
<path d="M364.151 230.408C364.157 230.725 364.068 231.036 363.897 231.303C363.725 231.569 363.478 231.779 363.187 231.904C362.895 232.03 362.574 232.066 362.262 232.007C361.95 231.949 361.663 231.8 361.437 231.578C361.21 231.356 361.055 231.071 360.991 230.761C360.927 230.45 360.957 230.128 361.077 229.834C361.197 229.541 361.401 229.29 361.665 229.113C361.928 228.936 362.237 228.842 362.554 228.842C362.762 228.839 362.969 228.878 363.162 228.955C363.354 229.032 363.53 229.147 363.678 229.293C363.827 229.438 363.945 229.612 364.026 229.803C364.107 229.995 364.15 230.2 364.151 230.408Z" fill="white"/>
<path d="M361.631 231.271C361.751 231.395 361.895 231.493 362.053 231.56C362.212 231.627 362.382 231.662 362.554 231.663C362.721 231.666 362.887 231.635 363.042 231.573C363.198 231.512 363.339 231.42 363.458 231.303C363.578 231.186 363.673 231.047 363.739 230.894C363.804 230.74 363.838 230.575 363.84 230.408C363.836 230.107 363.722 229.817 363.518 229.595C362.854 230.113 362.224 230.673 361.631 231.271Z" fill="#263238"/>
<path d="M282.807 240.358C282.815 240.675 282.728 240.987 282.557 241.255C282.387 241.523 282.14 241.734 281.85 241.861C281.559 241.988 281.237 242.025 280.924 241.968C280.612 241.911 280.324 241.762 280.097 241.541C279.869 241.319 279.713 241.035 279.648 240.724C279.583 240.414 279.612 240.091 279.732 239.797C279.852 239.502 280.056 239.251 280.319 239.073C280.583 238.896 280.893 238.802 281.21 238.801C281.417 238.799 281.623 238.837 281.815 238.914C282.007 238.99 282.183 239.104 282.331 239.249C282.479 239.393 282.597 239.566 282.679 239.756C282.761 239.946 282.804 240.151 282.807 240.358Z" fill="white"/>
<path d="M280.297 241.231C280.414 241.355 280.556 241.454 280.713 241.521C280.87 241.589 281.039 241.623 281.21 241.623C281.378 241.624 281.544 241.592 281.699 241.529C281.854 241.467 281.996 241.374 282.115 241.256C282.234 241.139 282.329 240.999 282.395 240.845C282.46 240.691 282.494 240.525 282.496 240.358C282.49 240.06 282.375 239.774 282.174 239.554C281.513 240.072 280.886 240.633 280.297 241.231Z" fill="#263238"/>
<path d="M289.072 240.358C289.082 240.678 288.996 240.993 288.825 241.264C288.654 241.535 288.406 241.749 288.113 241.878C287.82 242.007 287.495 242.046 287.18 241.989C286.865 241.932 286.574 241.782 286.345 241.558C286.115 241.335 285.958 241.048 285.893 240.734C285.828 240.42 285.858 240.095 285.98 239.798C286.101 239.502 286.309 239.249 286.575 239.071C286.842 238.893 287.155 238.8 287.475 238.801C287.682 238.799 287.888 238.837 288.08 238.914C288.272 238.99 288.448 239.104 288.596 239.249C288.744 239.393 288.862 239.566 288.944 239.756C289.026 239.946 289.069 240.151 289.072 240.358Z" fill="white"/>
<path d="M286.552 241.231C286.727 241.415 286.954 241.543 287.202 241.598C287.451 241.652 287.71 241.631 287.946 241.537C288.183 241.443 288.386 241.281 288.529 241.07C288.672 240.86 288.749 240.612 288.75 240.358C288.749 240.059 288.635 239.772 288.429 239.554C287.768 240.072 287.141 240.633 286.552 241.231Z" fill="#263238"/>
<path d="M295.327 240.358C295.335 240.675 295.248 240.987 295.077 241.255C294.907 241.523 294.66 241.734 294.369 241.861C294.079 241.988 293.756 242.025 293.444 241.968C293.132 241.911 292.844 241.762 292.616 241.541C292.389 241.319 292.233 241.035 292.168 240.724C292.103 240.414 292.132 240.091 292.252 239.797C292.372 239.502 292.576 239.251 292.839 239.073C293.103 238.896 293.413 238.802 293.73 238.801C293.937 238.799 294.143 238.837 294.335 238.914C294.527 238.99 294.703 239.104 294.851 239.249C294.999 239.393 295.117 239.566 295.199 239.756C295.281 239.946 295.324 240.151 295.327 240.358Z" fill="white"/>
<path d="M292.807 241.231C292.983 241.414 293.21 241.54 293.459 241.594C293.708 241.648 293.967 241.626 294.203 241.533C294.44 241.439 294.643 241.278 294.788 241.069C294.932 240.859 295.011 240.612 295.015 240.358C295.01 240.06 294.895 239.774 294.694 239.554C294.028 240.07 293.397 240.63 292.807 241.231Z" fill="#263238"/>
<path d="M301.582 240.358C301.59 240.675 301.503 240.987 301.332 241.255C301.162 241.523 300.915 241.734 300.625 241.861C300.334 241.988 300.011 242.025 299.699 241.968C299.387 241.911 299.099 241.762 298.871 241.541C298.644 241.319 298.488 241.035 298.423 240.724C298.358 240.414 298.387 240.091 298.507 239.797C298.627 239.502 298.831 239.251 299.094 239.073C299.358 238.896 299.668 238.802 299.985 238.801C300.192 238.799 300.398 238.837 300.59 238.914C300.782 238.99 300.958 239.104 301.106 239.249C301.254 239.393 301.372 239.566 301.454 239.756C301.536 239.946 301.579 240.151 301.582 240.358Z" fill="white"/>
<path d="M299.062 241.231C299.182 241.355 299.325 241.453 299.484 241.52C299.643 241.587 299.813 241.622 299.985 241.623C300.153 241.624 300.319 241.592 300.474 241.529C300.629 241.467 300.77 241.374 300.89 241.256C301.009 241.139 301.104 240.999 301.169 240.845C301.235 240.691 301.269 240.525 301.27 240.358C301.264 240.06 301.15 239.774 300.949 239.554C300.285 240.072 299.654 240.633 299.062 241.231Z" fill="#263238"/>
<path d="M307.836 240.358C307.844 240.675 307.758 240.987 307.587 241.255C307.417 241.523 307.17 241.734 306.879 241.861C306.588 241.988 306.266 242.025 305.954 241.968C305.642 241.911 305.354 241.762 305.126 241.541C304.899 241.319 304.743 241.035 304.678 240.724C304.613 240.414 304.642 240.091 304.762 239.797C304.881 239.502 305.086 239.251 305.349 239.073C305.613 238.896 305.923 238.802 306.24 238.801C306.447 238.799 306.653 238.837 306.845 238.914C307.037 238.99 307.212 239.104 307.361 239.249C307.509 239.393 307.627 239.566 307.709 239.756C307.791 239.946 307.834 240.151 307.836 240.358Z" fill="white"/>
<path d="M305.326 241.231C305.444 241.355 305.586 241.454 305.743 241.521C305.9 241.589 306.069 241.623 306.24 241.623C306.408 241.624 306.574 241.592 306.729 241.529C306.884 241.467 307.025 241.374 307.145 241.256C307.264 241.139 307.359 240.999 307.424 240.845C307.49 240.691 307.524 240.525 307.525 240.358C307.519 240.06 307.405 239.774 307.204 239.554C306.541 240.07 305.913 240.63 305.326 241.231Z" fill="#263238"/>
<path d="M314.101 240.358C314.111 240.677 314.026 240.993 313.855 241.263C313.685 241.534 313.438 241.748 313.145 241.877C312.853 242.006 312.528 242.045 312.214 241.989C311.899 241.933 311.608 241.784 311.378 241.562C311.148 241.339 310.99 241.053 310.924 240.74C310.858 240.427 310.887 240.102 311.007 239.805C311.127 239.509 311.332 239.255 311.598 239.076C311.863 238.897 312.175 238.802 312.495 238.801C312.914 238.796 313.318 238.957 313.619 239.248C313.92 239.54 314.094 239.939 314.101 240.358Z" fill="white"/>
<path d="M311.581 241.231C311.699 241.355 311.841 241.454 311.998 241.521C312.155 241.589 312.324 241.623 312.495 241.623C312.663 241.624 312.829 241.592 312.984 241.529C313.139 241.467 313.28 241.374 313.4 241.256C313.519 241.139 313.614 240.999 313.679 240.845C313.745 240.691 313.779 240.525 313.78 240.358C313.774 240.06 313.66 239.774 313.459 239.554C312.798 240.072 312.171 240.633 311.581 241.231Z" fill="#263238"/>
<path d="M320.356 240.358C320.366 240.678 320.28 240.993 320.11 241.264C319.939 241.535 319.691 241.749 319.398 241.878C319.105 242.007 318.78 242.046 318.465 241.989C318.15 241.932 317.859 241.782 317.629 241.558C317.4 241.335 317.243 241.048 317.178 240.734C317.113 240.42 317.143 240.095 317.265 239.798C317.386 239.502 317.593 239.249 317.86 239.071C318.126 238.893 318.44 238.8 318.76 238.801C318.967 238.799 319.173 238.837 319.365 238.914C319.557 238.99 319.732 239.104 319.881 239.249C320.029 239.393 320.147 239.566 320.229 239.756C320.31 239.946 320.354 240.151 320.356 240.358Z" fill="white"/>
<path d="M317.836 241.231C318.012 241.415 318.238 241.543 318.487 241.598C318.735 241.652 318.994 241.631 319.231 241.537C319.467 241.443 319.67 241.281 319.813 241.07C319.957 240.86 320.034 240.612 320.035 240.358C320.034 240.059 319.919 239.772 319.714 239.554C319.053 240.072 318.426 240.633 317.836 241.231Z" fill="#263238"/>
<path d="M326.611 240.358C326.619 240.675 326.532 240.987 326.362 241.255C326.192 241.523 325.945 241.734 325.654 241.861C325.363 241.988 325.041 242.025 324.729 241.968C324.417 241.911 324.128 241.762 323.901 241.541C323.674 241.319 323.518 241.035 323.453 240.724C323.388 240.414 323.417 240.091 323.537 239.797C323.656 239.502 323.861 239.251 324.124 239.073C324.387 238.896 324.697 238.802 325.015 238.801C325.222 238.799 325.427 238.837 325.62 238.914C325.812 238.99 325.987 239.104 326.135 239.249C326.284 239.393 326.402 239.566 326.484 239.756C326.565 239.946 326.609 240.151 326.611 240.358Z" fill="white"/>
<path d="M324.091 241.231C324.268 241.414 324.495 241.54 324.744 241.594C324.992 241.648 325.251 241.626 325.488 241.533C325.724 241.439 325.928 241.278 326.072 241.069C326.217 240.859 326.296 240.612 326.3 240.358C326.294 240.06 326.18 239.774 325.979 239.554C325.312 240.07 324.682 240.63 324.091 241.231Z" fill="#263238"/>
<path d="M332.866 240.358C332.874 240.675 332.787 240.987 332.617 241.255C332.446 241.523 332.2 241.734 331.909 241.861C331.618 241.988 331.296 242.025 330.984 241.968C330.671 241.911 330.383 241.762 330.156 241.541C329.929 241.319 329.773 241.035 329.708 240.724C329.643 240.414 329.672 240.091 329.792 239.797C329.911 239.502 330.116 239.251 330.379 239.073C330.642 238.896 330.952 238.802 331.27 238.801C331.477 238.799 331.682 238.837 331.875 238.914C332.067 238.99 332.242 239.104 332.39 239.249C332.539 239.393 332.657 239.566 332.739 239.756C332.82 239.946 332.864 240.151 332.866 240.358Z" fill="white"/>
<path d="M330.316 241.231C330.436 241.355 330.58 241.453 330.738 241.52C330.897 241.587 331.067 241.622 331.24 241.623C331.407 241.624 331.573 241.592 331.728 241.529C331.884 241.467 332.025 241.374 332.144 241.256C332.264 241.139 332.359 240.999 332.424 240.845C332.489 240.691 332.524 240.525 332.525 240.358C332.519 240.06 332.405 239.774 332.204 239.554C331.539 240.072 330.909 240.633 330.316 241.231Z" fill="#263238"/>
<path d="M339.121 240.358C339.129 240.675 339.042 240.987 338.872 241.255C338.701 241.523 338.455 241.734 338.164 241.861C337.873 241.988 337.551 242.025 337.239 241.968C336.926 241.911 336.638 241.762 336.411 241.541C336.184 241.319 336.028 241.035 335.963 240.724C335.898 240.414 335.927 240.091 336.046 239.797C336.166 239.502 336.371 239.251 336.634 239.073C336.897 238.896 337.207 238.802 337.525 238.801C337.732 238.799 337.937 238.837 338.13 238.914C338.322 238.99 338.497 239.104 338.645 239.249C338.794 239.393 338.912 239.566 338.993 239.756C339.075 239.946 339.118 240.151 339.121 240.358Z" fill="white"/>
<path d="M336.611 241.231C336.729 241.355 336.87 241.454 337.028 241.521C337.185 241.589 337.354 241.623 337.525 241.623C337.692 241.624 337.858 241.592 338.014 241.529C338.169 241.467 338.31 241.374 338.429 241.256C338.549 241.139 338.644 240.999 338.709 240.845C338.774 240.691 338.809 240.525 338.81 240.358C338.804 240.06 338.69 239.774 338.489 239.554C337.825 240.07 337.198 240.63 336.611 241.231Z" fill="#263238"/>
<path d="M345.376 240.358C345.386 240.677 345.3 240.993 345.13 241.263C344.96 241.534 344.713 241.748 344.42 241.877C344.127 242.006 343.803 242.045 343.488 241.989C343.173 241.933 342.882 241.784 342.653 241.562C342.423 241.339 342.265 241.053 342.199 240.74C342.133 240.427 342.161 240.102 342.281 239.805C342.401 239.509 342.607 239.255 342.872 239.076C343.137 238.897 343.45 238.802 343.77 238.801C344.189 238.796 344.593 238.957 344.894 239.248C345.195 239.54 345.368 239.939 345.376 240.358Z" fill="white"/>
<path d="M342.866 241.231C342.984 241.355 343.125 241.454 343.282 241.521C343.44 241.589 343.609 241.623 343.78 241.623C343.947 241.624 344.113 241.592 344.268 241.529C344.424 241.467 344.565 241.374 344.684 241.256C344.804 241.139 344.899 240.999 344.964 240.845C345.029 240.691 345.064 240.525 345.065 240.358C345.059 240.06 344.945 239.774 344.744 239.554C344.082 240.072 343.455 240.633 342.866 241.231Z" fill="#263238"/>
<path d="M351.641 240.358C351.649 240.675 351.562 240.987 351.392 241.255C351.221 241.523 350.975 241.734 350.684 241.861C350.393 241.988 350.071 242.025 349.758 241.968C349.446 241.911 349.158 241.762 348.931 241.541C348.703 241.319 348.547 241.035 348.482 240.724C348.418 240.414 348.447 240.091 348.566 239.797C348.686 239.502 348.89 239.251 349.154 239.073C349.417 238.896 349.727 238.802 350.045 238.801C350.252 238.799 350.457 238.837 350.649 238.914C350.842 238.99 351.017 239.104 351.165 239.249C351.313 239.393 351.432 239.566 351.513 239.756C351.595 239.946 351.638 240.151 351.641 240.358Z" fill="white"/>
<path d="M349.121 241.231C349.296 241.415 349.523 241.543 349.771 241.598C350.02 241.652 350.279 241.631 350.515 241.537C350.752 241.443 350.955 241.281 351.098 241.07C351.241 240.86 351.319 240.612 351.32 240.358C351.319 240.059 351.204 239.772 350.998 239.554C350.337 240.072 349.71 240.633 349.121 241.231Z" fill="#263238"/>
<path d="M357.896 240.358C357.904 240.675 357.817 240.987 357.647 241.255C357.476 241.523 357.23 241.734 356.939 241.861C356.648 241.988 356.326 242.025 356.014 241.968C355.701 241.911 355.413 241.762 355.186 241.541C354.958 241.319 354.802 241.035 354.737 240.724C354.673 240.414 354.702 240.091 354.821 239.797C354.941 239.502 355.145 239.251 355.409 239.073C355.672 238.896 355.982 238.802 356.3 238.801C356.507 238.799 356.712 238.837 356.904 238.914C357.097 238.99 357.272 239.104 357.42 239.249C357.568 239.393 357.687 239.566 357.768 239.756C357.85 239.946 357.893 240.151 357.896 240.358Z" fill="white"/>
<path d="M355.416 241.231C355.593 241.414 355.82 241.54 356.068 241.594C356.317 241.648 356.576 241.626 356.812 241.533C357.049 241.439 357.252 241.278 357.397 241.069C357.542 240.859 357.621 240.612 357.625 240.358C357.619 240.06 357.505 239.774 357.304 239.554C356.639 240.072 356.009 240.633 355.416 241.231Z" fill="#263238"/>
<path d="M364.151 240.358C364.159 240.675 364.072 240.987 363.902 241.255C363.731 241.523 363.485 241.734 363.194 241.861C362.903 241.988 362.581 242.025 362.268 241.968C361.956 241.911 361.668 241.762 361.441 241.541C361.213 241.319 361.057 241.035 360.992 240.724C360.927 240.414 360.957 240.091 361.076 239.797C361.196 239.502 361.4 239.251 361.664 239.073C361.927 238.896 362.237 238.802 362.554 238.801C362.761 238.799 362.967 238.837 363.159 238.914C363.351 238.99 363.527 239.104 363.675 239.249C363.823 239.393 363.942 239.566 364.023 239.756C364.105 239.946 364.148 240.151 364.151 240.358Z" fill="white"/>
<path d="M361.631 241.231C361.751 241.355 361.895 241.453 362.053 241.52C362.212 241.587 362.382 241.622 362.554 241.623C362.722 241.624 362.888 241.592 363.043 241.529C363.198 241.467 363.34 241.374 363.459 241.256C363.578 241.139 363.673 240.999 363.739 240.845C363.804 240.691 363.838 240.525 363.84 240.358C363.834 240.06 363.72 239.774 363.518 239.554C362.854 240.072 362.224 240.633 361.631 241.231Z" fill="#263238"/>
<path d="M271.492 222.687H223.089C222.038 222.687 221.028 222.275 220.277 221.539C219.526 220.804 219.094 219.803 219.073 218.752V196.423C219.073 181.192 231.733 168.792 247.295 168.792C262.857 168.792 275.528 181.192 275.528 196.423V218.752C275.507 219.806 275.072 220.81 274.316 221.547C273.561 222.283 272.547 222.693 271.492 222.687ZM227.105 214.856H267.466V196.423C267.466 191.07 265.34 185.937 261.555 182.153C257.77 178.368 252.637 176.242 247.285 176.242C241.933 176.242 236.8 178.368 233.016 182.153C229.231 185.937 227.105 191.07 227.105 196.423V214.856Z" fill="white" stroke="#252466" stroke-linecap="round" stroke-linejoin="round"/>
<path d="M277.696 211.924H216.071V262.907H277.696V211.924Z" fill="#90CAF9" stroke="#252466" stroke-linecap="round" stroke-linejoin="round"/>
<path d="M253.299 233.099C253.232 231.364 252.496 229.722 251.244 228.518C249.993 227.314 248.324 226.642 246.587 226.642C244.851 226.642 243.182 227.314 241.931 228.518C240.679 229.722 239.943 231.364 239.876 233.099C239.881 234.292 240.212 235.461 240.833 236.48C241.454 237.5 242.342 238.33 243.4 238.882L242.275 250.458H250.9L249.775 238.882C250.833 238.33 251.721 237.5 252.342 236.48C252.963 235.461 253.294 234.292 253.299 233.099Z" fill="#263238" stroke="#252466" stroke-linecap="round" stroke-linejoin="round"/>
<path d="M386.038 438.748C412.376 438.748 433.728 434.028 433.728 428.206C433.728 422.384 412.376 417.664 386.038 417.664C359.7 417.664 338.348 422.384 338.348 428.206C338.348 434.028 359.7 438.748 386.038 438.748Z" fill="#90CAF9"/>
<path opacity="0.5" d="M386.038 438.748C412.376 438.748 433.728 434.028 433.728 428.206C433.728 422.384 412.376 417.664 386.038 417.664C359.7 417.664 338.348 422.384 338.348 428.206C338.348 434.028 359.7 438.748 386.038 438.748Z" fill="white"/>
<path d="M361.099 417.423C361.099 417.423 349.533 423.929 349.533 427.061C349.533 430.194 356.671 428.266 361.34 426.057C366.008 423.849 369.713 422.202 369.713 417.865C369.713 413.528 361.099 417.423 361.099 417.423Z" fill="#90CAF9" stroke="#252466" stroke-miterlimit="10"/>
<path d="M416.469 417.423C416.469 417.423 428.035 423.929 428.035 427.061C428.035 430.194 420.897 428.266 416.228 426.057C411.56 423.849 407.855 422.202 407.855 417.865C407.855 413.528 416.469 417.423 416.469 417.423Z" fill="#90CAF9" stroke="#252466" stroke-miterlimit="10"/>
<path d="M365.777 310.929L360.848 418.668C361.529 419.229 362.318 419.646 363.165 419.895C364.012 420.143 364.901 420.218 365.777 420.114C367.307 419.887 368.704 419.117 369.713 417.945L386.45 330.005H389.893L407.624 419.592C408.683 420.178 409.86 420.521 411.068 420.596C412.785 420.596 415.495 418.427 415.495 418.427L409.833 310.999L365.777 310.929Z" fill="#263238" stroke="#252466" stroke-miterlimit="10"/>
<path d="M383.006 245.639L360.607 254.785L366.51 306.832H409.331L417.212 252.857L392.845 245.157L383.006 245.639Z" fill="#90CAF9" stroke="#252466" stroke-miterlimit="10"/>
<path d="M385.466 253.098L388.167 257.436L383.739 294.784L389.15 302.736L393.829 294.062L390.134 256.954L393.337 251.904L388.658 249.855L385.466 253.098Z" fill="#263238" stroke="#252466" stroke-miterlimit="10"/>
<path d="M388.658 249.855L385.064 256.01L378.659 247.476L382.243 243.209L388.658 249.855Z" fill="#90CAF9" stroke="#252466" stroke-miterlimit="10"/>
<path d="M388.658 249.855L393.016 256.632L398.267 246.974L395.194 243.078L388.658 249.855Z" fill="#90CAF9" stroke="#252466" stroke-miterlimit="10"/>
<path d="M379.964 264.423H364.874V269.564L372.424 272.455L379.964 269.243V264.423Z" fill="#90CAF9" stroke="#252466" stroke-miterlimit="10"/>
<path d="M410.154 264.423H395.064V269.564L402.604 272.455L410.154 269.243V264.423Z" fill="#90CAF9" stroke="#252466" stroke-miterlimit="10"/>
<path d="M409.833 305.869H365.777V310.929H409.833V305.869Z" fill="#263238" stroke="#252466" stroke-miterlimit="10"/>
<path d="M365.034 309.965L357.404 313.097C357.279 315.278 357.444 317.466 357.896 319.603C358.639 322.495 359.623 328.76 360.356 329.965C361.089 331.169 364.793 333.579 365.285 332.856C365.777 332.133 368.237 310.929 368.237 310.929L365.034 309.965Z" fill="#263238" stroke="#252466" stroke-miterlimit="10"/>
<path d="M382.243 234.424V243.209L388.658 249.855L395.195 243.078V234.293L382.243 234.424Z" fill="white" stroke="#252466" stroke-miterlimit="10"/>
<path d="M377.765 226.271C377.765 226.271 376.61 223.631 375.837 225.267C375.064 226.904 375.968 229.404 377.122 230.408C377.972 231.024 379.024 231.293 380.064 231.161L379.422 227.396L377.765 226.271Z" fill="white" stroke="#252466" stroke-miterlimit="10"/>
<path d="M398.648 226.271C398.648 226.271 399.803 223.631 400.576 225.267C401.349 226.904 400.445 229.404 399.291 230.408C398.438 231.024 397.383 231.294 396.339 231.161L396.982 227.396L398.648 226.271Z" fill="white" stroke="#252466" stroke-miterlimit="10"/>
<path d="M379.944 208.832C379.944 208.832 374.552 211.091 374.552 214.856C374.552 218.621 375.325 222.888 376.61 224.525C377.896 226.161 378.91 227.286 378.91 227.286L379.171 221.884L382.885 215.489C382.885 215.489 389.04 219.374 392.112 219.374C393.83 219.389 395.545 219.265 397.243 219.003L398.397 225.398L400.064 220.76V216.493C400.064 216.493 403.136 213.601 402.494 211.724C401.851 209.846 391.45 203.943 385.064 205.449C378.679 206.955 379.944 208.832 379.944 208.832Z" fill="#263238" stroke="#252466" stroke-miterlimit="10"/>
<path d="M377.374 221.502C377.374 221.502 378.91 230.91 380.195 233.42C381.885 236.205 383.956 238.74 386.349 240.95C387.243 241.572 390.576 241.07 391.861 241.07C393.146 241.07 396.881 233.54 397.494 232.165C398.106 230.789 398.498 218.992 398.498 218.992L397.373 216.864C397.373 216.864 391.861 218.25 387.504 216.493C385.139 215.645 383.023 214.22 381.349 212.346C381.349 212.346 380.968 216.613 379.422 219.123C377.876 221.633 377.374 221.502 377.374 221.502Z" fill="white" stroke="#252466" stroke-miterlimit="10"/>
<path d="M387.243 222.506C385.693 221.697 383.972 221.266 382.223 221.251C380.722 221.192 379.228 221.491 377.865 222.125C377.865 222.125 377.865 226.392 379.281 228.028C380.697 229.665 384.793 229.153 385.948 227.777C387.102 226.402 387.243 222.506 387.243 222.506Z" fill="#263238" stroke="#252466" stroke-miterlimit="10"/>
<path d="M389.04 222.506C390.59 221.697 392.311 221.266 394.06 221.251C395.561 221.192 397.055 221.491 398.417 222.125C398.417 222.125 398.417 226.392 397.002 228.028C395.586 229.665 391.49 229.153 390.345 227.777C389.201 226.402 389.04 222.506 389.04 222.506Z" fill="#263238" stroke="#252466" stroke-miterlimit="10"/>
<path d="M387.243 222.506H389.04" stroke="#252466" stroke-miterlimit="10"/>
<path d="M360.848 302.013L368.97 301.772L375.125 307.314C375.115 308.023 374.855 308.706 374.392 309.242C373.649 309.965 371.681 309.483 371.681 309.483C371.681 309.483 370.205 313.097 367.494 313.097C364.783 313.097 357.454 308.077 357.454 308.077L360.848 302.013Z" fill="white" stroke="#252466" stroke-miterlimit="10"/>
<path d="M360.607 254.785L333.288 290.688L357.404 308.037L360.848 302.013L353.468 287.797L363.558 278.64L360.607 254.785Z" fill="#90CAF9" stroke="#252466" stroke-miterlimit="10"/>
<path d="M358.88 297.917L354.703 305.387" stroke="#252466" stroke-linecap="round" stroke-linejoin="round"/>
<path d="M353.468 287.797L350.266 279.604" stroke="#252466" stroke-linecap="round" stroke-linejoin="round"/>
<path d="M417.212 302.013L409.09 301.772L402.935 307.314C402.948 308.024 403.211 308.707 403.678 309.242C404.411 309.965 406.379 309.483 406.379 309.483C406.379 309.483 407.855 313.097 410.566 313.097C413.277 313.097 420.656 308.077 420.656 308.077L417.212 302.013Z" fill="white" stroke="#252466" stroke-miterlimit="10"/>
<path d="M417.212 252.857L444.772 290.688L420.656 308.037L417.212 302.013L424.592 287.797L413.026 278.399L417.212 252.857Z" fill="#90CAF9" stroke="#252466" stroke-miterlimit="10"/>
<path d="M419.18 297.917L423.357 305.387" stroke="#252466" stroke-linecap="round" stroke-linejoin="round"/>
<path d="M424.592 287.797L427.794 279.604" stroke="#252466" stroke-linecap="round" stroke-linejoin="round"/>
<path d="M106.926 438.748C133.264 438.748 154.616 434.028 154.616 428.206C154.616 422.384 133.264 417.664 106.926 417.664C80.5875 417.664 59.236 422.384 59.236 428.206C59.236 434.028 80.5875 438.748 106.926 438.748Z" fill="#90CAF9"/>
<path opacity="0.5" d="M106.926 438.748C133.264 438.748 154.616 434.028 154.616 428.206C154.616 422.384 133.264 417.664 106.926 417.664C80.5875 417.664 59.236 422.384 59.236 428.206C59.236 434.028 80.5875 438.748 106.926 438.748Z" fill="white"/>
<path d="M82.1473 417.423C82.1473 417.423 70.5812 423.929 70.5812 427.061C70.5812 430.194 77.7196 428.266 82.3983 426.057C87.0769 423.849 90.7616 422.202 90.7616 417.865C90.7616 413.528 82.1473 417.423 82.1473 417.423Z" fill="#90CAF9" stroke="#252466" stroke-miterlimit="10"/>
<path d="M137.548 417.423C137.548 417.423 149.114 423.929 149.114 427.061C149.114 430.194 141.986 428.266 137.307 426.057C132.628 423.849 128.934 422.202 128.934 417.865C128.934 413.528 137.548 417.423 137.548 417.423Z" fill="#90CAF9" stroke="#252466" stroke-miterlimit="10"/>
<path d="M86.8259 310.929L81.9062 418.668C82.5859 419.229 83.3723 419.647 84.2179 419.895C85.0635 420.144 85.9507 420.218 86.8259 420.114C88.3557 419.887 89.7528 419.117 90.7615 417.945L107.498 330.005H110.942L128.663 419.632C129.722 420.218 130.898 420.561 132.106 420.636C133.833 420.636 136.534 418.467 136.534 418.467L130.871 311.039L86.8259 310.929Z" fill="#263238" stroke="#252466" stroke-miterlimit="10"/>
<path d="M104.055 245.639L81.6553 254.785L87.5588 306.832H130.389L138.261 252.857L113.894 245.157L104.055 245.639Z" fill="#90CAF9" stroke="#252466" stroke-miterlimit="10"/>
<path d="M130.881 305.869H86.8259V310.929H130.881V305.869Z" fill="#263238" stroke="#252466" stroke-miterlimit="10"/>
<path d="M86.0829 309.965L78.4525 313.097C78.3273 315.278 78.4927 317.466 78.9444 319.603C79.6874 322.495 80.6713 328.76 81.4143 329.965C82.1572 331.169 85.8419 333.579 86.3339 332.856C86.8258 332.133 89.2856 310.929 89.2856 310.929L86.0829 309.965Z" fill="#263238" stroke="#252466" stroke-miterlimit="10"/>
<path d="M103.302 234.424V243.209L109.707 249.855L116.243 243.078V234.293L103.302 234.424Z" fill="white" stroke="#252466" stroke-miterlimit="10"/>
<path d="M98.8136 226.271C98.8136 226.271 97.659 223.631 96.8859 225.267C96.1129 226.904 97.0165 229.404 98.1711 230.408C99.0238 231.024 100.079 231.294 101.123 231.161L100.48 227.396L98.8136 226.271Z" fill="white" stroke="#252466" stroke-miterlimit="10"/>
<path d="M119.697 226.271C119.697 226.271 120.851 223.631 121.625 225.267C122.398 226.904 121.494 229.404 120.339 230.408C119.49 231.024 118.438 231.293 117.398 231.161L118.03 227.396L119.697 226.271Z" fill="white" stroke="#252466" stroke-miterlimit="10"/>
<path d="M100.992 208.832C100.992 208.832 95.6108 211.091 95.6108 214.856C95.6108 218.621 96.3739 222.888 97.6188 224.525C98.8638 226.161 99.928 227.286 99.928 227.286L100.179 221.884L103.894 215.489C103.894 215.489 110.048 219.374 113.121 219.374C114.838 219.389 116.554 219.265 118.251 219.003L119.406 225.398L121.072 220.76V216.493C121.072 216.493 124.145 213.601 123.502 211.724C122.859 209.846 112.458 203.943 106.073 205.449C99.6871 206.955 100.992 208.832 100.992 208.832Z" fill="#263238" stroke="#252466" stroke-miterlimit="10"/>
<path d="M98.392 221.502C98.392 221.502 99.9381 230.91 101.213 233.42C102.924 236.21 105.015 238.748 107.428 240.96C108.322 241.582 111.655 241.08 112.94 241.08C114.225 241.08 117.96 233.55 118.582 232.175C119.205 230.8 119.586 219.003 119.586 219.003L118.472 216.864C118.472 216.864 112.96 218.25 108.603 216.493C106.237 215.645 104.122 214.22 102.448 212.346C102.448 212.346 102.067 216.613 100.53 219.123C98.9944 221.633 98.392 221.502 98.392 221.502Z" fill="white" stroke="#252466" stroke-miterlimit="10"/>
<path d="M108.291 222.506C106.741 221.697 105.021 221.266 103.271 221.251C101.77 221.192 100.276 221.491 98.9141 222.125C98.9141 222.125 98.9141 226.392 100.32 228.028C101.725 229.665 105.832 229.153 106.986 227.777C108.141 226.402 108.291 222.506 108.291 222.506Z" fill="#263238" stroke="#252466" stroke-miterlimit="10"/>
<path d="M110.089 222.506C111.639 221.697 113.359 221.266 115.109 221.251C116.61 221.192 118.104 221.491 119.466 222.125C119.466 222.125 119.466 226.392 118.05 228.028C116.635 229.665 112.548 229.153 111.394 227.777C110.239 226.402 110.089 222.506 110.089 222.506Z" fill="#263238" stroke="#252466" stroke-miterlimit="10"/>
<path d="M108.291 222.506H110.089" stroke="#252466" stroke-miterlimit="10"/>
<path d="M106.514 253.098L109.215 257.436L104.787 294.784L110.209 302.736L114.878 294.062L111.193 256.954L114.386 251.904L109.707 249.855L106.514 253.098Z" fill="#263238" stroke="#252466" stroke-miterlimit="10"/>
<path d="M109.707 249.855L106.113 256.01L99.7072 247.476L103.301 243.209L109.707 249.855Z" fill="#90CAF9" stroke="#252466" stroke-miterlimit="10"/>
<path d="M109.707 249.855L114.064 256.632L119.315 246.974L116.243 243.078L109.707 249.855Z" fill="#90CAF9" stroke="#252466" stroke-miterlimit="10"/>
<path d="M81.6553 254.785L54.3364 290.688L78.4525 308.037L81.9063 302.013L74.5168 287.797L84.607 278.64L81.6553 254.785Z" fill="#90CAF9" stroke="#252466" stroke-miterlimit="10"/>
<path d="M81.9062 302.013L90.0186 301.772L96.1731 307.314C96.1632 308.023 95.9037 308.706 95.4402 309.242C94.6972 309.965 92.7294 309.483 92.7294 309.483C92.7294 309.483 91.2535 313.097 88.5427 313.097C85.8319 313.097 78.5027 308.077 78.5027 308.077L81.9062 302.013Z" fill="white" stroke="#252466" stroke-miterlimit="10"/>
<path d="M79.9384 297.917L75.7517 305.387" stroke="#252466" stroke-linecap="round" stroke-linejoin="round"/>
<path d="M74.5168 287.797L71.3241 279.604" stroke="#252466" stroke-linecap="round" stroke-linejoin="round"/>
<path d="M138.261 252.857L165.821 290.688L141.705 308.037L138.261 302.013L145.64 287.797L134.074 278.399L138.261 252.857Z" fill="#90CAF9" stroke="#252466" stroke-miterlimit="10"/>
<path d="M138.261 302.013L130.138 301.772L123.984 307.314C123.997 308.024 124.26 308.707 124.727 309.242C125.46 309.965 127.428 309.483 127.428 309.483C127.428 309.483 128.903 313.097 131.614 313.097C134.325 313.097 141.654 308.077 141.654 308.077L138.261 302.013Z" fill="white" stroke="#252466" stroke-miterlimit="10"/>
<path d="M140.229 297.917L144.415 305.387" stroke="#252466" stroke-linecap="round" stroke-linejoin="round"/>
<path d="M145.64 287.797L148.843 279.604" stroke="#252466" stroke-linecap="round" stroke-linejoin="round"/>
<path d="M101.012 264.423H85.9222V269.564L93.4723 272.455L101.012 269.243V264.423Z" fill="#90CAF9" stroke="#252466" stroke-miterlimit="10"/>
<path d="M131.203 264.423H116.113V269.564L123.663 272.455L131.203 269.243V264.423Z" fill="#90CAF9" stroke="#252466" stroke-miterlimit="10"/>
</svg>
