<svg width="1219" height="428" viewBox="0 0 1219 428" fill="none" xmlns="http://www.w3.org/2000/svg">
<rect width="1219" height="428" rx="20" fill="#2563EB"/>
<mask id="mask0_627_1389" style="mask-type:alpha" maskUnits="userSpaceOnUse" x="0" y="0" width="1219" height="428">
<rect width="1219" height="428" rx="20" fill="#2563EB"/>
</mask>
<g mask="url(#mask0_627_1389)">
<path opacity="0.2" d="M120.63 -112.769C146.582 -43.5422 119.56 49.5474 60.1807 95.1257C0.801587 140.704 -68.343 121.43 -94.2945 52.2032C-120.246 -17.0237 -93.2239 -110.113 -33.8448 -155.692C25.5344 -201.27 94.6789 -181.996 120.63 -112.769Z" stroke="#F1F5F9" stroke-width="7"/>
<path d="M1335.9 483.855C1335.9 567.595 1278.41 634.462 1208.65 634.462C1138.9 634.462 1081.41 567.595 1081.41 483.855C1081.41 400.116 1138.9 333.248 1208.65 333.248C1278.41 333.248 1335.9 400.116 1335.9 483.855Z" stroke="white" stroke-width="7"/>
</g>
</svg>
